<svg viewBox="0 0 1440 1440" xmlns="http://www.w3.org/2000/svg" fill-rule="evenodd" clip-rule="evenodd" stroke-linejoin="round" stroke-miterlimit="2">
    <style>
        .spacestation { fill: #00bb31; }
        .background { fill: #ffffff; }
        @media (prefers-color-scheme: dark) {
            .spacestation { fill: #fe5000; }
            .background { fill: #000000; }
        }
    </style>
    <g transform="matrix(.99982 0 0 1 -635.67 0)">
        <path fill="none" d="M635.781 0h1440.26v1440H635.781z"/>
        <clipPath id="a">
            <path d="M635.781 0h1440.26v1440H635.781z"/>
        </clipPath>
        <g clip-path="url(#a)">
            <ellipse class="background" cx="2628.67" cy="2646.15" rx="720" ry="719.887" transform="matrix(.83348 .00058 -.00058 .83346 -814.942 -1428.72)"/>
            <g transform="translate(180.041 -.255)">
                <clipPath id="b">
                    <path d="M1451.99 482.994c23.12 71.642 46.19 79.075 59.26 21.982 14.1-61.623 46.81-116.121 93.4-126.066 29.52-6.302 48.71-13.196 85.85-15.913 43.05-3.15 152.64 65.234 187.56 287.816 36.87 234.96-28.45 350.037-80.52 359.867-36.5 6.88-64.78 11.67-103.57 14.02-17.29 1.05-54.27-14.27-69.5-34.408-15.04-19.885-15.54-14.277-9.93 3.81 36.5 117.698 82.8 256.978 102.1 326.658 6.7 24.18-.2 40.93-14.22 52.27-30.57 24.72-43.53 33.84-85.45 61.69-7.54 5.01-33.66 15.9-46.03-20.08-44.96-130.77-101.85-325.8-151.99-495.042-12.38-41.791-7.43-112.324-48.03-107.165-32.08 4.075-28.1 84.477-32.24 124.855-18.27 178.112-80.62 274.282-139.31 283.262-62.08 9.49-55.43 12-112.2 15.82-87.03 5.85-228.988-143.39-258.373-440.514-28.421-287.384 52.982-435.095 152.157-450.753 45.706-7.216 64.216-9.81 103.976-11.975 69.88-3.807 115.67 73.91 136.93 109.154 80.57 133.624 80.5 125.4 43.5-16.224-19.99-76.503-72.56-255.093-86.12-303.095-8.51-30.178-3.01-50.947 13.26-62.898 35.48-26.062 41.61-30.236 79.79-56.764 15.49-10.762 33.04 2.273 39.34 23.234 38.68 128.796 125.74 411.164 140.36 456.459z"/>
                </clipPath>
                <g clip-path="url(#b)">
                    <path class="background" d="M635.781 0h1440.255v1440H635.781z"/>
                    <path class="spacestation" d="M1281.077 39.328l-71.547 56.424 9.726 34.39 72.2-55.306-10.379-35.508zm11.703 40.025l-72.132 55.716 66.501 235.132 74.08-56.738-68.449-234.11zm69.77 238.62l-74.01 57.166 68.038 240.575 74.707-62.66-68.735-235.08zm-343.974 57.07c-13.428 1.624-25.28 3.437-30.213 5.006-15.83 5.024-52.915 21.998-81.983 87.597l33.15 32.02 55.337-5.161c8.56-16.734 20.085-31.545 35.836-40.314 22.046 2.232 40.881 17.484 55.23 35.535l23.076-46.067 61.133-7.915c-44.261-59.102-70.827-63.845-96.071-65.245-6.362-.352-33.117 1.835-55.495 4.544zm-113.333 95.204c-27.056 62.517-39.464 132.71-37.426 221.052l35.13 5.693 60.234-7.754c-.123-7.86-.164-15.724-.062-23.585.604-45.708 5.456-91.988 17.973-135.429 2.82-9.786 6.339-19.826 10.727-29.431l-54.023 6.543-32.553-37.09zm269.024-28.858l-61.77 7.977-24.395 43.186a166.365 166.365 0 016.763 9.575c28.487 49.148 48.37 103.374 62.736 158.983l37.455-19.54 66.146-7.377c-15.535-58.985-38.647-120.014-69.423-167.337a595.966 595.966 0 00-17.512-25.467zm496.968-29.092c-2.402.245-4.883.546-7.402.894-16.801 2.324-35.32 6.683-43.677 9.154-17.214 5.094-37.745 30.892-50.882 58.29l22.645 26.568 39.698-4.383c10.1-21.534 22.111-31.189 25.551-32.077 3.571-.927 19.386 6.07 36.075 28.71l13.955-31.632s.674-1.547 1.396-2.103c.714-.547 2.376-.823 2.376-.823l47.41-5.87c-.209-.281-.413-.573-.625-.85-10.534-13.862-22.732-25.134-35.65-33.16-11.4-7.084-23.587-11.659-32.45-12.957-4.708-.69-11.211-.492-18.42.24zm-103.099 70.697c-3.173 6.868-5.875 13.804-7.915 20.507-15.924 52.34-17.53 87.023-17.26 136.284l25.862 3.734 43.114-5.475c-.048-2.558-.123-5.21-.132-7.63-.176-38.484 2.055-57.807 8.204-90.548 2.367-12.589 5.714-23.193 9.442-32.084l-38.394 3.592-22.921-28.38zm193.032-20.2l-49.216 6.493s-.794.028-1.134.279c-.294.218-.6.91-.6.91l-15.45 31.105c4.647 6.553 9.327 14.263 13.814 23.436 15.198 31.099 27.192 61.192 35.659 95.898l29.755-12.673 48.436-6.163c-13.518-50.107-34.052-101.588-61.264-139.285zm-639.47 111.097l-45.994 135.536 5.067 9.622 48.069-129.259-7.142-15.899zm-151.195 32.524l-3.583 20.018 62.417 111.776 2.914-12.288-61.748-119.506zm463.484-44.117l-74.37 61.652 64.14 84.379-111.778 10.567-32.568 2.119c-3.224-19.099-6.578-36.908-9.357-49.854a825.443 825.443 0 00-6.885-29.359l-66.818 7.406-37.668 16.149a971.682 971.682 0 0110.43 45.908 1292.46 1292.46 0 013.353 21.305l-87.64 5.741s-3.613-8.643-7.595-16.772c-6.405-13.067-10.56-12.383-24.914-12.035-12.462.303-25.898 35.766-22.953 69.857 4.707 54.533 22.155 76.31 36.652 76.254 14.805-.062 19.03-6.229 24.035-16.44 5.003-10.208 5.464-23.935 5.464-23.935s48.612-8.422 84.694-18.266c2.275 25.21 3.578 50.511 3.737 75.764l47.883 1.326 59.432-6.56.321 2.935c.7-26.36.266-48.165-.577-61.28-.581-9.01-1.087-14.745-2.574-26.626l59.72-10.735s8.93-3.073 90.773-15.898l11.032 144.366 77.81-65.273-.298-.972-67.674-83.18c30.127-4.67 61.32-11.34 91.587-16.06 2.8 17.364 5.758 34.19 7.081 39.675 1.77 7.324 3.662 14.58 5.624 21.788l22.492-11.57 44.187-5.903a596.449 596.449 0 01-6.397-28.033 595.5 595.5 0 01-4.503-24.855 21339.91 21339.91 0 0053.001-8.41 187.93 187.93 0 006.53-1.152s3.112 4.37 6.233 7.574c4.916 5.05 11.004 4.584 15.2-3.439 3.149-6.018 5.208-15.364 3.509-24.518-1.193-6.426-4.554-13.489-10.064-18.884-5.083-4.975-13.259-5.475-15.55.005-1.96 4.681-3.405 8.533-3.405 8.533l-6.317.564-53.72 4.901c-1.844-17.558-2.857-33.989-3.26-48.507l-43.97 5.278-25.091-5.678c.049 7.214.132 14.747.214 22.695.056 5.504.793 17.897 2.674 32.548l-65.924 6.02-35.537 3.11-9.358-140.662-1.043-3.563zm182.969 7.347l.158 6.892 58.69 100.56 1.333-3.037-60.181-104.415zm107.234-3.199l-27.655 108.47 2.05 1.744 28.048-102.485-2.443-7.729zM867.918 694.653c.905 33.444 3.838 69.466 8.832 108.662 5.14 40.333 11.439 76.08 18.963 108.35l30.347-15.888 60.796-7.232c-13.171-63.451-22.078-128.259-23.571-193.07l-60.346 6.676-35.021-7.498zm955.54-88.832l-48.744 6.452-29.937 10.929c4.561 19.148 8.076 39.692 10.445 62.63 2.653 25.69 5.596 51.184 5.794 79.682l39.102 3.726 44.074-5.258c.434-30.395-3.76-74.33-9.757-108.299-2.83-16.023-6.496-32.84-10.978-49.862zm-141.021 119.594l-32.922 102.554 2.317 5.575 32.848-105.481-2.243-2.648zm19.649-2.063l-1.12 2.282 51.201 110.717 1.78-10.593-51.861-102.406zm-607.222 120.573l-4.814 7.548 82.377 131.602 2.922-20.397-80.485-118.753zm-49.131 6.3l-28.328 117.813 4.735 12.276 28.876-123.472-5.283-6.617zm541.78-61.362l-22.737 9.846c10.864 39.407 24.543 76.408 41.018 104.743 7.465 12.84 15.685 24.24 24.226 34.094l11.494-33.211 40.598-5.746c-5.394-7.434-10.272-15.736-14.72-24.235-17.016-32.5-27.595-61.49-35.33-90.636l-44.55 5.145zm173.502-20.556c.017 28.144-2.69 59.25-11.037 96.398-2.657 11.812-7.334 22.882-12.467 32.194l.255-.083 33.366 24.8 44.377-5.32c22.513-48.062 25.429-85.62 28.446-143.24.11-2.118.128-4.534.179-6.835l-.494 1.256-44.023 4.673-38.602-3.843zM987.988 893.77l-61.078 7.53-30.373 13.76c15.75 66.223 36.806 117.568 64.145 162.669 10.214 16.847 20.323 31.562 30.333 44.376l16.183-46.478 55.828-6.856c-4.858-6.155-9.336-12.589-13.46-18.945-27.12-48.6-48.95-101.09-61.578-156.056zm195.977-17c.064 47.759-4.087 95.332-14.064 141.814-4.323 16.468-9.872 33.689-17.865 49.05l38.144 40.597 59.724-7.004c7.878-17.247 13.786-35.169 18.23-51.07 15.782-56.5 21.73-123.88 23.321-175.173l-60.642 6.665-46.848-4.88zm346.616-32.593l-78.595 65.154 69.01 220.574 78.72-60.297-69.135-225.431zM1684.674 902l-40.18 5.35-13.202 31.637c23.059 26.086 48.337 40.618 67.766 39.5 9.288-.536 59.273-6.163 66.092-9.814 20.22-10.831 33.173-18.527 44.488-40.41 1.39-2.68 2.665-5.298 3.933-7.907l-45.297 4.922-31.865-26.417c-8.815 15.364-18.643 25.375-21.892 24.697-4.785-1-14.651-4.11-25.33-16.093-1.548-1.736-3.041-3.576-4.513-5.465zm-674.297 178.059l-16.68 45.526c32.801 40.878 64.545 60.219 95.388 59.105 20.822-.753 77.237-7.96 90.102-11.427 31.213-8.408 52.58-35.148 67.452-65.163l-60.082 6.508-36.284-43.716c-8.135 14.697-18.664 27.46-32.795 35.812-20.14-3.395-36.771-16.869-50.522-33.123l-56.58 6.478zm590.698-6.002l-78.564 60.695 70.014 223.802 77.577-59.415-69.027-225.082zm70.39 229.538l-77.42 59.802 11.8 37.729 77.362-59.233-11.742-38.298z" fill="#00bb31" fill-rule="nonzero"/>
                </g>
            </g>
        </g>
    </g>
</svg>
