<?xml version="1.0" standalone="no"?>
<!DOCTYPE svg PUBLIC "-//W3C//DTD SVG 20010904//EN"
 "http://www.w3.org/TR/2001/REC-SVG-20010904/DTD/svg10.dtd">
<svg version="1.0" xmlns="http://www.w3.org/2000/svg"
 width="700.000000pt" height="700.000000pt" viewBox="0 0 700.000000 700.000000"
 preserveAspectRatio="xMidYMid meet">
<metadata>
Created by potrace 1.11, written by Peter Selinger 2001-2013
</metadata>
<g transform="translate(0.000000,700.000000) scale(0.100000,-0.100000)"
fill="#000000" stroke="none">
<path d="M3395 6695 c-104 -68 -191 -127 -192 -132 -2 -4 95 -585 216 -1290
l218 -1281 136 -216 c76 -119 137 -219 137 -222 0 -7 -454 2 -627 12 l-103 6
-2 -93 c-1 -64 -3 -75 -5 -34 -21 427 -50 648 -123 922 -88 332 -252 646 -430
825 -134 135 -214 158 -546 158 -183 0 -232 -9 -329 -57 -256 -129 -492 -525
-599 -1003 -58 -264 -70 -400 -71 -830 0 -268 4 -430 13 -505 45 -375 111
-619 240 -889 142 -297 319 -498 487 -554 77 -26 306 -37 493 -24 123 9 138
12 205 45 40 20 96 58 126 84 263 231 486 880 533 1553 7 96 14 165 16 152 l3
-22 162 6 c89 3 262 9 385 12 l222 7 0 -50 c0 -27 -9 -160 -20 -295 l-19 -245
250 -1280 c138 -704 251 -1280 252 -1281 1 -1 98 51 215 115 181 99 212 119
208 136 -3 11 -112 571 -242 1245 l-238 1225 -147 215 -147 215 107 6 c58 4
165 7 238 8 l132 1 5 -32 c3 -18 7 -69 10 -113 11 -175 79 -469 144 -625 82
-195 218 -361 344 -420 65 -31 66 -31 244 -31 182 0 232 8 316 51 108 57 234
237 309 442 35 93 82 291 105 442 20 125 22 496 5 641 -53 435 -180 783 -351
955 -137 138 -227 167 -460 149 -157 -12 -202 -29 -291 -108 -145 -130 -265
-367 -320 -634 -29 -143 -59 -376 -59 -459 l0 -70 -262 7 c-145 4 -264 9 -266
10 -1 1 11 132 28 291 l30 289 -242 1348 c-133 741 -245 1347 -248 1346 -3 0
-90 -56 -195 -124z m-1269 -1683 c89 -65 195 -206 254 -336 104 -228 198 -612
230 -935 23 -233 9 -647 -30 -918 -61 -417 -171 -718 -334 -914 -71 -85 -126
-124 -163 -115 -42 11 -172 149 -231 246 -86 140 -196 444 -241 667 -68 334
-79 900 -26 1283 27 191 125 547 190 687 65 142 244 363 292 363 11 0 38 -13
59 -28z m3204 -500 c112 -119 217 -385 272 -692 20 -116 17 -654 -5 -785 -39
-227 -106 -429 -181 -543 -54 -84 -117 -152 -140 -152 -27 0 -129 108 -169
181 -70 125 -140 343 -171 529 -17 98 -35 290 -30 301 2 4 72 8 156 11 l152 5
24 -29 c32 -37 59 -33 90 12 49 72 10 210 -59 210 -22 0 -32 -7 -41 -26 l-12
-27 -105 7 c-57 3 -129 6 -159 6 l-54 0 6 93 c24 334 76 561 173 750 50 96
145 207 178 207 11 0 44 -26 75 -58z"/>
<path d="M1978 3744 c-61 -33 -106 -151 -115 -299 -12 -205 57 -322 174 -300
36 6 97 57 119 98 9 15 32 18 186 24 l175 6 7 66 c9 101 -3 230 -23 235 -9 3
-77 7 -151 11 -192 9 -182 5 -204 76 -15 47 -26 66 -50 80 -37 22 -81 24 -118
3z"/>
</g>
</svg>
