<?xml version="1.0" encoding="UTF-8" standalone="no"?>
<svg
   xmlns:dc="http://purl.org/dc/elements/1.1/"
   xmlns:cc="http://creativecommons.org/ns#"
   xmlns:rdf="http://www.w3.org/1999/02/22-rdf-syntax-ns#"
   xmlns:svg="http://www.w3.org/2000/svg"
   xmlns="http://www.w3.org/2000/svg"
   xmlns:sodipodi="http://sodipodi.sourceforge.net/DTD/sodipodi-0.dtd"
   xmlns:inkscape="http://www.inkscape.org/namespaces/inkscape"
   width="3292"
   height="3933"
   id="svg2"
   sodipodi:version="0.32"
   inkscape:version="0.91 r13725"
   sodipodi:docname="chaoswelle.svg"
   inkscape:output_extension="org.inkscape.output.svg.inkscape"
   version="1.1"
   inkscape:export-filename="/home/planlos/Bilder/chaoswelle.png"
   inkscape:export-xdpi="90"
   inkscape:export-ydpi="90">
  <metadata
     id="metadata21">
    <rdf:RDF>
      <cc:Work
         rdf:about="">
        <dc:format>image/svg+xml</dc:format>
        <dc:type
           rdf:resource="http://purl.org/dc/dcmitype/StillImage" />
      </cc:Work>
    </rdf:RDF>
  </metadata>
  <defs
     id="defs19" />
  <sodipodi:namedview
     inkscape:window-height="851"
     inkscape:window-width="1600"
     inkscape:pageshadow="2"
     inkscape:pageopacity="0.0"
     guidetolerance="10.0"
     gridtolerance="10.0"
     objecttolerance="10.0"
     borderopacity="1.0"
     bordercolor="#666666"
     pagecolor="#ffffff"
     id="base"
     inkscape:zoom="1.1996553"
     inkscape:cx="957.93023"
     inkscape:cy="308.71272"
     inkscape:current-layer="svg2"
     showgrid="false"
     inkscape:window-x="0"
     inkscape:window-y="25"
     inkscape:window-maximized="1" />
  <g
     id="g3532"
     transform="translate(5.4601519,-1.207166)">
    <path
       sodipodi:nodetypes="scccccccscccscccsscccccccccccscscccccccccccccssscccsscccccccscccscccscccccccccccccsscccccsccscccccccccccccccccscccccccccccccccscsccccccccccccccccccccccccccc"
       inkscape:connector-curvature="0"
       id="path4"
       d="m 1386.877,1.8710938 c -0.4345,-0.00769 -0.8703,-0.00639 -1.3067,0.00391 -22.63,0.46948 -47.6298,32.6687002 -38.0098,56.1250002 5.5,13.3853 22.9494,26.3206 32.6094,37 C 1428.7599,148.7 1481.79,198.785 1533,250 c 24.9,24.896 55.08,49.87 75,79 -10.29,3.278 -19.76,11.447 -29,17 -19.53,11.746 -39.16,23.34517 -59,34.57617 -55.67,31.52 -112.75,60.31242 -169,90.73242 -22.31,12.065 -44.9,23.65724 -67,36.11524 -6.18,3.482 -18.83,13.92494 -26,13.33594 -6.73,-0.554 -15.2599,-14.91677 -19.4199,-19.75977 -16.29,-18.962 -33.3392,-37.257 -49.8692,-56 C 1145.4609,395.96 1099.23,349.233 1053,303 l -40,-40 c -5.63,-5.631 -11.82,-14.38166 -19,-17.97266 C 989.799,242.92634 983.568,244 979,244 c -5.581,0 -13.66516,-1.47248 -18.91016,0.60352 -4.376,1.732 -7.71384,7.15664 -11.08984,10.30664 -12.868,12.006 -27.45448,27.42484 -13.52148,45.08984 59.283,75.159 135.48128,137.083 200.61128,207 18.98,20.378 41.8402,39.161 57.9102,62 -25.73,12.224 -48.87,33.63427 -73,48.94727 -53.31,33.828 -107.02,66.41856 -162,97.47656 -20.741,11.718 -41.936,22.68092 -63,33.79492 -6.553,3.458 -18.542,12.37089 -26,12.21289 -6.36,-0.135 -14.82294,-13.10464 -18.96094,-17.43164 -16.96,-17.739 -33.22322,-36.156 -50.07422,-54 -43.685,-46.261 -86.508,-93.446 -129.875,-140 C 655.48984,533.253 639.192,517.192 623,501 614.726,492.726 605.921,481.86652 596,475.60352 591.414,472.70752 584.201,474 579,474 c -5.182,0 -12.87384,-1.42048 -17.71484,0.60352 -4.019,1.679 -7.11316,6.35656 -10.28516,9.22656 -11.446,10.361 -23.6238,21.06092 -19.4668,38.16992 2.453,10.095 14.49574,19.714 21.42774,27 17.061,17.933 33.54606,36.479 51.03906,54 24.484,24.524 49.42905,48.60891 73.99805,73.00391 28.903,28.697 57.5392,58.26009 84.2832,88.99609 10.233,11.76 25.34475,24.698 31.71875,39 L 765,820.57617 701,857.14062 540,944.30859 462,988 c -4.41,-9.457 -14.82484,-17.188 -21.71484,-25 -18.745,-21.255 -38.15524,-41.933 -57.11524,-63 C 341.13692,853.297 298.45306,807.401 255.03906,762 234.44006,740.458 213.357,714.11506 189,696.78906 c -18.765,-13.348 -32.148,3.1491 -45,15.1211 -10.087,9.396 -21.85256,20.76284 -15.85156,36.08984 3.553,9.074 14.72156,16.99716 21.85156,23.28516 10.514,9.274 20.088,19.80284 30,29.71484 40.712,40.712 80.19794,82.413 119.96094,124 97.401,101.87 189.32514,209.47 283.86914,314 26.578,29.39 54.425,57.63 81,87 15.589,17.23 32.99492,40.1796 52.16992,53.3496 8.615,5.91 20.055,0.9312 28,-3.7988 17.342,-10.34 44.34916,-35.9808 40.78516,-58.5508 -1.373,-8.7 -12.03324,-15.83 -17.61524,-22 C 751.84692,1276.96 735.208,1259.21 718,1242 679.831,1203.83 641.67735,1165.64 603.98438,1127 580.64138,1103.07 555.302,1079.65 535,1053 c 7.946,-3.01 14.818,-9.0801 22,-13.5801 16.249,-10.17 32.334,-20.6406 49,-30.1406 54.1,-30.823 109.31,-59.75602 163,-91.29102 20.516,-12.05 40.788,-24.50573 61,-37.05273 7.474,-4.64 15.611,-13.56005 25,-12.87305 8.807,0.645 15.89408,13.7245 21.08008,19.9375 16.202,19.41 33.13584,38.255 50.08984,57 27.016,29.87 55.29524,58.54 82.74028,88 22.87,24.55 44.9399,50.2209 69.6699,72.8809 12.77,11.7 25.5008,23.4082 38.3808,34.9882 5.46,4.9 11.1791,12.8002 18.0391,15.6602 10.57,4.41 24.3002,-6.7593 30.9902,-13.5293 17.92,-18.16 30.0997,-44.7 11.6797,-67 -9.9,-11.99 -23.0601,-20.65 -33.5801,-32 C 1100.2198,996.673 1053.23,952.06384 1006,908.08984 976.697,880.80484 945.498,853.688 922,821 c 12.698,-3.473 24.531,-11.39536 36,-17.69336 21.849,-11.999 43.07,-25.13805 65,-36.99805 8.52,-4.608 17.5209,-8.34756 25.9609,-13.10156 2.86,-1.612 6.2985,-5.13933 9.8985,-3.73633 5.42,2.115 2.1406,16.7723 2.1406,21.5293 0,22.022 1,44.048 1,66 0,27.357 1.7709,54.702 2.9609,82 0.39,8.899 -3.2302,22.99016 0.7598,30.91016 4.03,7.982 14.0093,14.83184 20.2793,21.08984 15.34,15.323 30.57,30.76 46,46 l 1,0 c 5.25,-5.42 4,-11.88 4,-19 l 0,-43 0,-176 0,-50 c 0,-5.13 -1.8097,-14.2707 2.3203,-18.0957 7.85,-7.267 20.4697,-11.97791 29.6797,-17.50391 19.79,-11.872 39.18,-24.37322 59,-36.19922 6.59,-3.935 23.18,-17.23111 31,-15.53711 6.49,1.405 12.9702,12.58194 17.1602,17.33594 14.48,16.459 28.9896,32.955 43.9296,49 47.49,51.004 96.9903,100.334 143.7403,152 13.45,14.865 27.55,29.134 41,44 5.15,5.693 11.8499,16.66248 19.1699,19.39648 4.74,1.766 21.1291,2.47818 25.3691,-0.42382 5.37,-3.683 9.6309,-11.28274 14.6309,-15.80274 14.9,-13.46 31.3596,-26.93292 22.5996,-49.16992 -2.74,-6.965 -9.5198,-12.609 -14.5098,-18 -9,-9.712 -17.7698,-19.576 -27.0898,-29 -29.97,-30.331 -59.83,-60.829 -90,-91 -28.7,-28.7 -57.0091,-57.684 -85.0391,-87 -12.56,-13.138 -32.2509,-28.457 -39.9609,-45 10.32,-3.911 19.83,-12.22003 29,-18.33203 17.51,-11.671 35.14,-23.12114 53,-34.24414 55.27,-34.424 111.75,-67.54392 170,-96.66992 l 62,-31 c 5.41,-2.706 17.97,-11.39985 24,-10.08985 6.08,1.32 12.3491,11.86794 16.2891,16.33594 13.39,15.211 27.2908,29.976 40.8808,45 51.21,56.596 105.7203,110.158 157.7403,166 13.03,13.985 25.8507,28.173 39.0507,42 4.82,5.051 9.329,12.44066 15.459,15.97266 4.28,2.463 21.8207,2.769 25.9707,0 5.06,-3.374 9.0294,-10.62282 13.6094,-14.88282 13.16,-12.237 28.7092,-21.71784 25.6992,-42.08984 -2.43,-16.443 -22.0693,-28.442 -32.5293,-40 C 1940.0299,552.694 1907.77,520.766 1876,489 1764.5,377.498 1657.46,261.498 1546,150 1514,117.984 1483.93,84.0803 1452,52 1442.35,42.3047 1433.2302,32.0078 1423.9102,22 1412.8804,10.889634 1400.3455,2.1095066 1386.877,1.8710938 Z M 2850.791,2728.2969 c -7.4754,0.1304 -16.0545,6.1082 -20.791,9.9023 -17.7,14.18 -34.9092,29.1008 -49.1992,46.8008 -5.01,6.21 -19.5199,22.26 -16.8399,31 2.07,6.73 10.7884,12.79 15.3184,18 11.45,13.16 22.2208,26.76 32.3008,41 26.47,37.42 46.6198,79.59 61.0898,123 26.27,78.82 32.49,164.28 17.75,246 -4.93,27.37 -10.4204,59.29 -23.7304,84 -15.71,29.18 -41.8995,52.4501 -67.6895,72.5801 -11.5,8.97 -32.3902,18.939 -39.9102,31.459 -4,6.66 -4.2893,16.4309 -5.3593,23.9609 -2.97,20.85 -3.0805,42.04 -4.7305,63 139.88,-39.7 224.5305,-182.74 245.7305,-320 7.55,-48.91 2.2695,-99.71 2.2695,-149 77.16,9.96 152.79,26.9896 230,5.8496 19.619,-5.3721 37.2446,-14.0011 55.123,-23.3926 0.3387,-0.1654 0.377,-0.2219 0.4141,-0.4043 0.023,-4.1223 -0.01,-6.8637 -0.373,-12.1621 -3.0988,-29.2769 -27.6311,-67.2772 -53.1661,-71.7207 -46.56,-4.65 -90.9,18.771 -137,20.791 -37.37,1.64 -74.1,-15.8608 -103,-38.3808 -45.44,-35.43 -72.8294,-86.9101 -99.6894,-136.5801 -8.5,-15.72 -16.0706,-32.02 -24.0606,-48 -2.09,-4.17 -5.0995,-14.7798 -9.5195,-16.7598 -1.5463,-0.6915 -3.211,-0.973 -4.9355,-0.9433 z"
       style="fill:#D0D0CE;stroke:none" />
    <path
       sodipodi:nodetypes="cccccccscccccccccccccccsscscccscscccccccccccccscscccccscccccccscccscccccsscccccsccccccccccccccccsccccccccccscccccccccccccscscccccccccscscsscccccsccccscccccccsccccccscccccccccccccccccccccsccccccccccccccccccccccscssccccccsccccc"
       id="path8"
       d="m 1056,1107 c 0,36.93 -3.08,74.06 -3.99,111 -1.82,74.64 0.99,149.42 0.99,224 l 0,78 c 0,12.3 -3.01,24.15 10,30.72 15.64,7.9 39.26,7.99 56,4.04 6.55,-1.54 15.26,-4.39 18.54,-10.78 3.57,-6.92 1.46,-18.37 1.46,-25.98 0,-20.19 -1.29,-40.86 0.09,-61 4.32,-63.15 0.91,-127.66 0.91,-191 l 0,-60 c 0,-9.78 1.25,-22.52 -1.72,-31.9 -2.03,-6.38 -14.26,-13.44 -19.28,-18.1 -17.34,-16.1 -37.47,-31.19 -53,-49 l -9.922,-10.7621 M 807,1565.42 c -20.839,2.74 -42.986,0.33 -64,0.58 -38.565,0.46 -77.449,1.35 -116,3.04 -112.354,4.92 -224.669,11 -337,15.92 -47.356,2.07 -94.716,4.71 -142,7.95 -15.604,1.07 -38.953,-5.77 -52.9105,3.78 C 60.5853,1620.28 48.0535,1655.5 37.1404,1694 21.1528,1750.41 10.0787,1808.71 3.83411,1867 -4.74852,1947.12 0,2029.4 0,2110 c 0,76.75 -3.31794,154.33 0.0393519,231 2.7705381,63.27 8.6889181,126.94 14.7908481,190 6.5403,67.58 13.6168,136.34 41.8642,199 10.1522,22.52 23.2861,49.65 41.4792,66.85 5.9204,5.6 18.2034,3.86 25.8264,4.19 19.682,0.86 39.281,2.49 59,2.97 76.999,1.89 153.818,4.99 231,4.99 260.052,0 519.98,-9.35 780,-2.99 51.91,1.28 104.15,7.96 156,7.96 14.89,0 30.08,-3.28 45,-3.93 37.48,-1.64 76.62,-3.5 107,-28.5 20.42,-16.81 22.74,-48.99 28.87,-73.54 16.12,-64.47 35.1,-131.03 35.13,-198 0.01,-15.44 2.69,-34.03 -1.64,-49 -4.79,-16.57 -24.94,-28.99 -41.36,-30.7 -5.92,-0.61 -12.31,2.15 -18,3.57 -6.81,1.71 -13.81,3.62 -20,7.03 -20.68,11.4 -20.14,35.32 -22.07,56.1 -4.7,50.53 -12.06,105.16 -39.36,149 -7.65,12.29 -22.52,35.41 -37.57,38.81 -27.09,6.11 -56.42,6.69 -84,9.36 -59.99,5.8 -119.85,7.24 -180,9.87 -195.557,8.56 -391.508,-6.04 -587,-6.04 -109.765,0 -240.182,37.55 -339,-28.35 -7.87,-5.25 -17.461,-11.33 -23.362,-18.82 -11.086,-14.07 -16.356,-37.98 -21.971,-54.83 -14.815,-44.45 -26.194,-89.77 -33.914,-136 -23.4867,-140.65 -19.2435,-283.12 -15.768,-425 2.02,-82.44 -1.1975,-174.88 32.877,-252 14.466,-32.74 40.785,-71.24 75.138,-85.64 7.399,-3.1 17.116,-1.78 25,-2.53 18.299,-1.74 36.663,-2.66 55,-3.92 54.648,-3.74 109.273,-8.55 164,-10.95 223.553,-9.78 447.097,-23.38 671,-8.05 61.18,4.19 122.03,9.63 183,16.93 28.58,3.43 60.3,4.98 88,12.94 65.5,18.83 55.58,93.76 62.87,146.22 2.56,18.39 7.71,51.2 25.3,61.86 9.54,5.78 26,6.14 36.83,6.14 9.1,0 18.06,0.34 27,-1.67 6.76,-1.51 17.92,-4.65 22.06,-10.66 3.56,-5.16 2.8,-15.6 2.95,-21.67 0.4,-14.99 0.99,-29.95 0.99,-45 0,-61.61 -16.02,-125.92 -47.8,-179 -6.97,-11.64 -14.19,-23.13 -22.33,-34 -2.79,-3.74 -6.03,-10.42 -10.25,-12.62 -17.72,-9.27 -43.66,-9.04 -63.62,-11.66 -41.97,-5.52 -83.9,-10.68 -126,-14.89 -120.18,-12.01 -241.16,-18.83 -362,-18.83 -30.931,0 -61.991,-1 -93,-1 -13.437,0 -27.673,-1.33 -41,0.42 M 2273,2142 c -52.33,-17.82 -101.79,-46.63 -157,-56.39 -8.23,-1.45 -16.7,-0.13 -25,-0.7 -23.95,-1.64 -47.97,-1.63 -72,-1.91 -49.98,-0.6 -99.93,-2 -150,-2 -179.39,0 -359.86,6.88 -539,-0.96 -69.07,-3.03 -138.03,-3.23 -207,-7.95 -24.48,-1.68 -53.22,0.7 -77,-5.52 -10.21,-2.67 -21.03,-15 -29,-21.65 -23.905,-19.96 -45.945,-42.1 -67.089,-64.92 -57.082,-61.6 -103.458,-132.09 -152.487,-200 -14.346,-19.87 -28.782,-39.66 -43.848,-59 -5.763,-7.4 -12.047,-19.11 -20.58,-23.44 C 721.104,1691.51 705.932,1692 693,1692 l -63,0 c 6.988,22.08 24.964,44.3 38.291,63 29.749,41.75 62.704,81 94.709,121 26.742,33.43 56.841,63.77 82.626,98 45.576,60.51 88.493,130.06 159.374,163.74 18.15,8.62 45.17,5.54 65,7.43 53.82,5.14 108,7.5 162,9.87 187.37,8.2 375.19,10.96 563,10.96 89.69,0 179.42,0.79 269,2.99 21.62,0.53 43.47,-0.9 65,1.18 45.13,4.37 94.35,20.84 128,51.83 -23.54,0 -45.59,-7.27 -68,-13.71 -10.57,-3.04 -21.93,-7.75 -33,-8.25 -159.17,-7.23 -318.67,-7.15 -478,-11.05 -117.47,-2.88 -236.5,-7.17 -354,-2.03 -65.17,2.85 -130.84,1.43 -196,3.03 -28.13,0.68 -57.14,-1.02 -85,3.28 -15.36,2.38 -30.19,8.17 -45,12.71 -7.36,2.25 -16.007,2.6 -23,5.67 -7.699,3.38 -14.688,10.91 -21,16.35 -12.515,10.8 -24.908,21.65 -37,32.91 -48.735,45.38 -92.875,94.79 -135.25,146.09 -49.017,59.35 -93.507,122.25 -139.38,184 -11.151,15.01 -22.276,30.04 -33.497,45 -4.855,6.47 -13.043,14.16 -15.36,22 -1.937,6.56 -0.513,15.19 -0.513,22 l 66,0 c 7.524,0 20.19,2.42 26.996,-1.03 12.145,-6.14 23.466,-24.68 32.275,-34.97 25.891,-30.25 49.722,-62.16 73.602,-94 72.481,-96.64 146.838,-205.68 260.127,-257.69 32.59,-14.96 69.1,-24.7 105,-26.27 30.94,-1.36 62.15,2.57 93,3.92 62.62,2.74 125.38,2.26 188,5 39.17,1.72 78.79,0.04 118,0.04 137.33,0 275.86,-5.04 413,0.96 71.15,3.12 142.33,-1.5 213,9.46 22.18,3.44 41.71,11.49 63,17.58 l 0,1 c -130.05,0 -260.01,-0.17 -390,3.01 -82.68,2.03 -166.27,6 -249,3.98 -95.17,-2.34 -191.1,-7.19 -286,-3.03 -51.68,2.26 -104.49,1.66 -155,14.92 -28.49,7.49 -55.95,18.44 -80,35.7 -7.76,5.57 -16.83,11.61 -22.5,19.42 -9.35,12.88 -12.57,33.79 -16.37,49 -11.96,47.85 -13.13,96.01 -13.13,145 0,28.44 4.4,56.15 9.61,84 1.31,7 1.32,23.32 7.62,27.59 15.3,10.37 38.68,5.41 55.77,5.41 4.91,0 15.47,1.98 19.3,-1.6 9.56,-8.96 11.09,-34.14 13.24,-46.4 2.78,-15.88 -0.67,-34.13 -2.37,-50 -5.73,-53.45 -22.75,-114.31 11.58,-162 12.46,-17.32 29.54,-17.37 49.25,-20.42 34.9,-5.42 69.87,-10.01 105,-13.41 126.16,-12.21 253.34,-11.29 380,-8.18 76.01,1.86 152.07,2.65 228,5.97 58.95,2.58 118.96,2.47 178,1.03 26.28,-0.65 55.99,-5.95 82,-2.85 3.3,0.39 7.15,2.24 7.65,5.9 0.55,4.03 -1.84,8.93 -2.36,12.96 -1.16,8.89 0.87,19.48 5.82,27 11.34,17.26 41.11,23.22 59.89,28.57 112.91,32.19 231.82,8.56 338,-35.99 38.8,-16.28 74.58,-39.02 113,-55.58 -76.9,76.68 -188.19,106.76 -292,123.92 -23.15,3.83 -46.66,6.58 -70,8.91 -16.24,1.62 -32.75,0.82 -47,9.37 -11.25,6.75 -24.44,14.32 -30.1,26.8 -11.34,25.01 25.41,42.16 44.1,48.95 53.8,19.54 120.14,14.79 175,2.4 133.45,-30.15 276.89,-110.85 343.69,-234.35 17.19,-31.78 24.96,-63.34 33.31,-98 -9.18,-1.16 -23.43,-2.14 -26.42,-13 -1.6,-5.79 1.58,-12.6 3.42,-18 4.24,-12.44 10.51,-24.76 11.83,-38 3.73,-37.35 -39.25,-58.49 -64.53,-29 -8.5,9.92 -13.74,22.11 -22.3,32 -6.09,-14.84 -13.18,-29.36 -17.1,-45 -2.42,-9.6 -1.41,-19.51 -3.42,-29 -2.29,-10.79 -7.4,-21.77 -11.48,-32 -8.7,-21.81 -17.99,-42.9 -30.2,-63 -13.15,-21.65 -31.22,-41.3 -53.8,-53.22 -5.56,-2.93 -16.47,-9.96 -23,-8.08 -9.63,2.77 -17.77,18.5 -20.64,27.3 -2.06,6.31 -2.81,13.39 -2.27,20 0.58,7 4.73,13.67 7.49,20 6.25,14.37 12.76,28.62 19,43 17.88,41.23 33.67,83.27 44.29,127 3.95,16.26 15.09,47.47 3.41,61 -2.86,3.31 -8.8,12.35 -14.06,11.17 -5.36,-1.21 -7.38,-18.53 -8.59,-23.17 -6.15,-23.61 -13.16,-47.14 -21.68,-70 -14.63,-39.23 -37.8,-74.31 -57.64,-111 -25.05,-46.32 -44.76,-96.49 -86.31,-131.25 -19.31,-16.15 -42.33,-27.19 -67,-32.15 -10.49,-2.11 -24.09,-2.63 -31.72,6.44 -6.1,7.25 -3.38,18.63 0.92,25.96 10.95,18.62 22.49,37.03 34.47,55 49.79,74.69 103.62,150.6 135.75,235 8.81,23.14 16.84,46.68 21.78,71 2.68,13.2 7.46,23.1 -6.2,31 -1.93,-11.2 -7.54,-22.39 -11.58,-33 -9.03,-23.74 -19.1,-47.14 -30.16,-70 -23.31,-48.17 -49.28,-95.06 -79.98,-139 -10.07,-14.41 -22.53,-26.77 -32.85,-41 -17.08,-23.54 -32.65,-48.28 -50.83,-71 -21.68,-27.1 -48.13,-49.94 -82.6,-58.12 -16.12,-3.82 -35.58,-6.54 -40.32,14.12 -2.76,12.02 3.51,19.01 10.44,28 9.9,12.86 20.17,25.45 30.46,38 43.03,52.51 89.37,105.77 121.42,166 -41.89,-48.41 -76.18,-103.3 -132,-137.93 -25.14,-15.6 -55.25,-25.89 -83,-35.76 -73.85,-26.29 -151.19,-39.95 -229,-47.48 -158.67,-15.35 -319.89,-5.71 -479,-1.82 -66.86,1.64 -134.41,1.5 -201,-4.84 -30.21,-2.88 -61.14,-4.23 -91,-10.27 -26.87,-5.43 -41.91,-41.12 -45.92,-64.9 -6.97,-41.37 1.92,-84.37 1.92,-126 0,-12.37 -0.88,-24.9 -3.65,-37 -0.76,-3.31 -1.08,-9.66 -3.36,-12.24 -2.68,-3.03 -14.08,-0.76 -17.99,-0.76 -16.93,0 -40.59,-4.34 -56.81,0.32 -5.07,1.45 -6.58,9.23 -7.52,13.68 -2.84,13.4 0.82,28 -3.42,41 -6.25,19.17 -4.95,41.81 -6.34,62 -3.35,48.6 -8.91,104.79 18.95,148 19.22,29.8 53.94,43.19 86.14,54.69 74.3,26.54 153.45,36.31 232,36.31 113.51,0 225.83,-12 339,-16.96 48.7,-2.13 97.35,-0.25 146,0.95 52.15,1.27 104.09,1.29 156,6.84 71.55,7.66 143.31,24.05 204,64.5 17.71,11.81 39.57,26.17 52,43.67 z"
       style="fill:#D0D0CE;stroke:none"
       inkscape:connector-curvature="0" />
    <path
       id="path10"
       d="m 2273,2142 1,1 -1,-1 m 124,24 2,3 -2,-3 z"
       style="fill:#ffffff;stroke:none"
       inkscape:connector-curvature="0" />
    <path
       id="path12"
       d="m 2859,2325.44 c -6.15,0.96 -13.69,2.44 -18.61,6.53 -5.34,4.44 -8.42,13.98 -11.7,20.03 -6.85,12.63 -14.39,25.05 -22.36,37 -35.42,53.15 -76.41,102.24 -125.33,143.58 -63.52,53.66 -137.96,96.52 -219,117.05 -27.34,6.92 -54.95,11.53 -83,14.2 -23.4,2.23 -44.58,-0.23 -65,14.21 -21.32,15.08 -10.18,42.61 6,56.77 25.84,22.63 70.55,23.97 103,23.18 55.38,-1.36 115.5,-14.18 166,-37.3 24.09,-11.03 46.54,-27.17 68,-42.55 59.82,-42.86 111.54,-96.38 152.97,-157.14 29.62,-43.44 52.89,-92.93 65.66,-144 4.79,-19.18 17.41,-56.88 -16.63,-51.56 z"
       style="fill:#D0D0CE;stroke:none"
       inkscape:connector-curvature="0" />
    <path
       id="path14"
       d="m 2695,2371 -3,2 0,1 3,-3 z"
       style="fill:#ffffff;stroke:none"
       inkscape:connector-curvature="0" />
    <path
       id="path16"
       d="m 2880.39,2426.03 c -8.29,5.26 -14.54,23.49 -19.39,31.97 -15.88,27.78 -31.59,55.64 -48.2,83 -46.22,76.12 -100.93,153.69 -177.8,201.57 -21.45,13.37 -43.76,22.34 -67,31.82 -9.55,3.89 -14.95,9.76 -26,10.52 -18.53,1.28 -57.49,-10.33 -66.44,13.09 -13.71,35.87 34.85,52.8 61.44,56.42 26.39,3.6 54.42,-2.47 80,-8.54 16.76,-3.97 34.66,-6.58 51,-11.97 22.44,-7.4 44.22,-19.86 64,-32.6 88.18,-56.8 150.2,-150.37 179,-250.31 6.07,-21.07 10.53,-42.37 14.08,-64 2.4,-14.65 5.34,-24.32 -2.66,-37 -6.91,-10.97 -25.87,-34.23 -42.03,-23.97 M 1043,3448 l -103,0 c -29.814,0 -60.332,1.65 -90,-1.17 -9.31,-0.89 -18.717,-1.03 -28,-2.25 -5.217,-0.69 -13.004,-2.72 -18,-0.72 -15.263,6.1 -16,24.49 -16,38.14 0,4.6 -1.113,10.91 1.603,14.91 11.058,16.29 38.358,24.05 56.397,28.2 46.173,10.62 93.467,0.89 140,0.89 l 35,0 c 4.94,0 12.29,-0.71 16.67,2.02 5.84,3.64 7.59,14.77 8.72,20.98 4.04,22.25 -1.65,42.97 -3.39,65 l -110,0 c -13.938,0 -34.837,-3.94 -48,0.59 -23.44,8.07 -19.846,43.37 -12.127,61.41 2.264,5.29 5.308,12.05 10.217,15.4 7.484,5.1 26.028,1.6 34.91,1.6 l 92,0 29,0 c 3.69,0 8.35,-0.78 11.03,2.32 5.5,6.32 6.29,16.77 7.14,24.68 2.08,19.45 -0.17,39.41 -0.17,59 -18.39,2.48 -36.37,4 -55,4 -11.253,0 -26.861,-0.97 -36.895,5.14 -13.6,8.28 -7.804,37.83 -4.079,49.86 1.323,4.28 2.911,12.22 7.249,14.44 4.841,2.47 12.391,2.08 17.725,2.72 15,1.79 30,2.58 45,4.01 42.27,4.02 85.63,3.88 128,2.84 17.93,-0.43 36.11,1.15 54,-0.1 32.86,-2.3 38.04,-44.51 15.96,-63.45 -23.17,-19.87 -63.16,-17.17 -91.96,-19.46 0,-19.69 -1.52,-39.42 -0.09,-59 0.4,-5.49 0.07,-17.63 5.37,-20.97 7.64,-4.82 27.74,-1.03 36.72,-1.03 l 89,0 c 9.76,0 27.21,3.36 36,-1.03 12.47,-6.23 16.4,-22.24 16.96,-34.97 0.56,-12.68 -0.78,-32.51 -11.29,-41.49 -6.9,-5.89 -21.08,-5.74 -29.67,-6.79 -29.95,-3.68 -64.2,0.79 -94,4.7 -12.53,1.65 -37.83,1.94 -47.98,-6.65 -11.71,-9.9 -3.62,-26.51 -5.77,-39.77 -1.68,-10.35 -7.68,-23.69 -4.14,-34 1.17,-3.41 3.33,-8.06 6.98,-9.36 4.71,-1.66 12.01,0.91 16.91,1.27 13.99,1.03 28.05,1.59 42,2.92 44.78,4.26 93.14,1.17 138,-0.79 15.77,-0.69 37.43,5.25 52,-1.39 11.78,-5.37 15.1,-17.29 18.42,-28.65 5.32,-18.16 12.02,-41.35 -13.42,-46.71 -50.82,-10.72 -103.96,-7.29 -156,-7.29 -35.78,0 -71.41,-3.98 -107,-4 0,-109.14 1.31,-217.97 3.99,-327 0.72,-29.63 1.87,-59.41 2.01,-89 0.09,-18.32 -1.96,-37.83 0.42,-56 4.92,-37.41 -0.36,-77.42 -0.42,-115 -0.02,-13.48 4.66,-32.67 -11,-38.3 -16.86,-6.06 -40.4,-3.87 -58,-2.61 -6.57,0.47 -16.1,2.16 -18.99,8.95 -2.17,5.09 -0.73,11.57 -1.1,16.96 -0.96,13.97 -1.91,27.98 -1.91,42 0,41.63 -0.5,83.37 0,125 1.02,85.72 6.59,171.31 7,257 0.17,35.64 0.52,71.42 -1.04,107 -1.09,24.94 -3.96,50.04 -3.96,75 m 1398,-64 c 18.94,-2.55 39.59,-5.23 58,-10.43 5.34,-1.5 15.61,-3.39 18.97,-8.21 2.49,-3.56 1.03,-11.2 1.03,-15.36 0,-12.07 0.88,-24.01 2.17,-36 3.67,-34.27 13.45,-67.2 26.43,-99 19.3,-47.26 49.71,-90.35 82.67,-129 15.47,-18.14 35.07,-34.61 48.73,-54 12.65,13.64 10.58,47.17 11.01,65 1.47,59.85 -4.64,118.18 -16.41,177 -30,149.94 -87.5,302.46 -56.6,457 14.82,74.13 50.28,151.26 118,191.55 16.58,9.86 47.67,19.9 59,-2.55 6,-11.89 2.96,-25.35 4.17,-38 0.57,-6.02 5.27,-14.57 4.73,-20 -0.7,-7 -13.96,-16.73 -18.47,-22 -13.72,-16.02 -24.68,-33.69 -35.01,-52 -21.12,-37.47 -31.65,-81.92 -38.67,-124 -2.8,-16.82 -7.13,-34.91 -6.74,-52 0.59,-25.75 7,-52.7 11.57,-78 7.96,-44.15 16.88,-88.12 26.21,-132 26.08,-122.66 47.8,-247.56 34.38,-373 -6.34,-59.2 -19.99,-125.42 -53.52,-175.9 -9.28,-13.96 -39.56,-8.28 -52.65,-4.38 -9.07,2.7 -17.89,6.25 -27,8.85 -3.51,1 -9.58,1.2 -12.14,4.02 -5.42,5.95 -6.05,23.49 -8.52,31.41 -7.09,22.73 -16.89,43.8 -27.59,65 -53.51,106.01 -155.7,192.78 -167.58,317 -3.71,38.77 5.22,71.8 13.83,109 m 151,68 c -4.61,3.49 -12.41,2 -18,2 -15.36,0 -30.72,-0.93 -46,-1 -49.49,-0.24 -120.54,-4.32 -139.25,54 -4.83,15.05 -4.75,30.4 -4.75,46 23.24,3.13 45.38,6 69,4.96 27.42,-1.2 54.6,-6.59 82,-7.92 14.86,-0.72 45.3,4.34 55.61,-8.08 7.53,-9.07 3.74,-17.7 3.99,-27.96 0.51,-21.06 -0.11,-38.04 6.4,-58 l -2,-3 -7,-1 z"
       style="fill:#D0D0CE;stroke:none"
       inkscape:connector-curvature="0" />
  </g>
</svg>
