<?xml version="1.0" encoding="UTF-8" standalone="no"?>
<svg
   xmlns:dc="http://purl.org/dc/elements/1.1/"
   xmlns:cc="http://creativecommons.org/ns#"
   xmlns:rdf="http://www.w3.org/1999/02/22-rdf-syntax-ns#"
   xmlns:svg="http://www.w3.org/2000/svg"
   xmlns="http://www.w3.org/2000/svg"
   xmlns:sodipodi="http://sodipodi.sourceforge.net/DTD/sodipodi-0.dtd"
   xmlns:inkscape="http://www.inkscape.org/namespaces/inkscape"
   inkscape:version="1.0beta2 (2b71d25, 2019-12-03)"
   sodipodi:docname="Freifunk.net-dark.svg"
   id="svg1011"
   version="1.1"
   viewBox="0 0 243 234"
   height="82.55mm"
   width="85.72mm">
  <metadata
     id="metadata1017">
    <rdf:RDF>
      <cc:Work
         rdf:about="">
        <dc:format>image/svg+xml</dc:format>
        <dc:type
           rdf:resource="http://purl.org/dc/dcmitype/StillImage" />
        <dc:title>Freifunk.net</dc:title>
      </cc:Work>
    </rdf:RDF>
  </metadata>
  <defs
     id="defs1015" />
  <sodipodi:namedview
     inkscape:current-layer="svg1011"
     inkscape:window-maximized="1"
     inkscape:window-y="23"
     inkscape:window-x="0"
     inkscape:cy="156.00001"
     inkscape:cx="31.47262"
     inkscape:zoom="1.6089743"
     showgrid="false"
     id="namedview1013"
     inkscape:window-height="710"
     inkscape:window-width="1280"
     inkscape:pageshadow="2"
     inkscape:pageopacity="0"
     guidetolerance="10"
     gridtolerance="10"
     objecttolerance="10"
     borderopacity="1"
     inkscape:document-rotation="0"
     bordercolor="#666666"
     pagecolor="#ffffff" />
  <title
     id="title959">Freifunk.net</title>
  <g
     id="g965">
    <path
       id="path961"
       style="fill: #fff"
       d="M67.45,51.55A60.49,60.49,0,1,1,7.21,112,60.37,60.37,0,0,1,67.45,51.55Z" />
    <path
       id="path963"
       style="fill: #fff"
       d="M156.81,0.29c47.51,0,86,38.67,86,86.38s-38.51,86.38-86,86.38-86-38.67-86-86.38S109.3,0.29,156.81.29Z" />
  </g>
  <g
     id="g975">
    <path
       id="path967"
       style="fill: #dc0468"
       d="M67.45,163.72A51.68,51.68,0,1,1,118.91,112,51.63,51.63,0,0,1,67.45,163.72Zm0-100.82A49.15,49.15,0,1,0,116.39,112,49.1,49.1,0,0,0,67.45,62.9Z" />
    <g
       id="g973">
      <path
         id="path969"
         style="fill: #dc0468"
         d="M156.8,164.81C113.88,164.81,79,129.76,79,86.68S113.88,8.54,156.8,8.54h0c42.92,0,77.84,35.05,77.84,78.13S199.73,164.81,156.8,164.81Zm0-141.15a63,63,0,1,0,62.72,63A62.94,62.94,0,0,0,156.81,23.66Z" />
      <path
         id="path971"
         style="fill: #dc0468"
         d="M156.81,142a55.35,55.35,0,1,1,55.12-55.35A55.3,55.3,0,0,1,156.81,142Zm0-108.17A52.82,52.82,0,1,0,209.4,86.68,52.77,52.77,0,0,0,156.81,33.85Z" />
    </g>
  </g>
  <path
     id="path977"
     style="fill: #fab313"
     d="M68.75,100.6L56.2,88H44.38l8.37,8.41H36v8.41H52.75l-8.37,8.41H56.2l12.55-12.61h0Z" />
  <path
     id="path979"
     style="fill: #fab313"
     d="M131.79,100.6L153,79.25h20L158.89,93.49h28.36v14.23H158.89L173.06,122H153L131.79,100.6h0Z" />
  <g
     id="g1009">
    <g
       id="g987">
      <path
         style="fill:#ffffff;fill-opacity:1"
         id="path981"
         d="M234.22,182.5h-8.31v6.84h-2.23v6.17h2.23v23.81q-0.12,4.27,1.27,6t5.73,1.64h3.73v-6.17h-1a1.21,1.21,0,0,1-1.19-.84,4.72,4.72,0,0,1-.25-1.73V195.51h2.29v-6.17h-2.29V182.5h0Z" />
      <path
         style="fill:#ffffff;fill-opacity:1"
         id="path983"
         d="M201.43,218.92a7.77,7.77,0,0,0,2.89,6.36,11,11,0,0,0,6.86,2.12,11.11,11.11,0,0,0,6.87-2.12,7.74,7.74,0,0,0,2.94-6.36V212h-8.31v7.23a2.62,2.62,0,0,1-.34,1.33,1.32,1.32,0,0,1-1.17.64,1.24,1.24,0,0,1-1.14-.64,2.7,2.7,0,0,1-.3-1.33v-9.8H221V197.35A7.74,7.74,0,0,0,218,191a11.12,11.12,0,0,0-6.87-2.12,11,11,0,0,0-6.86,2.12,7.77,7.77,0,0,0-2.89,6.36v21.57h0Zm8.31-15.12V197a2.62,2.62,0,0,1,.3-1.33,1.24,1.24,0,0,1,1.14-.64,1.32,1.32,0,0,1,1.17.64,2.56,2.56,0,0,1,.34,1.33v6.78h-3Z" />
      <path
         style="fill:#ffffff;fill-opacity:1"
         id="path985"
         d="M186.55,189.34h-8.31v37.59h8.31V197.68a2.62,2.62,0,0,1,.3-1.33,1.24,1.24,0,0,1,1.14-.64,1.32,1.32,0,0,1,1.17.64,2.55,2.55,0,0,1,.34,1.33v29.25h8.31V197.09a14.15,14.15,0,0,0-.76-5.73q-0.91-2.37-4.73-2.48a7,7,0,0,0-3.45,1,4.51,4.51,0,0,0-2.18,2.73h-0.13v-3.28h0Z" />
    </g>
    <path
       style="fill:#ffffff;fill-opacity:1"
       id="path989"
       d="M173.86,226.93v-9.72h-8.31v9.72h8.31Z" />
    <g
       id="g1007">
      <path
         style="fill:#ffffff;fill-opacity:1"
         id="path991"
         d="M150,226.93V207.15h0.13l3.34,19.78H162l-3.93-21.43,4.06-16.17H153.5l-3.34,16.89H150V180.14h-8.31v46.8H150Z" />
      <path
         style="fill:#ffffff;fill-opacity:1"
         id="path993"
         d="M126.72,189.34h-8.31v37.59h8.31V197.68a2.62,2.62,0,0,1,.3-1.33,1.24,1.24,0,0,1,1.14-.64,1.32,1.32,0,0,1,1.17.64,2.55,2.55,0,0,1,.34,1.33v29.25H138V197.09a14.15,14.15,0,0,0-.76-5.73q-0.91-2.37-4.73-2.48a7,7,0,0,0-3.45,1,4.51,4.51,0,0,0-2.18,2.73h-0.13v-3.28h0Z" />
      <path
         style="fill:#ffffff;fill-opacity:1"
         id="path995"
         d="M106.5,226.93h8.31V189.34H106.5v29.25a2.62,2.62,0,0,1-.3,1.33,1.24,1.24,0,0,1-1.14.64,1.32,1.32,0,0,1-1.17-.64,2.55,2.55,0,0,1-.34-1.33V189.34H95.24v29.85a14.15,14.15,0,0,0,.76,5.73q0.91,2.37,4.73,2.48a7,7,0,0,0,3.45-1,4.51,4.51,0,0,0,2.18-2.73h0.13v3.28h0Z" />
      <path
         style="fill:#ffffff;fill-opacity:1"
         id="path997"
         d="M81.76,226.93h8.31V195.51h2.55v-6.17H90.07v-0.73a3,3,0,0,1,.34-1.75,1.84,1.84,0,0,1,1.62-.56h0.59v-6.17H89.15q-4-.07-5.71,1.41t-1.68,5.35v2.44h-2v6.17h2v31.42h0Z" />
      <path
         style="fill:#ffffff;fill-opacity:1"
         id="path999"
         d="M76.78,226.93V189.34H68.47v37.59h8.31Zm0-39.71v-7.09H68.47v7.09h8.31Z" />
      <path
         style="fill:#ffffff;fill-opacity:1"
         id="path1001"
         d="M45.1,218.92A7.77,7.77,0,0,0,48,225.28a11,11,0,0,0,6.86,2.12,11.11,11.11,0,0,0,6.87-2.12,7.74,7.74,0,0,0,2.94-6.36V212H56.36v7.23a2.62,2.62,0,0,1-.34,1.33,1.32,1.32,0,0,1-1.17.64,1.24,1.24,0,0,1-1.14-.64,2.7,2.7,0,0,1-.3-1.33v-9.8H64.66V197.35A7.74,7.74,0,0,0,61.72,191a11.12,11.12,0,0,0-6.87-2.12A11,11,0,0,0,48,191a7.77,7.77,0,0,0-2.89,6.36v21.57h0ZM53.4,203.8V197a2.62,2.62,0,0,1,.3-1.33,1.24,1.24,0,0,1,1.14-.64,1.32,1.32,0,0,1,1.17.64,2.56,2.56,0,0,1,.34,1.33v6.78h-3Z" />
      <path
         style="fill:#ffffff;fill-opacity:1"
         id="path1003"
         d="M30.22,189.34H21.92v37.59h8.31V197.68a2.62,2.62,0,0,1,.3-1.33,1.24,1.24,0,0,1,1.14-.64,1.32,1.32,0,0,1,1.17.64,2.55,2.55,0,0,1,.34,1.33v11.9h8.31V195.45a8.58,8.58,0,0,0-1-4.81q-1.1-1.73-4.13-1.76a6.49,6.49,0,0,0-3.59,1,7.22,7.22,0,0,0-2.37,2.7H30.22v-3.22h0Z" />
      <path
         style="fill:#ffffff;fill-opacity:1"
         id="path1005"
         d="M8.45,226.93h8.31V195.51h2.55v-6.17H16.76v-0.73a3,3,0,0,1,.34-1.75,1.84,1.84,0,0,1,1.62-.56h0.59v-6.17H15.84q-4-.07-5.71,1.41T8.45,186.9v2.44h-2v6.17h2v31.42h0Z" />
    </g>
  </g>
</svg>
