<?xml version="1.0" encoding="UTF-8" standalone="no"?>
<svg
   xmlns:dc="http://purl.org/dc/elements/1.1/"
   xmlns:cc="http://creativecommons.org/ns#"
   xmlns:rdf="http://www.w3.org/1999/02/22-rdf-syntax-ns#"
   xmlns:svg="http://www.w3.org/2000/svg"
   xmlns="http://www.w3.org/2000/svg"
   viewBox="0 0 825.33331 276.88"
   height="276.88"
   width="825.33331"
   xml:space="preserve"
   id="svg2"
   version="1.1"><metadata
     id="metadata8"><rdf:RDF><cc:Work
         rdf:about=""><dc:format>image/svg+xml</dc:format><dc:type
           rdf:resource="http://purl.org/dc/dcmitype/StillImage" /></cc:Work></rdf:RDF></metadata><defs
     id="defs6" /><g
     transform="matrix(1.3333333,0,0,-1.3333333,0,276.88)"
     id="g10"><g
       transform="scale(0.1)"
       id="g12"><path
         id="path14"
         style="fill:#ed0e58;fill-opacity:1;fill-rule:nonzero;stroke:none"
         d="m 3581.34,769.41 v 119.692 h -111.93 l -9.15,-52.532 h 59.42 v -50.73 c -23.3,-26.039 -57.59,-36.09 -91.4,-36.09 -61.66,0 -102.78,52.551 -102.78,114.219 0,61.691 41.12,114.211 102.78,114.211 49.36,0 78.15,-15.52 98.69,-44.301 l 41.12,41.09 c -24.2,33.831 -65.8,62.611 -139.81,62.611 -90.45,0 -164.47,-74.92 -164.47,-173.611 0,-98.68 74.02,-173.61 164.47,-173.61 82.24,0 119.24,33.813 153.06,79.051 m 331.24,-69.91 -109.66,328.94 h -63.96 L 3629.32,699.5 h 66.24 l 21.92,73.109 h 106.91 l 21.94,-73.109 z m -104.64,127.93 h -74.02 l 36.57,127.922 h 0.92 z m 317.08,141.629 -6.86,59.381 h -189.6 l -6.85,-59.381 h 70.8 V 699.5 h 61.71 V 969.059 Z M 4447.12,699.5 v 328.94 h -61.68 V 898.262 h -134.78 v 130.178 h -61.68 V 699.5 h 61.68 v 139.32 h 134.78 V 699.5 Z m 274.08,59.398 h -121.07 v 77.672 h 102.8 v 59.379 h -102.8 v 73.11 h 116.52 l -9.16,59.381 H 4538.46 V 699.5 h 173.61 z m 306.1,-59.398 -95.94,141.629 c 36.53,9.141 73.09,42.051 73.09,91.359 0,59.41 -49.32,95.952 -105.06,95.952 H 4798.88 V 699.5 h 61.67 v 137.07 h 4.55 l 84.53,-137.07 z m -86.8,232.988 c 0,-31.968 -22.84,-45.679 -50.28,-45.679 h -29.67 v 91.371 h 29.67 c 27.44,0 50.28,-13.692 50.28,-45.692 m 212.45,95.952 h -61.68 V 699.5 h 61.68 z M 5513.87,699.5 v 328.94 h -61.66 V 809.148 h -0.95 l -147.57,219.292 h -59.38 V 699.5 H 5306 v 219.289 h 0.89 L 5454.48,699.5 Z m 395.15,69.91 v 119.692 h -111.91 l -9.18,-52.532 h 59.42 v -50.73 c -23.28,-26.039 -57.57,-36.09 -91.36,-36.09 -61.69,0 -102.82,52.551 -102.82,114.219 0,61.691 41.13,114.211 102.82,114.211 49.33,0 78.12,-15.52 98.69,-44.301 l 41.09,41.09 c -24.21,33.831 -65.8,62.611 -139.78,62.611 -90.48,0 -164.51,-74.92 -164.51,-173.611 0,-98.68 74.03,-173.61 164.51,-173.61 82.23,0 119.23,33.813 153.03,79.051" /><path
         id="path16"
         style="fill:#ed0e58;fill-opacity:1;fill-rule:nonzero;stroke:none"
         d="m 3339.22,1539.4 h -61.69 v -328.94 h 61.69 z m 360.89,-328.94 v 328.94 h -61.67 v -219.27 h -0.94 l -147.56,219.27 h -59.38 v -328.94 h 61.69 v 219.3 h 0.88 l 147.6,-219.3 z m 360.93,0 v 328.94 h -61.66 v -219.27 h -0.92 l -147.59,219.27 h -59.37 v -328.94 h 61.66 v 219.3 h 0.92 l 147.56,-219.3 z m 415.76,164.47 c 0,102.81 -74.95,173.63 -169.08,173.63 -94.55,0 -169.02,-70.82 -169.02,-173.63 0,-102.78 74.91,-173.61 169.02,-173.61 94.13,0 169.08,70.83 169.08,173.61 m -61.69,0 c 0,-69.88 -48.44,-114.22 -107.39,-114.22 -58.9,0 -107.35,44.34 -107.35,114.22 0,69.91 48.89,114.21 107.35,114.21 58.95,0 107.39,-44.3 107.39,-114.21 m 376.92,164.47 h -66.25 l -70.39,-232.99 h -0.88 l -70.35,232.99 h -66.27 L 4623,1210.46 h 63.94 z m 296.95,-328.94 -109.63,328.94 h -63.98 l -109.64,-328.94 h 66.24 l 21.92,73.11 h 106.94 l 21.92,-73.11 z m -104.61,127.94 h -74.02 l 36.56,127.93 h 0.89 z m 317.08,141.61 -6.86,59.39 H 5105 l -6.87,-59.39 h 70.81 v -269.55 h 61.69 v 269.55 z m 125.62,59.39 h -61.66 v -328.94 h 61.66 z m 415.74,-164.47 c 0,102.81 -74.92,173.63 -169.03,173.63 -94.59,0 -169.03,-70.82 -169.03,-173.63 0,-102.78 74.91,-173.61 169.03,-173.61 94.11,0 169.03,70.83 169.03,173.61 m -61.68,0 c 0,-69.88 -48.42,-114.22 -107.35,-114.22 -58.95,0 -107.37,44.34 -107.37,114.22 0,69.91 48.89,114.21 107.37,114.21 58.93,0 107.35,-44.3 107.35,-114.21 m 408.88,-164.47 v 328.94 h -61.66 v -219.27 h -0.93 l -147.59,219.27 h -59.36 v -328.94 h 61.67 v 219.3 h 0.92 l 147.57,-219.3 h 59.38" /><path
         id="path18"
         style="fill:#ed0e58;fill-opacity:1;fill-rule:nonzero;stroke:none"
         d="m 3581.34,1791.34 v 119.68 h -111.93 l -9.15,-52.52 h 59.42 v -50.73 c -23.3,-26.04 -57.59,-36.09 -91.4,-36.09 -61.66,0 -102.78,52.56 -102.78,114.22 0,61.69 41.12,114.22 102.78,114.22 49.36,0 78.15,-15.52 98.69,-44.32 l 41.12,41.12 c -24.2,33.82 -65.8,62.6 -139.81,62.6 -90.45,0 -164.47,-74.92 -164.47,-173.62 0,-98.67 74.02,-173.6 164.47,-173.6 82.24,0 119.24,33.81 153.06,79.04 m 255.85,-10.5 h -107.36 v 269.55 h -61.69 v -328.96 h 159.91 z m 374.64,105.06 c 0,102.81 -74.94,173.62 -169.06,173.62 -94.55,0 -169.03,-70.81 -169.03,-173.62 0,-102.78 74.92,-173.6 169.03,-173.6 94.12,0 169.06,70.82 169.06,173.6 m -61.68,0 c 0,-69.88 -48.45,-114.22 -107.38,-114.22 -58.93,0 -107.36,44.34 -107.36,114.22 0,69.9 48.88,114.22 107.36,114.22 58.93,0 107.38,-44.32 107.38,-114.22 m 354.03,-68.52 c 0,45.69 -31.97,68.52 -54.8,77.68 22.83,9.14 41.09,36.53 41.09,73.07 0,48.89 -45.67,82.26 -100.51,82.26 h -100.51 v -328.96 h 109.66 c 59.4,0 105.07,36.56 105.07,95.95 M 4431.09,1959 c 0,-27.41 -22.85,-38.82 -45.68,-38.82 h -34.3 v 77.66 h 34.3 c 22.83,0 45.68,-11.41 45.68,-38.84 m 9.12,-137.04 c 0,-27.42 -18.27,-45.7 -50.25,-45.7 h -38.85 v 91.37 h 38.85 c 31.98,0 50.25,-18.27 50.25,-45.67 m 397.51,-100.53 -109.65,328.96 h -63.98 l -109.67,-328.96 h 66.27 l 21.94,73.11 h 106.89 l 21.93,-73.11 z m -104.63,127.93 h -74.01 l 36.54,127.93 h 0.93 z m 337.61,-68.52 h -107.35 v 269.55 h -61.68 v -328.96 h 159.88 l 9.15,59.41" /><path
         id="path20"
         style="fill:#ed0e58;fill-opacity:1;fill-rule:nonzero;stroke:none"
         d="M 1123.72,561.859 V 1539 H 818.375 v -97.71 h -4.891 C 732.859,1539 610.727,1575.66 464.156,1575.66 219.871,1575.66 0,1368.01 0,1026.02 c 0,-342 219.871,-549.649 464.156,-549.649 146.571,0 268.703,36.629 349.328,134.359 h 4.891 v -48.871 c 0,-171 -85.516,-280.918 -256.496,-280.918 -171.024,0 -293.152,61.079 -390.871,134.36 L 24.4336,171 C 195.438,48.8906 364.004,0 561.879,0 952.734,0 1123.72,171 1123.72,561.859 M 818.375,1026.02 c 0,-171 -109.945,-268.75 -256.496,-268.75 -122.156,0 -244.305,97.75 -244.305,268.75 0,170.98 122.149,268.71 244.305,268.71 146.551,0 256.496,-97.73 256.496,-268.71 M 1673.34,1539 H 1368.01 V 513 h 305.33 z M 2980.25,561.859 V 1539 h -305.36 v -97.71 h -4.88 c -80.61,97.71 -202.74,134.37 -349.32,134.37 -244.28,0 -464.15,-207.65 -464.15,-549.64 0,-342 219.87,-549.649 464.15,-549.649 146.58,0 268.71,36.629 349.32,134.359 h 4.88 v -48.871 c 0,-171 -85.49,-280.918 -256.47,-280.918 -171.04,0 -293.15,61.079 -390.88,134.36 L 1880.97,171 C 2051.96,48.8906 2220.55,0 2418.42,0 c 390.84,0 561.83,171 561.83,561.859 m -305.36,464.161 c 0,-171 -109.93,-268.75 -256.47,-268.75 -122.15,0 -244.3,97.75 -244.3,268.75 0,170.98 122.15,268.71 244.3,268.71 146.54,0 256.47,-97.73 256.47,-268.71" /><path
         id="path22"
         style="fill:#ed0e58;fill-opacity:1;fill-rule:nonzero;stroke:none"
         d="m 1515.78,1702.72 c 103.22,0 186.91,83.66 186.91,186.94 0,103.24 -83.69,186.94 -186.91,186.94 -103.28,0 -186.97,-83.7 -186.97,-186.94 0,-103.28 83.69,-186.94 186.97,-186.94" /></g></g></svg>