<?xml version="1.0" encoding="utf-8"?>
<!-- Generator: Adobe Illustrator 17.0.0, SVG Export Plug-In . SVG Version: 6.00 Build 0)  -->
<!DOCTYPE svg PUBLIC "-//W3C//DTD SVG 1.1//EN" "http://www.w3.org/Graphics/SVG/1.1/DTD/svg11.dtd">
<svg version="1.1" id="Layer_1" xmlns="http://www.w3.org/2000/svg" xmlns:xlink="http://www.w3.org/1999/xlink" x="0px" y="0px"
	 width="193.75px" height="189.776px" viewBox="0 0 193.75 189.776" enable-background="new 0 0 193.75 189.776"
	 xml:space="preserve">
<g>
	<g>
		<g>
			<g>
				<path fill="#6672D8" d="M149.613,41.189c-0.763-2.987-1.768-5.934-3.048-8.807c-1.139-2.558-2.46-4.999-3.942-7.315
					c-6.229-9.735-15.359-17.21-26.35-21.429C109.985,1.224,103.411,0,96.734,0C85.817,0,75.245,3.241,66.159,9.374
					c-6.207,4.189-11.403,9.54-15.376,15.757c-1.978,3.095-3.658,6.401-4.998,9.893c-0.789,2.056-1.434,4.143-1.968,6.245
					c-2.408,9.495-2.208,19.36,0.578,28.739c0.679,2.286,1.498,4.546,2.484,6.761c1.507,3.384,3.329,6.565,5.427,9.516
					c6.157,8.662,14.717,15.333,24.865,19.228l1.875,0.72l6.351-16.549l2.868-7.472c-0.679,0.167-1.146,0.299-1.235,0.363
					l-7.894,5.75c-0.839,0.611-1.525,0.262-1.525-0.776V68.684c0-1.037,0.724-2.332,1.607-2.875L82.4,63.85
					c0.696-0.456,0.733-1.062,0.746-1.375c0.661-15.841,10.331-24.144,13.48-24.144c3.167,0,13.339,8.501,13.947,24.398
					c0.012,0.288-0.077,0.858,0.58,1.2l3.054,1.88c0.884,0.543,1.607,1.838,1.607,2.875l0,18.866c0,1.037-0.686,1.387-1.525,0.776
					l-7.894-5.75c-0.083-0.061-0.541-0.189-1.211-0.354l2.868,7.472l6.347,16.539l1.875-0.72
					c10.036-3.852,18.622-10.573,24.785-19.162c2.689-3.747,4.921-7.846,6.602-12.225c0.511-1.332,0.953-2.679,1.357-4.033
					C151.847,60.611,152.038,50.685,149.613,41.189z"/>
			</g>
		</g>
		<g>
			<path fill="#6672D8" d="M37.559,72.215c-0.228-0.768-0.437-1.54-0.634-2.313c-13.98-3.645-22.67-8.719-22.67-14.336
				c0-5.564,8.521-10.598,22.271-14.235c0.121-0.537,0.244-1.074,0.379-1.609c0.603-2.377,1.332-4.736,2.225-7.061
				c0.966-2.518,2.091-4.949,3.357-7.289c-3.422,0.666-6.699,1.4-9.766,2.215c-8.326,2.214-15.094,4.936-20.115,8.092
				C2.187,42.227,0,50.108,0,55.565c0,5.458,2.187,13.338,12.607,19.887c5.021,3.156,11.789,5.878,20.115,8.092
				c3.375,0.897,6.983,1.705,10.783,2.422c-1.148-1.964-2.198-3.999-3.137-6.107C39.253,77.355,38.327,74.8,37.559,72.215z"/>
			<path fill="#6672D8" d="M181.143,35.678c-5.021-3.156-11.789-5.878-20.115-8.092c-3.169-0.842-6.56-1.599-10.106-2.281
				c0.77,1.42,1.492,2.875,2.156,4.367c1.447,3.249,2.583,6.581,3.446,9.958c0.137,0.538,0.262,1.078,0.384,1.619
				c13.933,3.644,22.587,8.71,22.587,14.316c0,5.662-8.829,10.771-23.005,14.422c-0.2,0.777-0.41,1.552-0.64,2.324
				c-0.457,1.53-0.956,3.053-1.534,4.56c-1.226,3.193-2.714,6.252-4.43,9.16c3.931-0.732,7.662-1.561,11.143-2.487
				c8.326-2.214,15.094-4.936,20.115-8.092c10.419-6.549,12.607-14.429,12.607-19.887C193.75,50.108,191.563,42.227,181.143,35.678z
				"/>
		</g>
	</g>
	<g>
		<path fill="#414042" d="M0.959,125.255h5.316v20.924c0,2.012,1.254,1.974,2.353,1.974h9.531v4.898H6.749
			c-3.027,0-5.79-1.119-5.79-5.411V125.255z"/>
		<path fill="#414042" d="M20.554,126.528c0-0.571,0.304-0.95,0.912-0.95h3.986c0.571,0,0.853,0.419,0.853,0.95v3.366
			c0,0.568-0.319,0.872-0.853,0.872h-3.986c-0.531,0-0.912-0.341-0.912-0.872V126.528z M20.745,132.889h5.316v20.161h-5.316V132.889
			z"/>
		<path fill="#414042" d="M29.468,123.243h5.281v10.65c1.844-0.839,4.413-1.309,6.123-1.309c5.587,0,6.583,4.208,6.583,10.478
			c0,6.116-1.622,10.214-6.583,10.214c-2.395,0-4.827-1.245-6.085-2.258l-0.947,2.031h-4.371V123.243z M39.493,148.734
			c1.716,0,2.646-1.381,2.646-5.878c0-5.147-0.967-6.105-2.646-6.105c-1.837,0-3.318,0.22-4.706,0.758v9.98
			C35.919,148.221,37.496,148.734,39.493,148.734z"/>
		<path fill="#414042" d="M50.577,132.889h4.479l0.835,2.542c1.399-1.348,3.278-2.75,5.786-2.75c0.872,0,1.707,0.033,2.245,0.24
			v5.131c-0.538-0.051-1.769-0.101-2.913-0.101c-2.203,0-3.801,0.359-5.118,2.243v12.856h-5.314V132.889z"/>
		<path fill="#414042" d="M74.162,132.737c5.832,0,8.542,0.663,8.542,7.345c0,3.593-1.974,5.052-5.618,5.052h-6.418
			c0,3.64,1.375,3.856,4.252,3.856c3.076,0,4.556,0.018,7.405-0.401v3.589c-2.847,1.06-7.176,1.062-10.329,1.062
			c-5.125,0-6.645-2.97-6.645-10.366C65.351,134.209,67.766,132.737,74.162,132.737z M75.706,141.318
			c1.106,0,1.681-0.546,1.681-1.507c0-2.545-0.361-3.012-2.917-3.012c-2.807,0-3.845,0.163-3.803,4.519H75.706z"/>
		<path fill="#414042" d="M95.218,132.204c0-5.506,3.265-7.114,7.517-7.176c3.997-0.084,8.551,0.449,10.747,1.099v4.179
			c-2.43-0.216-7.907-0.381-9.284-0.381c-2.324-0.051-3.664,0.11-3.664,2.697v1.357c0,2.203,0.842,2.677,2.994,2.677h4.391
			c5.446,0,6.57,4.294,6.57,7.368v1.851c0,6.31-3.931,7.48-7.691,7.48c-4.741,0-7.85-0.291-10.725-1.137v-4.179
			c1.52,0.152,6.151,0.419,9.681,0.419c1.6,0,3.419-0.264,3.419-2.395v-1.496c0-1.58-0.478-2.593-2.507-2.593h-4.272
			c-6.702,0-7.176-4.951-7.176-7.368V132.204z"/>
		<path fill="#414042" d="M117.47,132.889h4.371l0.93,2.031c1.26-1.016,3.708-2.26,6.103-2.26c4.962,0,6.583,4.162,6.583,10.214
			c0,5.832-0.996,10.481-6.583,10.481c-1.71,0-4.276-0.469-6.123-1.311v11.258h-5.281V132.889z M127.495,149.186
			c1.679,0,2.646-0.958,2.646-6.103c0-4.497-0.93-5.88-2.646-5.88c-1.996,0-3.591,0.516-4.724,1.247v9.98
			C124.159,148.966,125.657,149.186,127.495,149.186z"/>
		<path fill="#414042" d="M137.987,146.013c0-2.935,1.584-5.532,5.907-5.532c0,0,5.922,0.04,5.922,0c0,0,0.037-1.251,0-1.291
			c0-2.148-1.007-2.485-2.697-2.485c-1.752,0-6.808,0.315-8.467,0.434v-3.283c2.655-1.031,5.429-1.331,9.187-1.348
			c4.343-0.018,7.293,1.483,7.293,6.475v14.067h-4.197l-1.119-2.221c-0.223,0.438-3.054,2.512-6.132,2.448
			c-3.88-0.104-5.697-2.745-5.697-5.367V146.013z M145.187,149.008c2.223,0,4.629-1.562,4.629-1.562v-3.697l-4.878,0.379
			c-1.403,0.13-1.635,1.17-1.635,2.051v0.978C143.303,148.833,144.208,149.008,145.187,149.008z"/>
		<path fill="#414042" d="M164.63,132.697c1.974,0,5.957,0.119,9.284,1.196v3.305c0,0-3.629-0.229-7.008-0.229
			c-2.443,0-3.604,0.148-3.604,6.092c0,5.162,0.872,5.907,3.604,5.907c3.494,0,7.275-0.355,7.275-0.355v3.338
			c-2.95,1.5-6.398,1.251-9.551,1.289c-3.759,0-6.645-1.965-6.645-10.289C157.985,134.643,160.757,132.697,164.63,132.697z"/>
		<path fill="#414042" d="M184.791,132.737c5.832,0,8.542,0.663,8.542,7.345c0,3.593-1.974,5.052-5.618,5.052h-6.418
			c0,3.64,1.375,3.856,4.252,3.856c3.076,0,4.556,0.018,7.405-0.401v3.589c-2.847,1.06-7.176,1.062-10.329,1.062
			c-5.125,0-6.645-2.97-6.645-10.366C175.981,134.209,178.395,132.737,184.791,132.737z M186.336,141.318
			c1.106,0,1.681-0.546,1.681-1.507c0-2.545-0.361-3.012-2.917-3.012c-2.807,0-3.845,0.163-3.803,4.519H186.336z"/>
		<path fill="#6D6E71" d="M1.67,166.827c0-3.944,2.483-5.29,5.127-5.189c0,0,11.395,0.518,12.06,0.608v2.8H7.139
			c-1.974,0-1.974,1.102-1.974,2.126v6.707l12.118,0.386v2.82L5.164,177.46v11.974H1.67V166.827z"/>
		<path fill="#6D6E71" d="M30.825,169.081c6.839,0,8.971,2.545,8.971,10.558c0,7.48-2.106,9.985-8.971,9.985
			c-6.841,0-8.969-2.772-8.969-9.985C21.856,171.399,24.163,169.081,30.825,169.081z M30.825,186.416
			c3.801,0,5.479-0.498,5.479-6.777c0-6.788-1.384-7.348-5.479-7.348c-3.95,0-5.477,0.533-5.477,7.348
			C25.348,185.949,27.212,186.416,30.825,186.416z"/>
		<path fill="#6D6E71" d="M44.141,169.273h3.492v13.9c0,2.368,1.322,3.395,3.093,3.395c2.794,0,4.188-0.703,6.742-2.051v-15.244
			h3.494v20.161h-2.602l-0.892-2.298c-2.23,1.295-4.083,2.639-7.158,2.639c-4.206,0-6.169-3.148-6.169-6.625V169.273z"/>
		<path fill="#6D6E71" d="M66.023,169.273h2.6l0.892,2.296c2.157-1.307,4.083-2.639,7.158-2.639c4.208,0,6.171,3.148,6.171,6.627
			v13.878h-3.494v-13.9c0-2.371-1.322-3.395-3.093-3.395c-2.791,0-4.188,0.703-6.742,2.049v15.246h-3.492V169.273z"/>
		<path fill="#6D6E71" d="M93.442,168.969c1.71,0,4.807,0.513,7.079,1.461v-10.802h3.459v29.807h-2.655l-0.811-2.183
			c-1.062,0.802-4.541,2.41-7.072,2.41c-5.358,0-6.627-5.131-6.627-10.214C86.815,173.937,87.749,168.969,93.442,168.969z
			 M90.307,179.392c0,4.816,1.249,6.986,3.512,6.986c2.725,0,4.896-0.802,6.696-1.608v-11.697c-2.285-0.643-4.069-0.925-6.696-0.925
			c-2.225,0-3.512,1.34-3.512,7.242V179.392z"/>
		<path fill="#6D6E71" d="M108.325,182.351c0-3.01,1.813-5.182,5.283-5.182c0,0,7.746,0.04,7.746,0c0,0,0.037-2.164,0-2.201
			c0-2.271-1.159-2.943-3.001-2.943c-2.465,0-6.248,0.225-9.379,0.449v-2.386c2.686-0.833,5.9-1.163,9.659-1.196
			c3.477-0.031,6.213,1.619,6.213,6.019v14.523h-2.664l-0.828-2.373c-0.117,0.119-4.45,2.617-7.804,2.6
			c-3.073-0.029-5.226-2.047-5.226-5.107V182.351z M113.961,186.453c2.816,0,7.394-1.833,7.394-1.833v-4.957l-7.462,0.544
			c-1.569,0.145-2.075,1.229-2.075,2.355v1.648C111.817,185.993,112.756,186.453,113.961,186.453z"/>
		<path fill="#6D6E71" d="M128.154,170.03l3.624-0.798l0.74-5.618h2.752v5.618h5.51v3.153h-5.51v9.606
			c0,3.212,0.822,3.937,2.045,4.263c0,0,2.886,0.798,3.153,0.798v2.355h-3.695c-2.941,0-4.995-1.833-4.995-7.189v-9.833h-3.624
			V170.03z"/>
		<path fill="#6D6E71" d="M144.444,163.67c0-0.568,0.304-0.947,0.91-0.947h2.47c0.568,0,0.868,0.416,0.868,0.947v2.41
			c0,0.571-0.337,0.872-0.868,0.872h-2.47c-0.531,0-0.91-0.341-0.91-0.872V163.67z M144.772,169.273h3.492v20.161h-3.492V169.273z"
			/>
		<path fill="#6D6E71" d="M162.03,169.081c6.839,0,8.971,2.545,8.971,10.558c0,7.48-2.106,9.985-8.971,9.985
			c-6.841,0-8.969-2.772-8.969-9.985C153.061,171.399,155.368,169.081,162.03,169.081z M162.03,186.416
			c3.801,0,5.479-0.498,5.479-6.777c0-6.788-1.384-7.348-5.479-7.348c-3.95,0-5.477,0.533-5.477,7.348
			C156.553,185.949,158.417,186.416,162.03,186.416z"/>
		<path fill="#6D6E71" d="M175.703,169.273h2.6l0.892,2.296c2.157-1.307,4.083-2.639,7.158-2.639c4.208,0,6.171,3.148,6.171,6.627
			v13.878h-3.494v-13.9c0-2.371-1.322-3.395-3.093-3.395c-2.791,0-4.188,0.703-6.742,2.049v15.246h-3.492V169.273z"/>
	</g>
</g>
</svg>
