<svg xmlns="http://www.w3.org/2000/svg" viewBox="0 0 70.87 65.66"><defs><style>.a{fill:#17affa;}</style></defs><title>seawatch_logo</title><path class="a" d="M22.07,42h0c0-.07-.08-.1-.13-.15a3.35,3.35,0,0,1-.87-1.31,2.43,2.43,0,0,1,0-1.58,2.85,2.85,0,0,0,.18-.41c-2.64.72-4.63,2.08-7.75,2.3a11.76,11.76,0,0,1-3.08-.21,17,17,0,0,1-2.56-.79c-.8-.3-1.57-.68-2.38-1A30.69,30.69,0,0,0,0,37.62s0,0,0,.05v4a20.56,20.56,0,0,1,5.72,1.15A19.26,19.26,0,0,0,11,44.45a14.62,14.62,0,0,0,6.08-.6c1.73-.54,3.22-1.38,5-1.87"/><path class="a" d="M41.28,43.28h0c-.1-.21-.26-.42-.37-.69a4.66,4.66,0,0,1-.1-2.89h0a15.75,15.75,0,0,1-4.48.88,16.64,16.64,0,0,1-4.13-.52,3.25,3.25,0,0,0-.52-.12c.05.35.08.79.1,1.23a6,6,0,0,1,0,1.29c-.09.43-.41.61-.59.9.73.26,1.43.64,2.25.87a11.3,11.3,0,0,0,5.55-.16c.84-.24,1.61-.5,2.35-.79"/><path class="a" d="M59,34.27c-3.43-.2-5.53-1.76-8.51-2.41.08-.5.28-1,.36-1.52,0-.27.07-.54.12-.82s.1-.52.15-.79c.09-.54.09-1.14.13-1.74s.08-1.2.08-1.81c0,0,0,0,0,0h9.21A24.29,24.29,0,0,1,60,29.92c-.31,1.48-.61,2.92-1,4.35m-10.63-18a14.14,14.14,0,0,0-3.29-3.12,19.22,19.22,0,0,0-4.15-2.26c.9-3,1.82-5.91,2.79-8.8a25.77,25.77,0,0,1,6.92,3.53,22.26,22.26,0,0,1,5.22,5.21c-2.48,1.83-5,3.62-7.49,5.44m-18-4.92a14.31,14.31,0,0,0-5.93,4.47,1.88,1.88,0,0,1-.16.23.81.81,0,0,0-.17.24l-7.67-5.68a23.37,23.37,0,0,1,5.31-5,30.62,30.62,0,0,1,5-2.75c.61-.26,1.28-.53,1.89-.72,1,2.9,2,5.83,2.91,8.76-.39.17-.79.29-1.17.44m-8,20.32a23.37,23.37,0,0,0-4.23,1.43,14.53,14.53,0,0,1-4.81.83,32.16,32.16,0,0,1-.92-4.14,26.39,26.39,0,0,1-.48-4.6s0,0,0,0c3.09,0,6.21,0,9.22,0a16.81,16.81,0,0,0,.31,3.53,15.49,15.49,0,0,0,.89,3M60,34.22a42.74,42.74,0,0,0,1.29-6.39A28.87,28.87,0,0,0,61,20.67a24,24,0,0,0-2.77-7.78c-.17-.31-.34-.63-.52-.92l-.58-.87c-.25-.38-.54-.74-.82-1.1a29.6,29.6,0,0,0-3.2-3.5c-.17-.16-.33-.33-.5-.48s-.36-.27-.54-.41l-.54-.41a26.38,26.38,0,0,0-9-4.44,23.72,23.72,0,0,0-7-.74A32.34,32.34,0,0,0,32.1.34a19.85,19.85,0,0,0-5.74,1.74C25.07,2.67,23.83,3.3,22.65,4c-.4.22-.78.47-1.15.72-.19.13-.39.24-.58.36s-.35.28-.52.41a25.61,25.61,0,0,0-4.59,4.77,25,25,0,0,0-4.5,10.45c-.1.54-.17,1.08-.23,1.63A13.59,13.59,0,0,0,11,25c0,.3,0,.6.05.89,0,.57.1,1.14.16,1.71.11,1.14.27,2.24.43,3.32.12.81.29,1.6.46,2.35a6.36,6.36,0,0,1,.14.76,7.9,7.9,0,0,1-.85-.11,7.71,7.71,0,0,1-.79-.18,29.16,29.16,0,0,1-4.19-1.6A17.88,17.88,0,0,0,0,30.72v4.39c1.16.09,2.25.18,3.27.36a14,14,0,0,1,2.83.82,17,17,0,0,0,5.73,1.55,14.25,14.25,0,0,0,6.23-1c.88-.34,1.71-.7,2.58-1.05a11.14,11.14,0,0,1,2.85-.8c.15-.21.24-.49.37-.71a3.87,3.87,0,0,1-.39-1.51,3.72,3.72,0,0,1,.43-1.23c0-.05.08-.14,0-.15-.34,0-.66,0-1,.06-.16-.58-.41-1.1-.58-1.66q-.12-.42-.24-.87A7,7,0,0,1,22,28a16.45,16.45,0,0,1-.13-4.16A14.62,14.62,0,0,1,25.23,16a12.06,12.06,0,0,1,1.1-1.16A14.1,14.1,0,0,1,32,11.53a13.89,13.89,0,0,1,3.91-.59,14.88,14.88,0,0,1,4,.49,14.14,14.14,0,0,1,3.15,1.33,13.92,13.92,0,0,1,6.31,7.17,12.45,12.45,0,0,1,.84,3.66,24.71,24.71,0,0,1-.31,6.26,7.1,7.1,0,0,1-.43,1.83c-.25,0-.46-.1-.72-.12.13.51.49.8.56,1.36a2.7,2.7,0,0,1-.2,1.24,1.77,1.77,0,0,0-.13.36.59.59,0,0,0,.1.16c.1.18.19.38.26.53a19.91,19.91,0,0,1,5,1.69A14.27,14.27,0,0,0,59.94,38a16.07,16.07,0,0,0,5.63-1c.81-.29,1.6-.64,2.45-.89a13.2,13.2,0,0,1,2.83-.51V31.05c-4.12.56-6.53,2.92-10.9,3.17"/><path class="a" d="M70.85,49.11h0V44.76h0a11.57,11.57,0,0,0-1.17.17s-.74.17-1.1.29c-.69.22-1.34.48-2,.74-2.53,1-5.16,2.38-8.77,2a16.42,16.42,0,0,1-4.26-1.2,24.81,24.81,0,0,0-4.19-1.26,12,12,0,0,0-4.93.06c-.71.17-1.39.43-2.09.64s-1.4.42-2.13.59a18.74,18.74,0,0,1-4.84.61,10.2,10.2,0,0,1-1.24-.11,27.92,27.92,0,0,1-5.49-1.34,17.6,17.6,0,0,0-2.12-.6,11.37,11.37,0,0,0-4.88.18,29.34,29.34,0,0,0-4.06,1.39,13.17,13.17,0,0,1-4.44,1,13.3,13.3,0,0,1-6.67-1.48c-.61-.29-1.2-.64-1.84-.88A19.69,19.69,0,0,0,0,44.64s0,0,0,0v3.73a29.58,29.58,0,0,1,4.36,1.1C5.71,50,7,50.61,8.33,51a14.65,14.65,0,0,0,4.83.61,14,14,0,0,0,4.51-1c1.28-.48,2.58-1.11,3.94-1.51A8,8,0,0,1,24,48.77a10.51,10.51,0,0,1,2.47.28c1.43.34,2.68,1,4,1.43a17.78,17.78,0,0,0,4.63.84A16.46,16.46,0,0,0,40,50.76q1.08-.27,2.1-.63c.68-.24,1.34-.51,2-.72A10.94,10.94,0,0,1,48.93,49a12.81,12.81,0,0,1,2.13.59c.67.24,1.32.5,2,.76a18.28,18.28,0,0,0,5.47,1.36c.44,0,.88,0,1.33,0a15.59,15.59,0,0,0,2.65-.07,14.41,14.41,0,0,0,4-1.48,12.82,12.82,0,0,1,4.36-1.12"/><path class="a" d="M51.57,39.07a3.34,3.34,0,0,1-1,3.19s-.12.1-.06.11c3.09,1.13,5.81,2.63,10.12,2.4a16.13,16.13,0,0,0,5.13-1.15c.74-.28,1.49-.62,2.3-.84a12.29,12.29,0,0,1,2.77-.37c0-1.28,0-2.87,0-4.19a2,2,0,0,0,0-.22l-.18,0a25.1,25.1,0,0,0-2.54.46,15.31,15.31,0,0,0-2.22.79,22.13,22.13,0,0,1-4.49,1.54A12.41,12.41,0,0,1,56,40.6c-1.36-.36-2.61-1-3.89-1.38a2.76,2.76,0,0,0-.58-.15"/><path class="a" d="M41.1,37.39h0c0-.18.07-.36.09-.55-.64-.05-1.2,0-1.76-.05a4.58,4.58,0,0,1-.73-.18,1.28,1.28,0,0,1-.6-.32c-.31-.35-.16-1.09-.1-1.59A1.68,1.68,0,0,0,38,34c-.08-.13-.26-.09-.33-.06l-.51.19a2.05,2.05,0,0,1-1,.15c-.28,0-.46-.2-.72-.23a.67.67,0,0,0-.82.61c0,.39.07.9,0,1.27-.07.57-.58.7-1.18.74s-1.46-.11-2.14-.09a.59.59,0,0,1,0,.13c0,.19,0,.36,0,.51a16.48,16.48,0,0,0,2.29.4,22.2,22.2,0,0,0,2.5.2c.9,0,1.79,0,2.64,0a14.1,14.1,0,0,0,2.3-.4"/><path class="a" d="M49.9,40.65a2.66,2.66,0,0,1-1.14,1.56,6.54,6.54,0,0,1-1.79.9,6.26,6.26,0,0,1-2.38.25,2.45,2.45,0,0,1-1.84-.84,1.31,1.31,0,0,1-.18-1,2,2,0,0,1,.69-1.1,6.25,6.25,0,0,1,3.84-1.6,3.19,3.19,0,0,1,2.27.58,2.44,2.44,0,0,1-.79,1.69A4.5,4.5,0,0,1,45,42.42a3.09,3.09,0,0,1-1.76-.7c.54,1.11,2.21,1.51,3.78,1.1a4.2,4.2,0,0,0,1.73-.89A2.67,2.67,0,0,0,49.8,40v-.1l.05.09a1.24,1.24,0,0,1,0,.62M39.76,31.82a7.41,7.41,0,0,1-1.09-.55c-.22-.8-.45-1.57-.66-2.37.36,0,.51-.2.86-.2a.87.87,0,0,1,.18.31c.14.34.24.72.38,1.1s.27.7.41,1.07.19.5-.08.64m-6.22-.16c-.14.08-.29.21-.47.15-.26-.23,0-.55.06-.78.35-.7.59-1.52.91-2.25.22,0,.51-.15.73,0,.09.67,0,1.52.07,2.19-.29.39-.86.47-1.3.72M30.08,41.85c0,.09-.27.15-.43.21a4.57,4.57,0,0,1-1.68.25,5.64,5.64,0,0,1-2.09-.48,4.24,4.24,0,0,1-1.49-1.07,2.21,2.21,0,0,1-.61-1.87A4.63,4.63,0,0,1,25,38.66a6.29,6.29,0,0,1,3.29.84A3.1,3.1,0,0,1,30,41.39a1.34,1.34,0,0,1,0,.46m-.14.43a1.47,1.47,0,0,1-1.1.75,4,4,0,0,1-1.21.17,10,10,0,0,1-1.78-.3c-.19,0-.38-.08-.54-.13a6.06,6.06,0,0,1-.84-.43,5.4,5.4,0,0,1-.74-.51,2.31,2.31,0,0,1-1-1.54,1.47,1.47,0,0,1,.63-1.17l.06,0,0,.07a1.71,1.71,0,0,0-.15.62,2.39,2.39,0,0,0,.84,1.76,5.31,5.31,0,0,0,3.83,1.35,4,4,0,0,0,2-.61l.06,0Zm21.22-2.5a5.38,5.38,0,0,0-.3-.71,19,19,0,0,0-1.08-1.87c-.49-.86-.91-1.71-1.43-2.52,0-.12.06-.21.07-.34a5.64,5.64,0,0,0-3.54,0,4.83,4.83,0,0,0-2.51,1.6l-.06.07,0-.09a2.57,2.57,0,0,1,1-1.3,5.45,5.45,0,0,1,1.47-.79,5.89,5.89,0,0,1,3.83-.14,2.61,2.61,0,0,0,.11-.73,3.48,3.48,0,0,0-.33-.8,34.37,34.37,0,0,0-2.18-4.62L46,27.17a1.34,1.34,0,0,0-.23-.33,2.6,2.6,0,0,0-.85-.18,7.5,7.5,0,0,0-2.73.25,5.74,5.74,0,0,0-2.66,1.43l-.07.07,0-.09a4.17,4.17,0,0,1,2.36-1.79,8,8,0,0,1,3.34-.46,2.08,2.08,0,0,0-1-.41,11.36,11.36,0,0,0-1.16-.24,5,5,0,0,1-.37-.89c0-.11-.06-.22-.1-.31s-.17-.21-.2-.37.06-.38,0-.57-.14-.17-.25-.28a1.16,1.16,0,0,0-1.1-.38,4.4,4.4,0,0,0-1,.23,3.59,3.59,0,0,0-1.52.87,1.06,1.06,0,0,0-.37.84c0,.16.21.32.33.46a4.15,4.15,0,0,1,.58.94,1.09,1.09,0,0,1,.2.54,1.27,1.27,0,0,1-.56.59,1.35,1.35,0,0,1-.68.08c-.08,0-.1-.14-.15-.21a4.3,4.3,0,0,0-.44-.64,1.3,1.3,0,0,0-.89-.56,1.36,1.36,0,0,0-.59.16,4.43,4.43,0,0,0-1,1c-.09.11-.24.32-.33.33a1.5,1.5,0,0,1-.93-.52,4.83,4.83,0,0,1,.79-1.78,2.69,2.69,0,0,0,.27-.57,1.06,1.06,0,0,0-.34-1.12,3.54,3.54,0,0,0-1.49-.66,2.77,2.77,0,0,0-1.83.13c-.13.08-.33.2-.38.38s0,.49-.05.71-.11.25-.16.41c-.13.39-.17,1.05-.51,1.2a2.37,2.37,0,0,1-.51.08c-.52.07-1.14,0-1.45.31a7.1,7.1,0,0,1,3.26.59,3.91,3.91,0,0,1,2.09,1.8l.05.11-.1-.1a5.34,5.34,0,0,0-1.93-1.3,6.22,6.22,0,0,0-4.14-.29,24.44,24.44,0,0,0-1.72,3c-.25.49-.51,1.05-.81,1.56-.13.23-.29.49-.44.74a1.8,1.8,0,0,0-.28.91,2.13,2.13,0,0,0,.11.57,1.1,1.1,0,0,0,.22.46,6.56,6.56,0,0,1,5,1A2.46,2.46,0,0,1,30.32,36l0,.09L30.29,36a5,5,0,0,0-2.52-1.41,6.76,6.76,0,0,0-3.46,0,22.19,22.19,0,0,1-1.58,2.68,7.85,7.85,0,0,0-1.1,2.1,2.12,2.12,0,0,0-.12.94,2.54,2.54,0,0,0,.32.64,4.63,4.63,0,0,0,1.34,1.5,8.92,8.92,0,0,0,2.53,1.25c1.46.43,3.64.56,4.75-.25A2.68,2.68,0,0,0,31,43a1.82,1.82,0,0,0,.37-.56,2.17,2.17,0,0,0,0-.77c-.12-1.8-.36-3.51-.34-5.36.58,0,1.13,0,1.72,0s1.29,0,1.46-.35a2,2,0,0,0,.07-.95,2.71,2.71,0,0,1,0-1,.94.94,0,0,1,.82-.49,3.37,3.37,0,0,1,.69.21,1.82,1.82,0,0,0,1.1.1,3.5,3.5,0,0,1,1-.33,1.64,1.64,0,0,1,.51.18c.61.46-.25,1.87.29,2.44.29.29.93.25,1.53.28s1.1,0,1.64,0c-.12,1.26-.29,2.49-.44,3.75a6.27,6.27,0,0,0-.08,1.92,2,2,0,0,0,.8,1.28,4.57,4.57,0,0,0,1.23.53,6.8,6.8,0,0,0,1.52.25,7,7,0,0,0,2.94-.53A7.58,7.58,0,0,0,50,42.31a3.61,3.61,0,0,0,.82-.94,2.3,2.3,0,0,0,.36-1.59"/><path class="a" d="M70.81,63.23c0,1.62-1,2.43-2.92,2.43a6,6,0,0,1-1.82-.26V64.29a6.08,6.08,0,0,0,1.83.26c1,0,1.51-.42,1.51-1.26a3.48,3.48,0,0,1-1.34.26c-1.65,0-2.47-.9-2.47-2.7s1-2.74,2.88-2.74a14.79,14.79,0,0,1,2.33.23Zm-1.4-3.86a2.79,2.79,0,0,0-1-.13c-1,0-1.45.53-1.45,1.6s.42,1.55,1.25,1.55a2.64,2.64,0,0,0,1.18-.29Zm-7.14,4.28V58.11h1.09l.17.71a2.22,2.22,0,0,1,1.54-.71v1.13a1.9,1.9,0,0,0-1.4.65v3.76Zm-6.54-2.77a2.44,2.44,0,0,1,2.74-2.78,2.45,2.45,0,0,1,2.75,2.78,2.45,2.45,0,0,1-2.75,2.79c-1.82,0-2.74-.93-2.74-2.79m1.4,0c0,1.16.44,1.74,1.34,1.74s1.35-.58,1.35-1.74-.45-1.69-1.35-1.69-1.34.56-1.34,1.69M54.8,63.65H53.41V62.36H54.8Zm-7.63,0V56.1h1.41v2.72a2.17,2.17,0,0,1,1.67-.71c1.31,0,2,.68,2,2v3.49h-1.4V60.16a.81.81,0,0,0-.91-.92,2,2,0,0,0-1.33.55v3.86Zm-.92-.15a6.64,6.64,0,0,1-1.42.15c-2,0-3-.95-3-2.87s1-2.67,3-2.67a6.06,6.06,0,0,1,1.42.16v1.11a5.66,5.66,0,0,0-1.32-.16c-1.11,0-1.66.52-1.66,1.56s.55,1.77,1.66,1.77a6.25,6.25,0,0,0,1.32-.16Zm-7.68-6.29h1l.21.9h1.39v1.11H40v2.55c0,.52.22.78.67.78h.57v1.1H40c-.93,0-1.39-.49-1.39-1.49Zm-2.64,4.12a5.8,5.8,0,0,0-1.13-.1c-.67,0-1,.22-1,.68s.28.74.85.74a2.15,2.15,0,0,0,1.29-.43Zm-3.54.6c0-1.1.81-1.65,2.41-1.65a6.09,6.09,0,0,1,1.13.1V60c0-.49-.36-.74-1.07-.74a9.1,9.1,0,0,0-2,.26V58.37a9.1,9.1,0,0,1,2-.26c1.65,0,2.47.61,2.47,1.83v3.71h-.81l-.5-.49a2.74,2.74,0,0,1-1.59.49c-1.36,0-2-.57-2-1.72M22.21,56.1h1.42l.8,5.43,2-5.43h1.34l1.84,5.22.86-5.22h1.37l-1.42,7.55H29.06L27,57.73l-2.23,5.92H23.44Zm-.72,5.34H18.85V60.33h2.64Zm-5.22-.11a5.87,5.87,0,0,0-1.13-.1c-.68,0-1,.22-1,.68s.28.74.84.74a2.16,2.16,0,0,0,1.3-.43Zm-3.54.6c0-1.1.8-1.65,2.41-1.65a6.24,6.24,0,0,1,1.13.1V60c0-.49-.36-.74-1.08-.74a9.09,9.09,0,0,0-2,.26V58.37a9.09,9.09,0,0,1,2-.26c1.65,0,2.47.61,2.47,1.83v3.71h-.81l-.5-.49a2.74,2.74,0,0,1-1.59.49c-1.35,0-2-.57-2-1.72M8.21,60.4h2.37v0a1,1,0,0,0-1.16-1.15c-.74,0-1.14.4-1.21,1.19m1.21-2.29a2.25,2.25,0,0,1,2.52,2.58,3.89,3.89,0,0,1,0,.68H8.21c0,.79.58,1.18,1.72,1.18a9.47,9.47,0,0,0,1.68-.16V63.5a9,9,0,0,1-1.78.15c-2,0-3-.94-3-2.83s.86-2.71,2.6-2.71M.32,63.34V62.07a7.37,7.37,0,0,0,2.57.42c1.16,0,1.73-.38,1.73-1.16,0-.56-.35-.84-1.06-.84H2.37c-1.54,0-2.31-.71-2.31-2.12s1.1-2.32,3.3-2.32a7.93,7.93,0,0,1,2.4.37v1.27a6.89,6.89,0,0,0-2.4-.42c-1.27,0-1.9.37-1.9,1.1,0,.57.3.85.91.85H3.56c1.64,0,2.46.7,2.46,2.11,0,1.59-1,2.38-3.13,2.38a8.48,8.48,0,0,1-2.57-.37"/></svg>