<?xml version="1.0" encoding="UTF-8" standalone="no"?><!DOCTYPE svg PUBLIC "-//W3C//DTD SVG 1.1//EN" "http://www.w3.org/Graphics/SVG/1.1/DTD/svg11.dtd"><svg width="100%" height="100%" viewBox="0 0 6000 6000" version="1.1" xmlns="http://www.w3.org/2000/svg" xmlns:xlink="http://www.w3.org/1999/xlink" xml:space="preserve" xmlns:serif="http://www.serif.com/" style="fill-rule:evenodd;clip-rule:evenodd;stroke-linejoin:round;stroke-miterlimit:2;"><rect id="Artboard1" x="0" y="0" width="6000" height="6000" style="fill:none;"/><g><rect x="0" y="0" width="6000" height="6000"/><g id="destroyed-space-station" serif:id="destroyed space station"><path id="path526-1-1" serif:id="path526 1 1" d="M4802.41,2334.78c10.286,7.415 21.615,16.75 33.221,27.427l-2.973,-0.06l-37.146,-17.293l-11.926,-22.338c7.13,4.297 13.481,8.413 18.824,12.264Z" style="fill:#d0d0ce;"/><path d="M3726.55,823.175l-262.136,198.373l-29.417,-63.029l259.998,-200.051l31.555,64.707Z" style="fill:#d0d0ce;"/><path d="M5057.05,1833.61c31.813,35.347 57.902,75.43 76.008,117.54c0.363,0.843 0.69,1.699 1.048,2.544l-154.583,-65.583c0,0 -5.494,-2.171 -8.31,-2.324c-2.858,-0.154 -6.621,1.573 -6.621,1.573l-77.512,34.989c-27.965,-67.948 -69.935,-106.078 -82.095,-110.144c-11.714,-3.921 -59.623,-5.702 -114.268,17.154l-128.869,-55.887l-42.38,-84.651c70.422,-28.625 162.262,-42.448 221.557,-24.014c28.784,8.951 91.378,30.819 146.418,53.622c8.257,3.42 16.338,6.86 24.115,10.282c14.12,6.214 27.222,12.364 38.465,18.208l12.856,21.411l38.008,14.8l2.991,-0.13c17.853,14.568 36.429,32.005 53.172,50.61l0,0Z" style="fill:#d0d0ce;"/><path d="M4519.53,1798.17l126.332,48.136c-20.935,11.232 -42.402,26.201 -62.741,46.27c-52.892,52.194 -79.645,84.999 -118.158,156.92c-2.42,4.517 -4.881,9.56 -7.322,14.398l-143.33,-51.367l-78.856,-43.881c49.153,-92.131 89.505,-154.429 193.528,-229.167c13.319,-9.572 28.999,-18.63 46.116,-26.889l44.431,85.58Z" style="fill:#d0d0ce;"/><path d="M2755.01,2147.6l-284.204,174.303l-6.55,-25.081l283.864,-188.934l6.89,39.712Z" style="fill:#d0d0ce;"/><path d="M2284.16,2410.51l-20.714,20.805l-106.173,-283.764l29.885,-35.135l97.002,298.094Z" style="fill:#d0d0ce;"/><path d="M4297.56,2157.84l-3.959,8.903l-216.428,-97.124l-1.775,-14.084l222.162,102.305Z" style="fill:#d0d0ce;"/><path d="M4889.31,2481.86l153.586,-216.519l6.284,3.62l-155.406,229.121l-4.464,-16.222Z" style="fill:#d0d0ce;"/><path d="M4488,2761.45l-206.94,162.892l-2.331,-13.457l204.424,-157.192l4.847,7.757Z" style="fill:#d0d0ce;"/><path d="M4709.1,2914.57l-15.407,18.751l-70.449,-269.503l5.75,-3.272l80.106,254.024Z" style="fill:#d0d0ce;"/><path d="M2483.05,3003l-23.535,41.225l-199.993,-298.948l21.676,-14.04l201.852,271.763Z" style="fill:#d0d0ce;"/><path d="M2193.01,2636.57l-206.826,209.459l-4.633,-28.908l199.913,-199.037l11.546,18.486Z" style="fill:#d0d0ce;"/><path d="M4317.75,2718.11c11.159,61.419 32.416,122.559 74.352,191.199c10.967,17.95 23.554,35.494 38.422,51.224l-145.879,11.327l-58.68,69.611c-24.6,-20.875 -47.237,-44.99 -66.418,-72.123c-42.338,-59.871 -70.078,-137.917 -86.59,-220.963l85.344,-20.278l159.449,-9.997Z" style="fill:#d0d0ce;"/><path d="M5094.7,3040.93l107.251,129.434l2.975,-0.061c-3.513,2.733 -7.114,5.724 -10.49,8.047c-91.863,63.207 -153.902,101.485 -276.106,92.749l-109.015,-129.713l-39.487,-133.757l-0.703,-0.679c25.435,4.069 52.427,4.519 75.9,-2.177c73.821,-21.064 125.87,-51.883 167.336,-87.334l82.339,123.491Z" style="fill:#d0d0ce;"/><path d="M2782.79,2860.3l206.922,51.4c-51.412,98.101 -131.746,222.874 -234.871,316.037c-29.025,26.224 -64.729,54.817 -106.352,80.005l-204.181,-49.766l-89.861,-119.468c40.299,-21.404 74.183,-49.015 103.325,-76.466c74.867,-79.838 131.427,-167.981 174.185,-260.963l150.833,59.221Z" style="fill:#d0d0ce;"/><path d="M4500.39,3125.57c22.841,36.634 51.731,55.428 66.242,63.58c9.854,5.536 51.459,-0.534 95.018,-18.052l77.294,91.655l151.435,49.969c-6.656,3.279 -13.354,6.554 -20.464,9.81c-58.029,26.574 -107.486,24.173 -183.53,18.194c-25.641,-2.019 -192.925,-56.787 -223.51,-67.931c-63.99,-23.312 -131.588,-83.877 -180.704,-163.384l73.673,-42.553l135.285,42.466c2.912,5.498 5.948,10.936 9.261,16.246l0,0Z" style="fill:#d0d0ce;"/><path d="M2075.86,3108.66c30.794,46.389 73.627,90.48 137.19,118.786c54.313,-0.988 100.695,-14.427 140.915,-34.199l80.494,124.011l204.679,52.121c-76.376,42.26 -171.265,71.157 -282.153,53.843c-45.702,-7.132 -238.874,-53.948 -308.45,-74.928c-103.061,-31.079 -190.587,-102.861 -262.119,-217.603l96.39,-70.434l193.054,48.403Z" style="fill:#d0d0ce;"/><path d="M4111.29,4249.22l-318.501,-65.37l4.735,-66.083l319.341,64.784l-5.575,66.669Z" style="fill:#d0d0ce;"/><path d="M2026.46,3006.99c7.959,16.732 17.019,33.994 27.585,51.113l-191.188,-45.741l-95.4,73.33c-20.362,-33.389 -39.493,-70.135 -57.252,-110.622l48.806,-44.803l26.32,-87.813l-34.335,68.408l-52.242,36.99c-44.549,-110.891 -65.279,-227.569 -58.369,-365.08l113.03,5.362l209.199,49.984c-7.535,120.338 17.631,245.591 63.846,368.872Z" style="fill:#d0d0ce;"/><path d="M1841.52,2164.89l205.923,51.178c-18.613,44.491 -34.24,89.938 -47.274,136.089l-17.115,-0.743l-51.727,45.682l-45.743,25.324l-38.79,10.448l-41.64,34.589l36.407,-11.619l36.173,1.038l43.126,-13.84l49.111,-34.197l14.837,3.031c-15.676,67.284 -26.318,135.803 -33.093,204.801l-207.916,-50.58l-114.836,-1.362c2.884,-49.574 9.3,-101.831 19.514,-157.534l3.948,-0.554l37.681,-14.5l41.118,-38.459l58.999,-48.56l44.427,30.127l41.659,-61.334l-36.183,38.419l-41.688,-41.584l-56.26,37.102l-38.379,27.001l-34.944,3.043l-6.041,-0.302c0.286,-1.258 0.575,-2.519 0.865,-3.781c18.746,-81.551 41.451,-154.729 68.567,-220.749l109.274,51.826Z" style="fill:#d0d0ce;"/><path d="M2138.91,1814.28l184.932,44.427c-23.172,14.046 -43.861,29.864 -62.001,45.928c-38.425,34.027 -71.647,71.158 -100.562,110.28l-58.238,-26.735l-63.715,-10.447l-54.348,-25.836l-38.843,-20.727l26.622,39.836l48.238,35.39l57.604,20.002l51.098,34.604c-18.26,28.741 -34.524,58.269 -49.112,88.186c-7.404,15.184 -14.336,30.531 -20.993,45.962l-206.602,-48.637l-111.321,-48.251c50.8,-121.767 117.048,-218.774 202.192,-297.926l40.688,33.967l38.521,21.192l82.419,-36.705l-66.345,23.255l-30.485,-27.917l-35.395,-39.792c28.382,-23.874 58.705,-46.027 91.08,-66.682l74.566,106.626Z" style="fill:#d0d0ce;"/><path d="M2701.82,1610.95c83.214,26.707 167.973,61.246 264.977,219.557l-211.298,-42.433l-116.942,68.76c-9.731,-14.752 -21.031,-29.391 -34.025,-43.341l10.079,-26.991l-6.027,-86.975l-8.466,75.407l-11.112,23.012c-27.898,-26.038 -62.421,-48.616 -104.487,-63.446c-60.258,2.309 -111.585,20.523 -154.66,45.332l-189.535,-42.354l-83.223,-94.461c153.85,-101.519 292.54,-99.73 349.818,-94.602c1.858,0.166 3.969,0.398 6.313,0.691l-5.064,42.997l17.803,-41.172c21.271,3.334 52.427,9.318 86.317,16.3c77.188,15.904 168.549,36.985 189.532,43.719Z" style="fill:#d0d0ce;"/><path d="M3015.87,1910.28c20.913,39.628 37.811,81.456 51.172,124.382l-41.974,14.29l-4.397,73.463l9.988,-52.415l45.051,-5.541c21.375,78.846 31.426,160.488 33.026,238.323l-198.691,-37.753l-5.199,-45.591l-28.241,-46.494l-6.552,-39.031l2.771,-11.053l28.374,-57.586l8.038,-68.379l2.735,-61.243l-13.064,43.939l-13.202,59.726l-27.869,40.663l-34.184,-57.27l-26.965,-43.742l8.86,44.484l29.532,65.012l2.457,39.72l-8.61,23.501l11.227,18.809l0.244,3.935l19.188,46.865l-1.462,38.944l-120.41,4.939c-1.151,-88.558 -12.547,-178.209 -39.254,-267.224l47.497,-32.988l-52.598,16.576c-9.302,-28.915 -20.255,-57.751 -33.034,-86.449c-4.383,-8.246 -9.322,-16.584 -14.699,-24.91l118.322,-64.151l214.437,38.417c12.289,20.095 24.745,41.689 37.486,65.832Z" style="fill:#d0d0ce;"/><path d="M3729.98,2106.78l-295.754,137.665l-31.784,-138.813l21.616,-15.318l47.373,-36.275l9.787,-66.904l39.802,-41.915l-44.707,20.491l-12.24,56.193l-49.826,25.563l-22.942,9.526l-72.213,-315.385l144.772,-62.812l31.37,17.259l48.389,18.301l37.963,66.864l-20.17,-74.584l-39.492,-22.161l-23.518,-20.666l111.143,-48.221l120.431,491.192Z" style="fill:#d0d0ce;"/><path d="M3725.16,1555.86l-296.755,55.762l-35.312,-521.887l289.33,-55.228l20.374,248.553l-3.113,2.388l-35.219,31.042l-16.313,52.901l-19,54.922l20.857,-32.263l17.242,-41.57l36.148,-19.713l3.166,-1.742l18.595,226.835Z" style="fill:#d0d0ce;"/><path d="M5200.33,3095.27c-37.305,-11.223 -79.792,-38.69 -103.791,-69.817l6.947,-17.138l1.556,-0.925l46.426,-34.497l46.861,-44.16l53.141,1.891l-45.447,-20.874l-43.014,34.668l-42.579,25.006l-1.39,0.513l44.465,-109.706l66.231,-138.434c6.258,7.188 12.657,13.461 19.154,19.087l-25.072,38.542l-6.382,63.425l16.799,-55.89l28.088,-35.375c13.684,10.071 27.66,18.149 41.541,26.605c22.474,13.69 44.854,20.891 67.782,22.939l-39.506,119.377l-73.544,183.355c-21.078,-0.269 -40.671,-3.302 -58.266,-8.592l0,0Z" style="fill:#d0d0ce;"/><path d="M5414.5,2247.98l-128.698,63.677l-9.285,-8.577l-40.311,-43.47l-59.377,-23.587l-30.385,-24.915l-18.919,-53.557l2.054,64.978l21.952,30.626l50.944,29.297l31.879,49.182l3.993,4.891l-96.002,65.013c-29.184,-61.675 -70.665,-108.401 -123.299,-152.613c-15.533,-13.046 -31.757,-22.68 -47.866,-29.902l53.985,-88.693c0,0 1.064,-1.916 2.098,-2.811c1.179,-1.022 3.947,-2.239 3.947,-2.239l171.255,-85.218c94.368,40.852 165.399,120.76 212.035,207.918l0,0Z" style="fill:#d0d0ce;"/><path d="M3735.94,2205.6l-53.595,294.876l126.069,0.683l234.017,0.747c2.418,-30.895 7.438,-56.856 10.618,-68.332c4.595,-16.577 8.924,-32.283 13.182,-47.317l75.658,15.172l2.398,5.682l59.263,25.754l-41.2,-26l-0.957,-3.877l145.87,-1.983c-7.494,30.322 -14.036,64.753 -18.369,101.696l146.351,0.474l-17.168,17.385l33.042,34.393l54.609,-13.675l38.527,12.162l-23.404,-27.476l-47.047,6.017l-17.414,-28.738l23.199,0.076l22.418,0.101c0,0 7.418,-7.734 17.135,-17.09c11.368,-10.951 39.626,-8.266 54.333,3.12c15.939,12.349 23.353,27.739 23.578,41.363c0.319,19.411 -12.616,38.464 -27.308,50.365c-19.582,15.864 -41.133,15.613 -55.211,4.101c-8.937,-7.303 -17.136,-17.031 -17.136,-17.031c0,0 -9.556,0.573 -23.521,1.085c-40.81,1.497 -86.585,3.151 -135.987,4.908l-0.411,-0.536l0.252,0.541c-17.62,0.627 -35.7,1.267 -54.18,1.917c-0.457,17.386 -0.327,34.99 0.486,52.684c0.925,20.096 2.598,39.899 5.146,59.683l-158.005,3.387l-85.682,19.566c-2.425,-15.406 -4.592,-30.905 -6.276,-46.515c-1.259,-11.692 -1.269,-47.339 -0.401,-84.071c-108.637,3.73 -221.709,11.338 -329.831,14.993l185.404,186.9l0.442,2.083l-225.308,86.888l-12.187,-5.863l8.568,7.259l-82.971,31.997l50.025,-302.928c-293.807,10.215 -326.897,14.819 -326.897,14.819l-215.232,10.319c-2.093,25.05 -3.844,37.103 -7.344,55.984c-5.099,27.487 -16.961,72.992 -35.571,127.761l0.676,-6.181l-125.825,1.002l-5.308,-43.573l-43.34,-26.784l-27.344,-78.6l-43.872,-42.926l25.819,43.07l18.318,78.672l34.313,26.856l-1.673,43.629l-42.753,0.34l-166.482,-12.413c14.938,-52.635 25.906,-105.596 33.426,-158.565c-132.108,13.234 -307.11,20.98 -307.11,20.98c0,0 -10.028,28.497 -33.776,48.754c-23.747,20.258 -42.296,32.255 -94.051,29.395c-44.302,-2.448 -86.252,-40.103 -84.756,-126.042l65.57,-37.157l39.809,-19.952l-32.822,-2.512l-65.532,27.883l-4.354,-2.724c0.249,-1.887 0.516,-3.792 0.802,-5.716c10.63,-71.601 79.331,-142.762 123.048,-140.882c50.373,2.167 65.305,1.581 79.662,30.094c3.135,6.227 6.073,12.577 8.564,18.195l-1.449,9.488l20.868,77.808l-2.546,-68.859l134.443,2.477l29.117,47.268l-12.903,-46.969l149.877,2.762c0.651,-15.041 1.129,-30.066 1.347,-45.055c-1.411,-32.6 -4.15,-65.217 -8.272,-97.723l141.515,-26.047l28.556,-0.236l4.825,14.912l6.382,66.919l31.948,27.898l35.357,65.809l50.177,41.828l-32.124,-41.976l-26.33,-65.885l-22.921,-27.971l2.645,-66.994l-3.174,-14.925l162.646,-1.34c2.679,21.097 4.724,42.009 6.044,62.541c1.77,27.523 2.559,65.296 2.101,105.731l115.089,2.151l397.015,0.513l-172.324,-188.681l297.653,-113.431l1.452,7.635Z" style="fill:#d0d0ce;"/><path d="M3741.49,3544.5l-17.633,-6.839l-1.864,-12.083l-24.329,-78.004l16.271,-49.977l8.064,-80.587l-24.239,-51.957l-24.019,-58.967l8.774,53.055l16.617,49l-15.687,77.631l-23.894,47.02l16.708,75.047l0.697,11.632l-199.804,-77.495l79.295,-453.748l133.137,47.304l17.943,55.093l14.637,53.811l0.727,-48.352l-12.205,-53.055l115.312,40.971l-84.508,460.5Z" style="fill:#d0d0ce;"/><path d="M4037.51,3952.12l-310.669,39.462l-37.006,-507.992l315.092,-40.991l11.022,172.357l-13.792,11.674l-59.53,56.973l-38.121,84.087l39.578,-61.315l60.257,-45.587l13.967,-8.952l19.202,300.284Z" style="fill:#d0d0ce;"/></g><g id="caption"><path d="M2708.3,4091.17c-1.376,-19.09 -5.908,-37.451 -13.595,-55.083c-7.687,-17.632 -18.649,-33.214 -32.884,-46.746c-16.207,-15.307 -34.373,-26.754 -54.496,-34.341c-20.124,-7.588 -41.239,-10.802 -63.347,-9.643l-0.562,0.029c-22.107,1.159 -42.677,6.558 -61.71,16.197c-19.033,9.639 -35.996,22.927 -50.889,39.864c-12.368,14.926 -21.626,31.85 -27.773,50.77c-6.148,18.921 -8.75,37.375 -7.807,55.36l5.125,97.797c1.553,22.463 5.941,43.462 13.164,62.997c7.224,19.535 18.555,36.789 33.993,51.76c16.582,15.288 34.934,26.725 55.058,34.312c20.123,7.587 41.051,10.811 62.784,9.672l0.562,-0.029c22.108,-1.159 42.771,-6.562 61.992,-16.211c19.22,-9.65 36.079,-23.12 50.578,-40.412c14.163,-16.523 23.791,-35.345 28.884,-56.465c5.093,-21.12 7.109,-41.796 6.048,-62.03l-5.125,-97.798Zm-327.815,369.428l-30.81,-587.907l3104.22,-162.685l30.811,587.907l-3104.22,162.685Zm377.073,-526.435l21.916,418.168l96.111,-5.037l-7.718,-147.258l31.475,-1.65c17.986,-0.942 34.114,-5.075 48.383,-12.398c14.27,-7.323 26.243,-17.25 35.919,-29.781c9.676,-12.53 16.892,-27.186 21.648,-43.968c4.757,-16.781 6.605,-35.289 5.544,-55.523c-1.08,-20.608 -4.867,-39.102 -11.361,-55.482c-6.495,-16.38 -15.203,-30.201 -26.126,-41.464c-10.923,-11.263 -23.858,-19.697 -38.805,-25.301c-14.947,-5.604 -31.414,-7.935 -49.4,-6.992l-127.586,6.686Zm565.316,65.058l-4.949,-94.425l-256.296,13.432l21.915,418.167l256.296,-13.432l-4.948,-94.425l-161.871,8.483l-3.535,-67.446l119.155,-6.244l-4.949,-94.425l-119.155,6.244l-3.534,-67.446l161.871,-8.483Zm264.836,-108.564l10.752,205.149l-122.6,-199.287l-96.111,5.037l21.915,418.167l100.045,-5.243l-10.78,-205.712l123.191,199.821l95.549,-5.008l-21.915,-418.167l-100.046,5.243Zm437.835,396.37l-21.916,-418.167l-94.424,4.948l21.915,418.167l94.425,-4.948Zm243.935,-432.1l10.752,205.149l-122.6,-199.287l-96.111,5.037l21.915,418.167l100.045,-5.243l-10.78,-205.712l123.191,199.82l95.549,-5.007l-21.915,-418.167l-100.046,5.243Zm414.685,72.951l-4.948,-94.425l-256.296,13.432l21.915,418.168l94.425,-4.949l-8.483,-161.871l119.155,-6.245l-4.949,-94.425l-119.155,6.245l-3.535,-67.446l161.871,-8.484Zm333.403,307.159l-93.619,-162.482c4.872,-0.255 11.484,-3.138 19.837,-8.648c8.353,-5.51 16.484,-13.451 24.395,-23.822c7.91,-10.372 14.574,-23.026 19.99,-37.963c5.417,-14.938 7.635,-31.774 6.653,-50.509c-0.943,-17.986 -3.902,-35.02 -8.878,-51.104c-4.976,-16.084 -12.561,-29.964 -22.754,-41.641c-10.193,-11.677 -23.443,-20.752 -39.751,-27.224c-16.308,-6.472 -36.452,-9.079 -60.433,-7.823l-127.586,6.687l21.915,418.167l94.425,-4.948l-7.128,-136.017l1.124,-0.059l63.334,133.071l108.476,-5.685Zm266.26,-124.419l43.431,108.189l107.352,-5.626l-144.443,-411.746l-125.9,6.598l-100.612,424.589l107.352,-5.626l31.322,-112.107l81.498,-4.271Z" style="fill:#fe5000;fill-rule:nonzero;"/><path d="M841.005,4654.37c1.864,-21.306 -0.263,-40.043 -6.382,-56.209c-6.118,-16.166 -14.805,-30.956 -26.061,-44.37c-11.256,-13.415 -24.402,-25.676 -39.438,-36.784c-15.035,-11.109 -30.725,-22.274 -47.069,-33.497c-11.55,-10.05 -19.985,-18.039 -25.305,-23.965c-5.319,-5.927 -7.668,-12.441 -7.047,-19.543c0.818,-9.345 4.514,-16.084 11.091,-20.217c6.576,-4.132 13.602,-5.872 21.078,-5.218c7.102,0.622 13.232,2.665 18.39,6.129c5.159,3.465 9.512,7.518 13.061,12.16c3.549,4.642 6.223,9.584 8.025,14.826c1.801,5.243 3.082,9.969 3.844,14.178l85.265,-25.308c-0.887,-11.378 -3.823,-23.028 -8.806,-34.952c-4.983,-11.924 -12.409,-22.837 -22.277,-32.74c-9.868,-9.903 -22.305,-18.43 -37.31,-25.58c-15.006,-7.151 -32.787,-11.626 -53.346,-13.425c-17.227,-1.13 -34.089,0.031 -50.587,3.484c-16.498,3.453 -31.324,9.312 -44.476,17.578c-13.153,8.266 -24.072,18.986 -32.758,32.163c-8.685,13.176 -13.83,28.922 -15.432,47.237c-1.733,19.811 0.285,36.56 6.056,50.248c5.771,13.687 14.272,26.295 25.504,37.824c11.233,11.529 24.562,22.771 39.988,33.725c15.426,10.954 32.114,23.619 50.066,37.996c8.074,6.733 14.21,13.014 18.408,18.842c4.198,5.829 6.206,11.937 6.024,18.324c-0.542,10.499 -4.109,17.908 -10.702,22.228c-6.593,4.319 -13.099,6.575 -19.519,6.767c-7.573,0.467 -14.443,-1.735 -20.608,-6.606c-6.165,-4.871 -11.254,-10.212 -15.265,-16.025c-4.011,-5.812 -7.019,-11.254 -9.024,-16.326c-2.004,-5.072 -2.616,-7.762 -1.836,-8.07l-92.996,29.717c2.43,15.279 7.335,29.173 14.715,41.683c7.38,12.51 16.691,23.4 27.933,32.67c11.242,9.27 24.049,16.793 38.421,22.571c14.372,5.777 29.969,9.401 46.789,10.873c21.68,1.897 41.337,1.074 58.973,-2.468c17.636,-3.542 32.912,-9.173 45.829,-16.894c12.916,-7.722 23.347,-17.167 31.292,-28.336c7.946,-11.17 12.881,-23.45 14.806,-36.841l0.686,-7.849Zm-325.712,164.725l51.31,-586.474l4722.63,413.176l-51.31,586.474l-4722.63,-413.176Zm677.109,-448.673l-283.705,-24.821l-8.241,94.195l94.756,8.29l-28.255,322.953l94.194,8.241l28.255,-322.953l94.755,8.29l8.241,-94.195Zm286.458,445.403l-70.094,-173.93c4.859,0.425 11.808,-1.509 20.846,-5.803c9.039,-4.294 18.197,-11.026 27.474,-20.196c9.277,-9.169 17.636,-20.773 25.079,-34.811c7.443,-14.038 11.982,-30.402 13.617,-49.092c1.57,-17.941 1.01,-35.222 -1.679,-51.842c-2.689,-16.619 -8.268,-31.42 -16.737,-44.402c-8.468,-12.982 -20.327,-23.812 -35.575,-32.491c-15.249,-8.679 -34.834,-14.065 -58.756,-16.158l-127.275,-11.135l-36.496,417.148l94.195,8.241l11.87,-135.685l1.122,0.098l44.197,140.59l108.212,9.468Zm404.913,-385.481l-96.998,-8.486l-21.338,243.897c-0.883,10.092 -2.745,19.534 -5.586,28.325c-2.84,8.791 -6.704,16.363 -11.592,22.715c-4.887,6.352 -10.866,11.196 -17.938,14.532c-7.071,3.336 -15.28,4.596 -24.624,3.778c-9.345,-0.818 -17.21,-3.483 -23.595,-7.996c-6.384,-4.514 -11.525,-10.331 -15.422,-17.451c-3.897,-7.121 -6.481,-15.257 -7.752,-24.408c-1.271,-9.15 -1.465,-18.772 -0.582,-28.864l21.338,-243.897l-96.998,-8.486l-21.975,251.186c-1.93,22.053 -1.068,43.409 2.586,64.068c3.654,20.659 10.783,39.267 21.388,55.826c10.604,16.559 25.045,30.157 43.323,40.796c18.279,10.639 41.077,16.965 68.397,18.979l0.56,0.049c24.638,2.532 46.653,0.597 66.045,-5.804c19.393,-6.402 35.996,-16.437 49.809,-30.106c13.814,-13.669 24.891,-30.497 33.231,-50.483c8.34,-19.986 13.589,-42.314 15.747,-66.984l21.976,-251.186Zm185.73,343.935c-18.933,-3.163 -33.579,-12.26 -43.941,-27.291c-10.361,-15.031 -14.642,-32.826 -12.843,-53.384l7.112,-81.299c1.799,-20.558 8.995,-37.16 21.59,-49.806c12.594,-12.646 28.488,-18.883 47.682,-18.71c7.882,0.313 15.227,2.462 22.035,6.448c6.807,3.985 12.769,9.026 17.886,15.124c5.116,6.097 9.326,12.869 12.629,20.314c3.304,7.445 5.783,14.63 7.437,21.555l85.272,-38.303c-3,-13.069 -7.588,-26.276 -13.765,-39.623c-6.177,-13.346 -14.711,-25.58 -25.603,-36.703c-10.891,-11.122 -24.282,-20.58 -40.173,-28.373c-15.891,-7.794 -35.237,-12.688 -58.038,-14.683l-0.56,-0.049c-25.792,-2.256 -48.823,0.531 -69.094,8.362c-20.271,7.831 -37.541,19.032 -51.81,33.603c-14.269,14.571 -25.549,31.569 -33.84,50.995c-8.291,19.425 -13.523,39.4 -15.695,59.926l-7.554,86.345c-0.776,21.778 0.765,42.911 4.623,63.399c3.857,20.488 11.197,38.833 22.021,55.034c10.824,16.202 25.468,29.63 43.933,40.285c18.466,10.655 41.902,17.225 70.31,19.711l0.561,0.049c25.417,2.223 47.136,0.451 65.154,-5.317c18.019,-5.768 33.077,-13.208 45.174,-22.319c12.096,-9.111 21.686,-18.63 28.769,-28.557c7.083,-9.926 12.601,-18.106 16.554,-24.54l-77.325,-52.528c-6.752,12.592 -15.863,23.094 -27.333,31.507c-11.471,8.412 -25.194,11.355 -41.168,8.827l0,0.001Zm520.681,-281.567l-283.706,-24.821l-8.241,94.195l94.756,8.29l-28.255,322.953l94.195,8.241l28.254,-322.953l94.756,8.29l8.241,-94.195Zm365.053,31.373l-96.998,-8.486l-21.338,243.897c-0.883,10.092 -2.745,19.534 -5.586,28.325c-2.84,8.791 -6.704,16.363 -11.592,22.715c-4.887,6.352 -10.866,11.196 -17.938,14.532c-7.071,3.336 -15.279,4.596 -24.624,3.778c-9.345,-0.818 -17.21,-3.483 -23.594,-7.996c-6.385,-4.514 -11.526,-10.331 -15.423,-17.451c-3.897,-7.121 -6.481,-15.257 -7.752,-24.408c-1.271,-9.15 -1.465,-18.772 -0.582,-28.864l21.339,-243.897l-96.999,-8.486l-21.975,251.185c-1.93,22.054 -1.068,43.41 2.586,64.069c3.654,20.659 10.783,39.267 21.388,55.826c10.604,16.559 25.045,30.157 43.323,40.796c18.279,10.639 41.077,16.965 68.397,18.978l0.56,0.05c24.638,2.532 46.653,0.597 66.045,-5.804c19.393,-6.402 35.996,-16.437 49.809,-30.106c13.814,-13.669 24.891,-30.497 33.231,-50.483c8.34,-19.986 13.589,-42.314 15.747,-66.984l21.976,-251.186Zm286.969,446.013l-70.094,-173.93c4.859,0.425 11.808,-1.51 20.847,-5.803c9.038,-4.294 18.196,-11.026 27.473,-20.196c9.277,-9.169 17.636,-20.773 25.079,-34.811c7.443,-14.039 11.982,-30.402 13.617,-49.092c1.57,-17.942 1.01,-35.222 -1.679,-51.842c-2.689,-16.619 -8.268,-31.42 -16.737,-44.402c-8.468,-12.982 -20.327,-23.813 -35.575,-32.491c-15.249,-8.679 -34.834,-14.065 -58.756,-16.158l-127.275,-11.135l-36.496,417.148l94.195,8.241l11.871,-135.685l1.121,0.098l44.197,140.59l108.212,9.468Zm350.647,-294.748l8.241,-94.195l-255.671,-22.368l-36.496,417.148l255.671,22.368l8.241,-94.194l-161.476,-14.128l5.886,-67.282l118.865,10.4l8.241,-94.195l-118.865,-10.399l5.887,-67.282l161.476,14.127Zm528.57,106.131c1.294,-19.096 -0.638,-37.909 -5.797,-56.439c-5.158,-18.531 -13.844,-35.487 -26.058,-50.868c-13.919,-17.414 -30.314,-31.277 -49.186,-41.591c-18.872,-10.314 -39.335,-16.436 -61.388,-18.366l-0.561,-0.049c-22.053,-1.929 -43.175,0.555 -63.364,7.451c-20.189,6.897 -38.836,17.695 -55.941,32.394c-14.326,13.06 -25.849,28.53 -34.569,46.411c-8.721,17.881 -13.866,35.793 -15.436,53.735l-8.535,97.558c-1.589,22.46 -0.166,43.865 4.269,64.216c4.434,20.35 13.253,39.013 26.457,55.987c14.293,17.446 30.876,31.327 49.747,41.641c18.872,10.314 39.148,16.419 60.828,18.316l0.56,0.049c22.054,1.929 43.268,-0.546 63.645,-7.426c20.376,-6.881 38.946,-17.874 55.71,-32.98c16.325,-14.391 28.479,-31.689 36.461,-51.895c7.983,-20.205 12.857,-40.4 14.623,-60.585l8.535,-97.559Zm293.731,291.236l-70.095,-173.93c4.86,0.426 11.808,-1.509 20.847,-5.803c9.039,-4.294 18.196,-11.026 27.473,-20.195c9.277,-9.17 17.637,-20.774 25.08,-34.812c7.443,-14.038 11.982,-30.402 13.617,-49.091c1.57,-17.942 1.01,-35.223 -1.679,-51.842c-2.689,-16.62 -8.268,-31.421 -16.737,-44.403c-8.469,-12.982 -20.327,-23.812 -35.576,-32.491c-15.248,-8.678 -34.833,-14.064 -58.756,-16.157l-127.275,-11.135l-36.495,417.147l94.194,8.241l11.871,-135.685l1.122,0.098l44.197,140.591l108.212,9.467Zm240.649,-199.851c6.728,0.589 14.043,-1.219 21.944,-5.424c7.9,-4.206 15.311,-10.337 22.23,-18.395c6.92,-8.057 12.865,-17.895 17.837,-29.513c4.971,-11.618 8.094,-24.715 9.37,-39.293c1.21,-13.83 -0.092,-26.938 -3.905,-39.325c-3.812,-12.386 -10.186,-23.49 -19.119,-33.311c-8.934,-9.821 -20.834,-18.019 -35.702,-24.593c-14.867,-6.573 -32.58,-10.76 -53.139,-12.558l-96.998,-8.487l-36.495,417.148l136.245,11.92c18.316,1.603 34.659,-0.075 49.028,-5.033c14.37,-4.957 26.6,-12.362 36.69,-22.213c10.09,-9.852 18.076,-21.489 23.958,-34.91c5.882,-13.422 9.494,-27.795 10.835,-43.12c0.915,-10.466 0.231,-22.014 -2.054,-34.643c-2.285,-12.63 -6.614,-24.496 -12.987,-35.6c-6.373,-11.104 -15.051,-20.62 -26.034,-28.549c-10.982,-7.929 -24.884,-12.629 -41.704,-14.101l0,0Zm223.035,240.418l36.496,-417.147l-94.195,-8.241l-36.496,417.147l94.195,8.241Zm371.784,-387.814l-283.706,-24.821l-8.241,94.195l94.756,8.29l-28.255,322.953l94.195,8.241l28.254,-322.953l94.756,8.29l8.241,-94.195Z" style="fill:#fe5000;fill-rule:nonzero;"/></g></g></svg>