<?xml version="1.0" encoding="UTF-8" standalone="no"?>
<svg
   xmlns:serif="http://www.serif.com/"
   xmlns:dc="http://purl.org/dc/elements/1.1/"
   xmlns:cc="http://creativecommons.org/ns#"
   xmlns:rdf="http://www.w3.org/1999/02/22-rdf-syntax-ns#"
   xmlns:svg="http://www.w3.org/2000/svg"
   xmlns="http://www.w3.org/2000/svg"
   xmlns:sodipodi="http://sodipodi.sourceforge.net/DTD/sodipodi-0.dtd"
   xmlns:inkscape="http://www.inkscape.org/namespaces/inkscape"
   inkscape:version="1.0beta2 (2b71d25, 2019-12-03)"
   sodipodi:docname="36c3-oio-hope-square.svg"
   id="svg944"
   style="fill-rule:evenodd;clip-rule:evenodd;stroke-miterlimit:10;"
   xml:space="preserve"
   version="1.1"
   viewBox="0 0 6000 6000"
   height="100%"
   width="100%"><metadata
     id="metadata950"><rdf:RDF><cc:Work
         rdf:about=""><dc:format>image/svg+xml</dc:format><dc:type
           rdf:resource="http://purl.org/dc/dcmitype/StillImage" /><dc:title></dc:title></cc:Work></rdf:RDF></metadata><defs
     id="defs948" /><sodipodi:namedview
     inkscape:current-layer="svg944"
     inkscape:window-maximized="0"
     inkscape:window-y="24"
     inkscape:window-x="0"
     inkscape:cy="3011.976"
     inkscape:cx="5502.994"
     inkscape:zoom="0.0835"
     inkscape:lockguides="false"
     inkscape:snap-global="false"
     showgrid="false"
     id="namedview946"
     inkscape:window-height="710"
     inkscape:window-width="1280"
     inkscape:pageshadow="2"
     inkscape:pageopacity="0"
     guidetolerance="10"
     gridtolerance="10"
     objecttolerance="10"
     borderopacity="1"
     inkscape:document-rotation="0"
     bordercolor="#666666"
     pagecolor="#ffffff" /><rect
     style="fill:none;"
     height="6000"
     width="6000"
     y="0"
     x="0"
     serif:id="hope small"
     id="hope-small" /><g
     id="g942"><g
       id="g940"
       clip-path="url(#_clip1)"><rect
         id="rect837"
         height="6000"
         width="6000"
         y="0"
         x="0" /><g
         serif:id="destroyed space station"
         id="destroyed-space-station"><path
           inkscape:connector-curvature="0"
           style="fill:#d0d0ce"
           d="m 4802.41,2334.78 c 10.286,7.415 21.615,16.75 33.221,27.427 l -2.973,-0.06 -37.146,-17.293 -11.926,-22.338 c 7.13,4.297 13.481,8.413 18.824,12.264 z"
           serif:id="path526 1 1"
           id="path526-1-1" /><path
           inkscape:connector-curvature="0"
           id="path840"
           style="fill:#d0d0ce"
           d="m 3726.55,823.175 -262.136,198.373 -29.417,-63.029 259.998,-200.051 z" /><path
           inkscape:connector-curvature="0"
           id="path842"
           style="fill:#d0d0ce"
           d="m 5057.05,1833.61 c 31.813,35.347 57.902,75.43 76.008,117.54 0.363,0.843 0.69,1.699 1.048,2.544 l -154.583,-65.583 c 0,0 -5.494,-2.171 -8.31,-2.324 -2.858,-0.154 -6.621,1.573 -6.621,1.573 l -77.512,34.989 c -27.965,-67.948 -69.935,-106.078 -82.095,-110.144 -11.714,-3.921 -59.623,-5.702 -114.268,17.154 l -128.869,-55.887 -42.38,-84.651 c 70.422,-28.625 162.262,-42.448 221.557,-24.014 28.784,8.951 91.378,30.819 146.418,53.622 8.257,3.42 16.338,6.86 24.115,10.282 14.12,6.214 27.222,12.364 38.465,18.208 l 12.856,21.411 38.008,14.8 2.991,-0.13 c 17.853,14.568 36.429,32.005 53.172,50.61 z" /><path
           inkscape:connector-curvature="0"
           id="path844"
           style="fill:#d0d0ce"
           d="m 4519.53,1798.17 126.332,48.136 c -20.935,11.232 -42.402,26.201 -62.741,46.27 -52.892,52.194 -79.645,84.999 -118.158,156.92 -2.42,4.517 -4.881,9.56 -7.322,14.398 l -143.33,-51.367 -78.856,-43.881 c 49.153,-92.131 89.505,-154.429 193.528,-229.167 13.319,-9.572 28.999,-18.63 46.116,-26.889 z" /><path
           inkscape:connector-curvature="0"
           id="path846"
           style="fill:#d0d0ce"
           d="m 2755.01,2147.6 -284.204,174.303 -6.55,-25.081 283.864,-188.934 z" /><path
           inkscape:connector-curvature="0"
           id="path848"
           style="fill:#d0d0ce"
           d="m 2284.16,2410.51 -20.714,20.805 -106.173,-283.764 29.885,-35.135 z" /><path
           inkscape:connector-curvature="0"
           id="path850"
           style="fill:#d0d0ce"
           d="m 4297.56,2157.84 -3.959,8.903 -216.428,-97.124 -1.775,-14.084 z" /><path
           inkscape:connector-curvature="0"
           id="path852"
           style="fill:#d0d0ce"
           d="m 4889.31,2481.86 153.586,-216.519 6.284,3.62 -155.406,229.121 z" /><path
           inkscape:connector-curvature="0"
           id="path854"
           style="fill:#d0d0ce"
           d="m 4488,2761.45 -206.94,162.892 -2.331,-13.457 204.424,-157.192 z" /><path
           inkscape:connector-curvature="0"
           id="path856"
           style="fill:#d0d0ce"
           d="m 4709.1,2914.57 -15.407,18.751 -70.449,-269.503 5.75,-3.272 z" /><path
           inkscape:connector-curvature="0"
           id="path858"
           style="fill:#d0d0ce"
           d="m 2483.05,3003 -23.535,41.225 -199.993,-298.948 21.676,-14.04 z" /><path
           inkscape:connector-curvature="0"
           id="path860"
           style="fill:#d0d0ce"
           d="m 2193.01,2636.57 -206.826,209.459 -4.633,-28.908 199.913,-199.037 z" /><path
           inkscape:connector-curvature="0"
           id="path862"
           style="fill:#d0d0ce"
           d="m 4317.75,2718.11 c 11.159,61.419 32.416,122.559 74.352,191.199 10.967,17.95 23.554,35.494 38.422,51.224 l -145.879,11.327 -58.68,69.611 c -24.6,-20.875 -47.237,-44.99 -66.418,-72.123 -42.338,-59.871 -70.078,-137.917 -86.59,-220.963 l 85.344,-20.278 z" /><path
           inkscape:connector-curvature="0"
           id="path864"
           style="fill:#d0d0ce"
           d="m 5094.7,3040.93 107.251,129.434 2.975,-0.061 c -3.513,2.733 -7.114,5.724 -10.49,8.047 -91.863,63.207 -153.902,101.485 -276.106,92.749 l -109.015,-129.713 -39.487,-133.757 -0.703,-0.679 c 25.435,4.069 52.427,4.519 75.9,-2.177 73.821,-21.064 125.87,-51.883 167.336,-87.334 z" /><path
           inkscape:connector-curvature="0"
           id="path866"
           style="fill:#d0d0ce"
           d="m 2782.79,2860.3 206.922,51.4 c -51.412,98.101 -131.746,222.874 -234.871,316.037 -29.025,26.224 -64.729,54.817 -106.352,80.005 l -204.181,-49.766 -89.861,-119.468 c 40.299,-21.404 74.183,-49.015 103.325,-76.466 74.867,-79.838 131.427,-167.981 174.185,-260.963 z" /><path
           inkscape:connector-curvature="0"
           id="path868"
           style="fill:#d0d0ce"
           d="m 4500.39,3125.57 c 22.841,36.634 51.731,55.428 66.242,63.58 9.854,5.536 51.459,-0.534 95.018,-18.052 l 77.294,91.655 151.435,49.969 c -6.656,3.279 -13.354,6.554 -20.464,9.81 -58.029,26.574 -107.486,24.173 -183.53,18.194 -25.641,-2.019 -192.925,-56.787 -223.51,-67.931 -63.99,-23.312 -131.588,-83.877 -180.704,-163.384 l 73.673,-42.553 135.285,42.466 c 2.912,5.498 5.948,10.936 9.261,16.246 z" /><path
           inkscape:connector-curvature="0"
           id="path870"
           style="fill:#d0d0ce"
           d="m 2075.86,3108.66 c 30.794,46.389 73.627,90.48 137.19,118.786 54.313,-0.988 100.695,-14.427 140.915,-34.199 l 80.494,124.011 204.679,52.121 c -76.376,42.26 -171.265,71.157 -282.153,53.843 -45.702,-7.132 -238.874,-53.948 -308.45,-74.928 -103.061,-31.079 -190.587,-102.861 -262.119,-217.603 l 96.39,-70.434 z" /><path
           inkscape:connector-curvature="0"
           id="path872"
           style="fill:#d0d0ce"
           d="m 4111.29,4249.22 -318.501,-65.37 4.735,-66.083 319.341,64.784 z" /><path
           inkscape:connector-curvature="0"
           id="path874"
           style="fill:#d0d0ce"
           d="m 2026.46,3006.99 c 7.959,16.732 17.019,33.994 27.585,51.113 l -191.188,-45.741 -95.4,73.33 c -20.362,-33.389 -39.493,-70.135 -57.252,-110.622 l 48.806,-44.803 26.32,-87.813 -34.335,68.408 -52.242,36.99 c -44.549,-110.891 -65.279,-227.569 -58.369,-365.08 l 113.03,5.362 209.199,49.984 c -7.535,120.338 17.631,245.591 63.846,368.872 z" /><path
           inkscape:connector-curvature="0"
           id="path876"
           style="fill:#d0d0ce"
           d="m 1841.52,2164.89 205.923,51.178 c -18.613,44.491 -34.24,89.938 -47.274,136.089 l -17.115,-0.743 -51.727,45.682 -45.743,25.324 -38.79,10.448 -41.64,34.589 36.407,-11.619 36.173,1.038 43.126,-13.84 49.111,-34.197 14.837,3.031 c -15.676,67.284 -26.318,135.803 -33.093,204.801 l -207.916,-50.58 -114.836,-1.362 c 2.884,-49.574 9.3,-101.831 19.514,-157.534 l 3.948,-0.554 37.681,-14.5 41.118,-38.459 58.999,-48.56 44.427,30.127 41.659,-61.334 -36.183,38.419 -41.688,-41.584 -56.26,37.102 -38.379,27.001 -34.944,3.043 -6.041,-0.302 c 0.286,-1.258 0.575,-2.519 0.865,-3.781 18.746,-81.551 41.451,-154.729 68.567,-220.749 z" /><path
           inkscape:connector-curvature="0"
           id="path878"
           style="fill:#d0d0ce"
           d="m 2138.91,1814.28 184.932,44.427 c -23.172,14.046 -43.861,29.864 -62.001,45.928 -38.425,34.027 -71.647,71.158 -100.562,110.28 l -58.238,-26.735 -63.715,-10.447 -54.348,-25.836 -38.843,-20.727 26.622,39.836 48.238,35.39 57.604,20.002 51.098,34.604 c -18.26,28.741 -34.524,58.269 -49.112,88.186 -7.404,15.184 -14.336,30.531 -20.993,45.962 l -206.602,-48.637 -111.321,-48.251 c 50.8,-121.767 117.048,-218.774 202.192,-297.926 l 40.688,33.967 38.521,21.192 82.419,-36.705 -66.345,23.255 -30.485,-27.917 -35.395,-39.792 c 28.382,-23.874 58.705,-46.027 91.08,-66.682 z" /><path
           inkscape:connector-curvature="0"
           id="path880"
           style="fill:#d0d0ce"
           d="m 2701.82,1610.95 c 83.214,26.707 167.973,61.246 264.977,219.557 l -211.298,-42.433 -116.942,68.76 c -9.731,-14.752 -21.031,-29.391 -34.025,-43.341 l 10.079,-26.991 -6.027,-86.975 -8.466,75.407 -11.112,23.012 c -27.898,-26.038 -62.421,-48.616 -104.487,-63.446 -60.258,2.309 -111.585,20.523 -154.66,45.332 l -189.535,-42.354 -83.223,-94.461 c 153.85,-101.519 292.54,-99.73 349.818,-94.602 1.858,0.166 3.969,0.398 6.313,0.691 l -5.064,42.997 17.803,-41.172 c 21.271,3.334 52.427,9.318 86.317,16.3 77.188,15.904 168.549,36.985 189.532,43.719 z" /><path
           inkscape:connector-curvature="0"
           id="path882"
           style="fill:#d0d0ce"
           d="m 3015.87,1910.28 c 20.913,39.628 37.811,81.456 51.172,124.382 l -41.974,14.29 -4.397,73.463 9.988,-52.415 45.051,-5.541 c 21.375,78.846 31.426,160.488 33.026,238.323 l -198.691,-37.753 -5.199,-45.591 -28.241,-46.494 -6.552,-39.031 2.771,-11.053 28.374,-57.586 8.038,-68.379 2.735,-61.243 -13.064,43.939 -13.202,59.726 -27.869,40.663 -34.184,-57.27 -26.965,-43.742 8.86,44.484 29.532,65.012 2.457,39.72 -8.61,23.501 11.227,18.809 0.244,3.935 19.188,46.865 -1.462,38.944 -120.41,4.939 c -1.151,-88.558 -12.547,-178.209 -39.254,-267.224 l 47.497,-32.988 -52.598,16.576 c -9.302,-28.915 -20.255,-57.751 -33.034,-86.449 -4.383,-8.246 -9.322,-16.584 -14.699,-24.91 l 118.322,-64.151 214.437,38.417 c 12.289,20.095 24.745,41.689 37.486,65.832 z" /><path
           inkscape:connector-curvature="0"
           id="path884"
           style="fill:#d0d0ce"
           d="m 3729.98,2106.78 -295.754,137.665 -31.784,-138.813 21.616,-15.318 47.373,-36.275 9.787,-66.904 39.802,-41.915 -44.707,20.491 -12.24,56.193 -49.826,25.563 -22.942,9.526 -72.213,-315.385 144.772,-62.812 31.37,17.259 48.389,18.301 37.963,66.864 -20.17,-74.584 -39.492,-22.161 -23.518,-20.666 111.143,-48.221 z" /><path
           inkscape:connector-curvature="0"
           id="path886"
           style="fill:#d0d0ce"
           d="m 3725.16,1555.86 -296.755,55.762 -35.312,-521.887 289.33,-55.228 20.374,248.553 -3.113,2.388 -35.219,31.042 -16.313,52.901 -19,54.922 20.857,-32.263 17.242,-41.57 36.148,-19.713 3.166,-1.742 z" /><path
           inkscape:connector-curvature="0"
           id="path888"
           style="fill:#d0d0ce"
           d="m 5200.33,3095.27 c -37.305,-11.223 -79.792,-38.69 -103.791,-69.817 l 6.947,-17.138 1.556,-0.925 46.426,-34.497 46.861,-44.16 53.141,1.891 -45.447,-20.874 -43.014,34.668 -42.579,25.006 -1.39,0.513 44.465,-109.706 66.231,-138.434 c 6.258,7.188 12.657,13.461 19.154,19.087 l -25.072,38.542 -6.382,63.425 16.799,-55.89 28.088,-35.375 c 13.684,10.071 27.66,18.149 41.541,26.605 22.474,13.69 44.854,20.891 67.782,22.939 l -39.506,119.377 -73.544,183.355 c -21.078,-0.269 -40.671,-3.302 -58.266,-8.592 z" /><path
           inkscape:connector-curvature="0"
           id="path890"
           style="fill:#d0d0ce"
           d="m 5414.5,2247.98 -128.698,63.677 -9.285,-8.577 -40.311,-43.47 -59.377,-23.587 -30.385,-24.915 -18.919,-53.557 2.054,64.978 21.952,30.626 50.944,29.297 31.879,49.182 3.993,4.891 -96.002,65.013 c -29.184,-61.675 -70.665,-108.401 -123.299,-152.613 -15.533,-13.046 -31.757,-22.68 -47.866,-29.902 l 53.985,-88.693 c 0,0 1.064,-1.916 2.098,-2.811 1.179,-1.022 3.947,-2.239 3.947,-2.239 l 171.255,-85.218 c 94.368,40.852 165.399,120.76 212.035,207.918 z" /><path
           inkscape:connector-curvature="0"
           id="path892"
           style="fill:#d0d0ce"
           d="m 3735.94,2205.6 -53.595,294.876 126.069,0.683 234.017,0.747 c 2.418,-30.895 7.438,-56.856 10.618,-68.332 4.595,-16.577 8.924,-32.283 13.182,-47.317 l 75.658,15.172 2.398,5.682 59.263,25.754 -41.2,-26 -0.957,-3.877 145.87,-1.983 c -7.494,30.322 -14.036,64.753 -18.369,101.696 l 146.351,0.474 -17.168,17.385 33.042,34.393 54.609,-13.675 38.527,12.162 -23.404,-27.476 -47.047,6.017 -17.414,-28.738 23.199,0.076 22.418,0.101 c 0,0 7.418,-7.734 17.135,-17.09 11.368,-10.951 39.626,-8.266 54.333,3.12 15.939,12.349 23.353,27.739 23.578,41.363 0.319,19.411 -12.616,38.464 -27.308,50.365 -19.582,15.864 -41.133,15.613 -55.211,4.101 -8.937,-7.303 -17.136,-17.031 -17.136,-17.031 0,0 -9.556,0.573 -23.521,1.085 -40.81,1.497 -86.585,3.151 -135.987,4.908 l -0.411,-0.536 0.252,0.541 c -17.62,0.627 -35.7,1.267 -54.18,1.917 -0.457,17.386 -0.327,34.99 0.486,52.684 0.925,20.096 2.598,39.899 5.146,59.683 l -158.005,3.387 -85.682,19.566 c -2.425,-15.406 -4.592,-30.905 -6.276,-46.515 -1.259,-11.692 -1.269,-47.339 -0.401,-84.071 -108.637,3.73 -221.709,11.338 -329.831,14.993 l 185.404,186.9 0.442,2.083 -225.308,86.888 -12.187,-5.863 8.568,7.259 -82.971,31.997 50.025,-302.928 c -293.807,10.215 -326.897,14.819 -326.897,14.819 l -215.232,10.319 c -2.093,25.05 -3.844,37.103 -7.344,55.984 -5.099,27.487 -16.961,72.992 -35.571,127.761 l 0.676,-6.181 -125.825,1.002 -5.308,-43.573 -43.34,-26.784 -27.344,-78.6 -43.872,-42.926 25.819,43.07 18.318,78.672 34.313,26.856 -1.673,43.629 -42.753,0.34 -166.482,-12.413 c 14.938,-52.635 25.906,-105.596 33.426,-158.565 -132.108,13.234 -307.11,20.98 -307.11,20.98 0,0 -10.028,28.497 -33.776,48.754 -23.747,20.258 -42.296,32.255 -94.051,29.395 -44.302,-2.448 -86.252,-40.103 -84.756,-126.042 l 65.57,-37.157 39.809,-19.952 -32.822,-2.512 -65.532,27.883 -4.354,-2.724 c 0.249,-1.887 0.516,-3.792 0.802,-5.716 10.63,-71.601 79.331,-142.762 123.048,-140.882 50.373,2.167 65.305,1.581 79.662,30.094 3.135,6.227 6.073,12.577 8.564,18.195 l -1.449,9.488 20.868,77.808 -2.546,-68.859 134.443,2.477 29.117,47.268 -12.903,-46.969 149.877,2.762 c 0.651,-15.041 1.129,-30.066 1.347,-45.055 -1.411,-32.6 -4.15,-65.217 -8.272,-97.723 l 141.515,-26.047 28.556,-0.236 4.825,14.912 6.382,66.919 31.948,27.898 35.357,65.809 50.177,41.828 -32.124,-41.976 -26.33,-65.885 -22.921,-27.971 2.645,-66.994 -3.174,-14.925 162.646,-1.34 c 2.679,21.097 4.724,42.009 6.044,62.541 1.77,27.523 2.559,65.296 2.101,105.731 l 115.089,2.151 397.015,0.513 -172.324,-188.681 297.653,-113.431 z" /><path
           inkscape:connector-curvature="0"
           id="path894"
           style="fill:#d0d0ce"
           d="m 3741.49,3544.5 -17.633,-6.839 -1.864,-12.083 -24.329,-78.004 16.271,-49.977 8.064,-80.587 -24.239,-51.957 -24.019,-58.967 8.774,53.055 16.617,49 -15.687,77.631 -23.894,47.02 16.708,75.047 0.697,11.632 -199.804,-77.495 79.295,-453.748 133.137,47.304 17.943,55.093 14.637,53.811 0.727,-48.352 -12.205,-53.055 115.312,40.971 z" /><path
           inkscape:connector-curvature="0"
           id="path896"
           style="fill:#d0d0ce"
           d="m 4037.51,3952.12 -310.669,39.462 -37.006,-507.992 315.092,-40.991 11.022,172.357 -13.792,11.674 -59.53,56.973 -38.121,84.087 39.578,-61.315 60.257,-45.587 13.967,-8.952 z" /></g><g
         id="caption"><path
           inkscape:connector-curvature="0"
           id="path899"
           style="fill:#00bb31;fill-rule:nonzero"
           d="m 2708.3,4091.17 c -1.376,-19.09 -5.908,-37.451 -13.595,-55.083 -7.687,-17.632 -18.649,-33.214 -32.884,-46.746 -16.207,-15.307 -34.373,-26.754 -54.496,-34.341 -20.124,-7.588 -41.239,-10.802 -63.347,-9.643 l -0.562,0.029 c -22.107,1.159 -42.677,6.558 -61.71,16.197 -19.033,9.639 -35.996,22.927 -50.889,39.864 -12.368,14.926 -21.626,31.85 -27.773,50.77 -6.148,18.921 -8.75,37.375 -7.807,55.36 l 5.125,97.797 c 1.553,22.463 5.941,43.462 13.164,62.997 7.224,19.535 18.555,36.789 33.993,51.76 16.582,15.288 34.934,26.725 55.058,34.312 20.123,7.587 41.051,10.811 62.784,9.672 l 0.562,-0.029 c 22.108,-1.159 42.771,-6.562 61.992,-16.211 19.22,-9.65 36.079,-23.12 50.578,-40.412 14.163,-16.523 23.791,-35.345 28.884,-56.465 5.093,-21.12 7.109,-41.796 6.048,-62.03 z m -327.815,369.428 -30.81,-587.907 3104.22,-162.685 30.811,587.907 -3104.22,162.685 z m 377.073,-526.435 21.916,418.168 96.111,-5.037 -7.718,-147.258 31.475,-1.65 c 17.986,-0.942 34.114,-5.075 48.383,-12.398 14.27,-7.323 26.243,-17.25 35.919,-29.781 9.676,-12.53 16.892,-27.186 21.648,-43.968 4.757,-16.781 6.605,-35.289 5.544,-55.523 -1.08,-20.608 -4.867,-39.102 -11.361,-55.482 -6.495,-16.38 -15.203,-30.201 -26.126,-41.464 -10.923,-11.263 -23.858,-19.697 -38.805,-25.301 -14.947,-5.604 -31.414,-7.935 -49.4,-6.992 z m 565.316,65.058 -4.949,-94.425 -256.296,13.432 21.915,418.167 256.296,-13.432 -4.948,-94.425 -161.871,8.483 -3.535,-67.446 119.155,-6.244 -4.949,-94.425 -119.155,6.244 -3.534,-67.446 z m 264.836,-108.564 10.752,205.149 -122.6,-199.287 -96.111,5.037 21.915,418.167 100.045,-5.243 -10.78,-205.712 123.191,199.821 95.549,-5.008 -21.915,-418.167 z m 437.835,396.37 -21.916,-418.167 -94.424,4.948 21.915,418.167 z m 243.935,-432.1 10.752,205.149 -122.6,-199.287 -96.111,5.037 21.915,418.167 100.045,-5.243 -10.78,-205.712 123.191,199.82 95.549,-5.007 -21.915,-418.167 z m 414.685,72.951 -4.948,-94.425 -256.296,13.432 21.915,418.168 94.425,-4.949 -8.483,-161.871 119.155,-6.245 -4.949,-94.425 -119.155,6.245 -3.535,-67.446 z m 333.403,307.159 -93.619,-162.482 c 4.872,-0.255 11.484,-3.138 19.837,-8.648 8.353,-5.51 16.484,-13.451 24.395,-23.822 7.91,-10.372 14.574,-23.026 19.99,-37.963 5.417,-14.938 7.635,-31.774 6.653,-50.509 -0.943,-17.986 -3.902,-35.02 -8.878,-51.104 -4.976,-16.084 -12.561,-29.964 -22.754,-41.641 -10.193,-11.677 -23.443,-20.752 -39.751,-27.224 -16.308,-6.472 -36.452,-9.079 -60.433,-7.823 l -127.586,6.687 21.915,418.167 94.425,-4.948 -7.128,-136.017 1.124,-0.059 63.334,133.071 z m 266.26,-124.419 43.431,108.189 107.352,-5.626 -144.443,-411.746 -125.9,6.598 -100.612,424.589 107.352,-5.626 31.322,-112.107 z" /><path
           inkscape:connector-curvature="0"
           id="path901"
           style="fill:#00bb31;fill-rule:nonzero"
           d="m 841.005,4654.37 c 1.864,-21.306 -0.263,-40.043 -6.382,-56.209 -6.118,-16.166 -14.805,-30.956 -26.061,-44.37 -11.256,-13.415 -24.402,-25.676 -39.438,-36.784 -15.035,-11.109 -30.725,-22.274 -47.069,-33.497 -11.55,-10.05 -19.985,-18.039 -25.305,-23.965 -5.319,-5.927 -7.668,-12.441 -7.047,-19.543 0.818,-9.345 4.514,-16.084 11.091,-20.217 6.576,-4.132 13.602,-5.872 21.078,-5.218 7.102,0.622 13.232,2.665 18.39,6.129 5.159,3.465 9.512,7.518 13.061,12.16 3.549,4.642 6.223,9.584 8.025,14.826 1.801,5.243 3.082,9.969 3.844,14.178 l 85.265,-25.308 c -0.887,-11.378 -3.823,-23.028 -8.806,-34.952 -4.983,-11.924 -12.409,-22.837 -22.277,-32.74 -9.868,-9.903 -22.305,-18.43 -37.31,-25.58 -15.006,-7.151 -32.787,-11.626 -53.346,-13.425 -17.227,-1.13 -34.089,0.031 -50.587,3.484 -16.498,3.453 -31.324,9.312 -44.476,17.578 -13.153,8.266 -24.072,18.986 -32.758,32.163 -8.685,13.176 -13.83,28.922 -15.432,47.237 -1.733,19.811 0.285,36.56 6.056,50.248 5.771,13.687 14.272,26.295 25.504,37.824 11.233,11.529 24.562,22.771 39.988,33.725 15.426,10.954 32.114,23.619 50.066,37.996 8.074,6.733 14.21,13.014 18.408,18.842 4.198,5.829 6.206,11.937 6.024,18.324 -0.542,10.499 -4.109,17.908 -10.702,22.228 -6.593,4.319 -13.099,6.575 -19.519,6.767 -7.573,0.467 -14.443,-1.735 -20.608,-6.606 -6.165,-4.871 -11.254,-10.212 -15.265,-16.025 -4.011,-5.812 -7.019,-11.254 -9.024,-16.326 -2.004,-5.072 -2.616,-7.762 -1.836,-8.07 l -92.996,29.717 c 2.43,15.279 7.335,29.173 14.715,41.683 7.38,12.51 16.691,23.4 27.933,32.67 11.242,9.27 24.049,16.793 38.421,22.571 14.372,5.777 29.969,9.401 46.789,10.873 21.68,1.897 41.337,1.074 58.973,-2.468 17.636,-3.542 32.912,-9.173 45.829,-16.894 12.916,-7.722 23.347,-17.167 31.292,-28.336 7.946,-11.17 12.881,-23.45 14.806,-36.841 z m -325.712,164.725 51.31,-586.474 4722.63,413.176 -51.31,586.474 z m 677.109,-448.673 -283.705,-24.821 -8.241,94.195 94.756,8.29 -28.255,322.953 94.194,8.241 28.255,-322.953 94.755,8.29 z m 286.458,445.403 -70.094,-173.93 c 4.859,0.425 11.808,-1.509 20.846,-5.803 9.039,-4.294 18.197,-11.026 27.474,-20.196 9.277,-9.169 17.636,-20.773 25.079,-34.811 7.443,-14.038 11.982,-30.402 13.617,-49.092 1.57,-17.941 1.01,-35.222 -1.679,-51.842 -2.689,-16.619 -8.268,-31.42 -16.737,-44.402 -8.468,-12.982 -20.327,-23.812 -35.575,-32.491 -15.249,-8.679 -34.834,-14.065 -58.756,-16.158 l -127.275,-11.135 -36.496,417.148 94.195,8.241 11.87,-135.685 1.122,0.098 44.197,140.59 z m 404.913,-385.481 -96.998,-8.486 -21.338,243.897 c -0.883,10.092 -2.745,19.534 -5.586,28.325 -2.84,8.791 -6.704,16.363 -11.592,22.715 -4.887,6.352 -10.866,11.196 -17.938,14.532 -7.071,3.336 -15.28,4.596 -24.624,3.778 -9.345,-0.818 -17.21,-3.483 -23.595,-7.996 -6.384,-4.514 -11.525,-10.331 -15.422,-17.451 -3.897,-7.121 -6.481,-15.257 -7.752,-24.408 -1.271,-9.15 -1.465,-18.772 -0.582,-28.864 l 21.338,-243.897 -96.998,-8.486 -21.975,251.186 c -1.93,22.053 -1.068,43.409 2.586,64.068 3.654,20.659 10.783,39.267 21.388,55.826 10.604,16.559 25.045,30.157 43.323,40.796 18.279,10.639 41.077,16.965 68.397,18.979 l 0.56,0.049 c 24.638,2.532 46.653,0.597 66.045,-5.804 19.393,-6.402 35.996,-16.437 49.809,-30.106 13.814,-13.669 24.891,-30.497 33.231,-50.483 8.34,-19.986 13.589,-42.314 15.747,-66.984 z m 185.73,343.935 c -18.933,-3.163 -33.579,-12.26 -43.941,-27.291 -10.361,-15.031 -14.642,-32.826 -12.843,-53.384 l 7.112,-81.299 c 1.799,-20.558 8.995,-37.16 21.59,-49.806 12.594,-12.646 28.488,-18.883 47.682,-18.71 7.882,0.313 15.227,2.462 22.035,6.448 6.807,3.985 12.769,9.026 17.886,15.124 5.116,6.097 9.326,12.869 12.629,20.314 3.304,7.445 5.783,14.63 7.437,21.555 l 85.272,-38.303 c -3,-13.069 -7.588,-26.276 -13.765,-39.623 -6.177,-13.346 -14.711,-25.58 -25.603,-36.703 -10.891,-11.122 -24.282,-20.58 -40.173,-28.373 -15.891,-7.794 -35.237,-12.688 -58.038,-14.683 l -0.56,-0.049 c -25.792,-2.256 -48.823,0.531 -69.094,8.362 -20.271,7.831 -37.541,19.032 -51.81,33.603 -14.269,14.571 -25.549,31.569 -33.84,50.995 -8.291,19.425 -13.523,39.4 -15.695,59.926 l -7.554,86.345 c -0.776,21.778 0.765,42.911 4.623,63.399 3.857,20.488 11.197,38.833 22.021,55.034 10.824,16.202 25.468,29.63 43.933,40.285 18.466,10.655 41.902,17.225 70.31,19.711 l 0.561,0.049 c 25.417,2.223 47.136,0.451 65.154,-5.317 18.019,-5.768 33.077,-13.208 45.174,-22.319 12.096,-9.111 21.686,-18.63 28.769,-28.557 7.083,-9.926 12.601,-18.106 16.554,-24.54 l -77.325,-52.528 c -6.752,12.592 -15.863,23.094 -27.333,31.507 -11.471,8.412 -25.194,11.355 -41.168,8.827 z m 520.681,-281.567 -283.706,-24.821 -8.241,94.195 94.756,8.29 -28.255,322.953 94.195,8.241 28.254,-322.953 94.756,8.29 z m 365.053,31.373 -96.998,-8.486 -21.338,243.897 c -0.883,10.092 -2.745,19.534 -5.586,28.325 -2.84,8.791 -6.704,16.363 -11.592,22.715 -4.887,6.352 -10.866,11.196 -17.938,14.532 -7.071,3.336 -15.279,4.596 -24.624,3.778 -9.345,-0.818 -17.21,-3.483 -23.594,-7.996 -6.385,-4.514 -11.526,-10.331 -15.423,-17.451 -3.897,-7.121 -6.481,-15.257 -7.752,-24.408 -1.271,-9.15 -1.465,-18.772 -0.582,-28.864 l 21.339,-243.897 -96.999,-8.486 -21.975,251.185 c -1.93,22.054 -1.068,43.41 2.586,64.069 3.654,20.659 10.783,39.267 21.388,55.826 10.604,16.559 25.045,30.157 43.323,40.796 18.279,10.639 41.077,16.965 68.397,18.978 l 0.56,0.05 c 24.638,2.532 46.653,0.597 66.045,-5.804 19.393,-6.402 35.996,-16.437 49.809,-30.106 13.814,-13.669 24.891,-30.497 33.231,-50.483 8.34,-19.986 13.589,-42.314 15.747,-66.984 z m 286.969,446.013 -70.094,-173.93 c 4.859,0.425 11.808,-1.51 20.847,-5.803 9.038,-4.294 18.196,-11.026 27.473,-20.196 9.277,-9.169 17.636,-20.773 25.079,-34.811 7.443,-14.039 11.982,-30.402 13.617,-49.092 1.57,-17.942 1.01,-35.222 -1.679,-51.842 -2.689,-16.619 -8.268,-31.42 -16.737,-44.402 -8.468,-12.982 -20.327,-23.813 -35.575,-32.491 -15.249,-8.679 -34.834,-14.065 -58.756,-16.158 l -127.275,-11.135 -36.496,417.148 94.195,8.241 11.871,-135.685 1.121,0.098 44.197,140.59 z m 350.647,-294.748 8.241,-94.195 -255.671,-22.368 -36.496,417.148 255.671,22.368 8.241,-94.194 -161.476,-14.128 5.886,-67.282 118.865,10.4 8.241,-94.195 -118.865,-10.399 5.887,-67.282 z m 528.57,106.131 c 1.294,-19.096 -0.638,-37.909 -5.797,-56.439 -5.158,-18.531 -13.844,-35.487 -26.058,-50.868 -13.919,-17.414 -30.314,-31.277 -49.186,-41.591 -18.872,-10.314 -39.335,-16.436 -61.388,-18.366 l -0.561,-0.049 c -22.053,-1.929 -43.175,0.555 -63.364,7.451 -20.189,6.897 -38.836,17.695 -55.941,32.394 -14.326,13.06 -25.849,28.53 -34.569,46.411 -8.721,17.881 -13.866,35.793 -15.436,53.735 l -8.535,97.558 c -1.589,22.46 -0.166,43.865 4.269,64.216 4.434,20.35 13.253,39.013 26.457,55.987 14.293,17.446 30.876,31.327 49.747,41.641 18.872,10.314 39.148,16.419 60.828,18.316 l 0.56,0.049 c 22.054,1.929 43.268,-0.546 63.645,-7.426 20.376,-6.881 38.946,-17.874 55.71,-32.98 16.325,-14.391 28.479,-31.689 36.461,-51.895 7.983,-20.205 12.857,-40.4 14.623,-60.585 z m 293.731,291.236 -70.095,-173.93 c 4.86,0.426 11.808,-1.509 20.847,-5.803 9.039,-4.294 18.196,-11.026 27.473,-20.195 9.277,-9.17 17.637,-20.774 25.08,-34.812 7.443,-14.038 11.982,-30.402 13.617,-49.091 1.57,-17.942 1.01,-35.223 -1.679,-51.842 -2.689,-16.62 -8.268,-31.421 -16.737,-44.403 -8.469,-12.982 -20.327,-23.812 -35.576,-32.491 -15.248,-8.678 -34.833,-14.064 -58.756,-16.157 l -127.275,-11.135 -36.495,417.147 94.194,8.241 11.871,-135.685 1.122,0.098 44.197,140.591 z m 240.649,-199.851 c 6.728,0.589 14.043,-1.219 21.944,-5.424 7.9,-4.206 15.311,-10.337 22.23,-18.395 6.92,-8.057 12.865,-17.895 17.837,-29.513 4.971,-11.618 8.094,-24.715 9.37,-39.293 1.21,-13.83 -0.092,-26.938 -3.905,-39.325 -3.812,-12.386 -10.186,-23.49 -19.119,-33.311 -8.934,-9.821 -20.834,-18.019 -35.702,-24.593 -14.867,-6.573 -32.58,-10.76 -53.139,-12.558 l -96.998,-8.487 -36.495,417.148 136.245,11.92 c 18.316,1.603 34.659,-0.075 49.028,-5.033 14.37,-4.957 26.6,-12.362 36.69,-22.213 10.09,-9.852 18.076,-21.489 23.958,-34.91 5.882,-13.422 9.494,-27.795 10.835,-43.12 0.915,-10.466 0.231,-22.014 -2.054,-34.643 -2.285,-12.63 -6.614,-24.496 -12.987,-35.6 -6.373,-11.104 -15.051,-20.62 -26.034,-28.549 -10.982,-7.929 -24.884,-12.629 -41.704,-14.101 z m 223.035,240.418 36.496,-417.147 -94.195,-8.241 -36.496,417.147 z m 371.784,-387.814 -283.706,-24.821 -8.241,94.195 94.756,8.29 -28.255,322.953 94.195,8.241 28.254,-322.953 94.756,8.29 z" /></g><g
         id="g914"><path
           inkscape:connector-curvature="0"
           id="path904"
           style="fill:#00bb31;fill-rule:nonzero"
           d="m 1944.58,1800.98 36.718,33.066 43.471,21.269 72.658,-33.693 -60.615,19.695 -28.198,-26.485 -34.001,-39.023" /><path
           inkscape:connector-curvature="0"
           id="path906"
           style="fill:#00bb31;fill-rule:nonzero"
           d="m 1604.29,1714.01 c 0,-18.685 15.146,-33.831 33.831,-33.831 18.684,0 33.831,15.146 33.831,33.831 0,18.684 -15.147,33.831 -33.831,33.831 -18.685,0 -33.831,-15.147 -33.831,-33.831 z" /><path
           inkscape:connector-curvature="0"
           id="path908"
           style="fill:#00bb31;fill-rule:nonzero"
           d="m 1452.05,1488.47 c 0,-18.684 15.147,-33.831 33.831,-33.831 18.685,0 33.831,15.147 33.831,33.831 0,18.684 -15.146,33.831 -33.831,33.831 -18.684,0 -33.831,-15.147 -33.831,-33.831 z" /><path
           inkscape:connector-curvature="0"
           id="path910"
           style="fill:none;fill-rule:nonzero;stroke:#00bb31;stroke-width:33.83px"
           d="m 1963.79,1790.25 -100.134,-76.237 V 1612.52 l -225.539,-225.54 h -304.479 l 152.239,327.033 h 152.24" /><path
           inkscape:connector-curvature="0"
           id="path912"
           style="fill:none;fill-rule:nonzero;stroke:#00bb31;stroke-width:33.83px"
           d="m 1863.66,1714.01 -225.539,-225.54 h -152.24" /></g><g
         id="g926"><path
           inkscape:connector-curvature="0"
           id="path916"
           style="fill:#00bb31;fill-rule:nonzero"
           d="m 1601.11,2331.71 31.992,59.207 14.027,17.488 41.738,-16.62 102.106,-86.538 43.172,30.578 41.367,-60.617 -34.862,35.695 -41.689,-40.644 -94.486,64.192 -41.039,4.041" /><path
           inkscape:connector-curvature="0"
           id="path918"
           style="fill:#00bb31;fill-rule:nonzero"
           d="m 1395.86,2316.62 c 0,-18.684 15.147,-33.83 33.831,-33.83 18.685,0 33.831,15.146 33.831,33.83 0,18.685 -15.146,33.831 -33.831,33.831 -18.684,0 -33.831,-15.146 -33.831,-33.831 z" /><path
           inkscape:connector-curvature="0"
           id="path920"
           style="fill:#00bb31;fill-rule:nonzero"
           d="m 1260.54,2198.22 c 0,-18.684 15.146,-33.831 33.831,-33.831 18.684,0 33.831,15.147 33.831,33.831 0,18.685 -15.147,33.831 -33.831,33.831 -18.685,0 -33.831,-15.146 -33.831,-33.831 z" /><path
           inkscape:connector-curvature="0"
           id="path922"
           style="fill:none;fill-rule:nonzero;stroke:#00bb31;stroke-width:33.83px"
           d="m 1643.06,2377.44 -94.964,-60.818 V 2209.491 L 1429.687,2091.083 H 1159.04 l 135.324,225.539 h 135.323" /><path
           inkscape:connector-curvature="0"
           id="path924"
           style="fill:none;fill-rule:nonzero;stroke:#00bb31;stroke-width:33.83px"
           d="M 1548.1,2316.62 1429.691,2198.212 H 1294.368" /></g><g
         id="g938"><path
           inkscape:connector-curvature="0"
           id="path928"
           style="fill:#00bb31;fill-rule:nonzero"
           d="m 4057.36,1226.97 c 0,-18.684 15.147,-33.831 33.831,-33.831 18.684,0 33.831,15.147 33.831,33.831 0,18.685 -15.147,33.831 -33.831,33.831 -18.684,0 -33.831,-15.146 -33.831,-33.831 z" /><path
           inkscape:connector-curvature="0"
           id="path930"
           style="fill:#00bb31;fill-rule:nonzero"
           d="m 4212.41,1018.35 c 0,-18.684 15.146,-33.831 33.831,-33.831 18.684,0 33.83,15.147 33.83,33.831 0,18.684 -15.146,33.831 -33.83,33.831 -18.685,0 -33.831,-15.147 -33.831,-33.831 z" /><path
           inkscape:connector-curvature="0"
           id="path932"
           style="fill:none;fill-rule:nonzero;stroke:#00bb31;stroke-width:33.83px"
           d="m 3765.98,1269.35 116.584,-42.378 v -84.577 l 208.624,-208.624 h 310.117 l -155.058,293.201 h -155.059" /><path
           inkscape:connector-curvature="0"
           id="path934"
           style="fill:none;fill-rule:nonzero;stroke:#00bb31;stroke-width:33.83px"
           d="m 3882.56,1226.97 208.624,-208.624 h 155.059" /><path
           inkscape:connector-curvature="0"
           id="path936"
           style="fill:#00bb31;fill-rule:nonzero"
           d="m 3775.62,1283.03 -13.248,-29.287 -59.737,29.456 -38.035,33.256 -34.729,106.351 20.689,-31.342 17.342,-41.324 39.151,-21.4" /></g></g></g></svg>
