<svg id="freifunk-iot_by_ps" xmlns="http://www.w3.org/2000/svg" viewBox="0 0 131.53 125.16"><defs><style>.cls-1{fill:#181716;}.cls-2{fill:#fbb900;}.cls-3{fill:#004d9e;}</style></defs><title>2018-12-06_marvin_freifunk-iot_Logo_path_rgb</title><g id="Text"><path class="cls-1" d="M6.22,130.39V117H4.53v-2.47H6.22v-1.86a4.09,4.09,0,0,1,.86-2.84,3.32,3.32,0,0,1,2.58-.95,6.33,6.33,0,0,1,.88.06,6.23,6.23,0,0,1,.83.18v2.59l-.52-.1-.27,0a1.52,1.52,0,0,0-1.07.31,1.37,1.37,0,0,0-.33,1v1.62h1.89V117H9.18v13.43Z" transform="translate(-4.53 -5.67)"/><path class="cls-1" d="M12.77,130.39v-15.9h3v2.16a4.69,4.69,0,0,1,1.36-1.75,2.92,2.92,0,0,1,1.79-.59h.3v3.32a1.94,1.94,0,0,0-.45-.16,2.48,2.48,0,0,0-.52-.05,2.4,2.4,0,0,0-1.81.69,2.59,2.59,0,0,0-.66,1.88v10.4Z" transform="translate(-4.53 -5.67)"/><path class="cls-1" d="M20.35,125.91v-7.14a4.67,4.67,0,0,1,1.25-3.37,4.28,4.28,0,0,1,3.23-1.3A4,4,0,0,1,28,115.3,5,5,0,0,1,29,118.77v4.05H23.41v3a3.65,3.65,0,0,0,.29,1.74,1.06,1.06,0,0,0,1,.48,1.17,1.17,0,0,0,1-.41,3.6,3.6,0,0,0,.29-1.81v-1.1h3v1.19a5.35,5.35,0,0,1-1.11,3.68,4.23,4.23,0,0,1-3.32,1.24,3.92,3.92,0,0,1-3.12-1.31A5.32,5.32,0,0,1,20.35,125.91Zm3.06-5.56H26v-1.61a2.55,2.55,0,0,0-.31-1.43,1.11,1.11,0,0,0-1-.43,1.15,1.15,0,0,0-1,.43,2.55,2.55,0,0,0-.31,1.43Z" transform="translate(-4.53 -5.67)"/><path class="cls-1" d="M31.36,111.81v-3h3v3Zm0,18.58v-15.9h3v15.9Z" transform="translate(-4.53 -5.67)"/><path class="cls-1" d="M37.47,130.39V117H35.79v-2.47h1.68v-1.86a4.09,4.09,0,0,1,.86-2.84,3.32,3.32,0,0,1,2.58-.95,6.33,6.33,0,0,1,.88.06,6.23,6.23,0,0,1,.83.18v2.59l-.52-.1-.27,0a1.52,1.52,0,0,0-1.07.31,1.37,1.37,0,0,0-.33,1v1.62h1.89V117H40.44v13.43Z" transform="translate(-4.53 -5.67)"/><path class="cls-1" d="M52.42,114.49v15.9h-3v-1.74a6.48,6.48,0,0,1-1.71,1.48,3.46,3.46,0,0,1-1.72.51,1.8,1.8,0,0,1-1.55-.71A3.57,3.57,0,0,1,44,127.8V114.49h3V126.7a1.4,1.4,0,0,0,.19.82.7.7,0,0,0,.6.25,1.61,1.61,0,0,0,.83-.33,4.14,4.14,0,0,0,.92-.86V114.49Z" transform="translate(-4.53 -5.67)"/><path class="cls-1" d="M55.14,130.39v-15.9h3v1.74a6.6,6.6,0,0,1,1.69-1.45,3.4,3.4,0,0,1,1.69-.5,1.83,1.83,0,0,1,1.56.7,3.5,3.5,0,0,1,.52,2.1v13.31h-3v-12a2,2,0,0,0-.17-1,.69.69,0,0,0-.62-.25,1.54,1.54,0,0,0-.81.33,4.29,4.29,0,0,0-.9.86v12.06Z" transform="translate(-4.53 -5.67)"/><path class="cls-1" d="M66.25,130.39V108.84h3v11.48L72,114.49h3.17l-3,5.34,3.14,10.57h-3l-2.07-7.87-1,1.86v6Z" transform="translate(-4.53 -5.67)"/><path class="cls-1" d="M76.46,123.58v-2.25h7.08v2.25Z" transform="translate(-4.53 -5.67)"/><path class="cls-1" d="M86,111.81v-3h3v3Zm0,18.58v-15.9h3v15.9Z" transform="translate(-4.53 -5.67)"/><path class="cls-1" d="M91.42,118.13a3.8,3.8,0,0,1,1.19-2.94,4.55,4.55,0,0,1,3.2-1.1,4.1,4.1,0,0,1,3,1.16,4,4,0,0,1,1.17,3v8.21a4.36,4.36,0,0,1-1.15,3.2,4.24,4.24,0,0,1-3.16,1.16,4.12,4.12,0,0,1-3.1-1.2,4.44,4.44,0,0,1-1.16-3.23Zm3.06,8.54a1.49,1.49,0,0,0,.31,1,1.12,1.12,0,0,0,.89.36,1.25,1.25,0,0,0,.95-.37,1.39,1.39,0,0,0,.35-1V118a1.08,1.08,0,0,0-.36-.84,1.35,1.35,0,0,0-.94-.32,1.21,1.21,0,0,0-.87.32,1.11,1.11,0,0,0-.33.84Z" transform="translate(-4.53 -5.67)"/><path class="cls-1" d="M103.2,127V117h-1.83v-2.47h1.83v-4.58h3v4.58h2.21V117h-2.21v9.79a1.42,1.42,0,0,0,.33,1,1.31,1.31,0,0,0,1,.34,2.16,2.16,0,0,0,.37,0l.51-.11,0,2.59a5.06,5.06,0,0,1-.83.19,6.32,6.32,0,0,1-.88.06,3.31,3.31,0,0,1-2.58-.95A4.11,4.11,0,0,1,103.2,127Z" transform="translate(-4.53 -5.67)"/><path class="cls-1" d="M110.65,130.39V127h3.17v3.38Z" transform="translate(-4.53 -5.67)"/><path class="cls-1" d="M122,129.14a3.87,3.87,0,0,1-1.28,1.1,3.35,3.35,0,0,1-1.55.36,2.33,2.33,0,0,1-2-.89,4.26,4.26,0,0,1-.68-2.61v-8.82a5.08,5.08,0,0,1,.73-3,2.45,2.45,0,0,1,2.13-1,2.72,2.72,0,0,1,1.36.38,4.55,4.55,0,0,1,1.27,1.11v-6.93h3v21.55h-3Zm0-1.77v-9.91a2.59,2.59,0,0,0-.64-.51,1.33,1.33,0,0,0-.61-.16,1,1,0,0,0-.86.44,2.06,2.06,0,0,0-.32,1.23v8.21a1.82,1.82,0,0,0,.25,1.07.92.92,0,0,0,.78.33,1.62,1.62,0,0,0,.72-.16A2.36,2.36,0,0,0,122,127.37Z" transform="translate(-4.53 -5.67)"/><path class="cls-1" d="M127.36,125.91v-7.14a4.67,4.67,0,0,1,1.25-3.37,4.28,4.28,0,0,1,3.23-1.3A4,4,0,0,1,135,115.3a5,5,0,0,1,1.09,3.47v4.05h-5.63v3a3.66,3.66,0,0,0,.29,1.74,1.06,1.06,0,0,0,1,.48,1.17,1.17,0,0,0,1-.41,3.6,3.6,0,0,0,.29-1.81v-1.1h3v1.19a5.35,5.35,0,0,1-1.11,3.68,4.23,4.23,0,0,1-3.32,1.24,3.92,3.92,0,0,1-3.12-1.31A5.32,5.32,0,0,1,127.36,125.91Zm3.05-5.56H133v-1.61a2.55,2.55,0,0,0-.31-1.43,1.11,1.11,0,0,0-1-.43,1.15,1.15,0,0,0-1,.43,2.55,2.55,0,0,0-.31,1.43Z" transform="translate(-4.53 -5.67)"/></g><g id="Bobbel"><path class="cls-2" d="M119.47,20.92a3.31,3.31,0,0,0-2.09-4.19L115.28,23A3.31,3.31,0,0,0,119.47,20.92Z" transform="translate(-4.53 -5.67)"/><path class="cls-2" d="M125.39,49.4a1.1,1.1,0,0,0-1.21,1l-1,10.08a2.22,2.22,0,1,0,2.21.21l1-10.08A1.11,1.11,0,0,0,125.39,49.4Zm.41,13.23a1.67,1.67,0,0,1-3.32-.32,1.59,1.59,0,0,1,1.25-1.42v-.11l.26-2.72a.55.55,0,0,1,1.1.11l-.26,2.72V61A1.6,1.6,0,0,1,125.8,62.63Z" transform="translate(-4.53 -5.67)"/><circle class="cls-2" cx="16.87" cy="64.16" r="1.06" transform="translate(-12.8 -2.91) rotate(-7.53)"/><path class="cls-2" d="M17.33,60.28a.35.35,0,0,0-.5.07l-3.05,4a.35.35,0,0,0,.56.43l3-4A.35.35,0,0,0,17.33,60.28Z" transform="translate(-4.53 -5.67)"/><circle class="cls-2" cx="14.3" cy="60.93" r="1.06" transform="matrix(0.99, -0.13, 0.13, 0.99, -12.39, -3.27)"/><path class="cls-2" d="M124.72,45.35a11.31,11.31,0,0,0-10.65,15.19L77.29,81.84l32.82-49.23a14.21,14.21,0,1,0-3.33-2.22L72.36,82l-4.5-51.73a9.91,9.91,0,1,0-4.09.89h.15l4.35,50L33.5,35.53A12.72,12.72,0,1,0,30.37,38L64.29,82.55,25,64a10,10,0,1,0-2,3.49L70,89.67h0l.05,0,.18.07.08,0,.06,0h.07a2,2,0,0,0,.41,0H71l.19,0,.12,0h.06l.05,0,.07,0,.23-.09h0l0,0h0L116.07,64a11.34,11.34,0,1,0,8.65-18.66ZM112,22.75l-2.78,1.39a.72.72,0,0,1-.65-1.29l2.78-1.38a.72.72,0,0,1,1,.32A.71.71,0,0,1,112,22.75Zm3.3,2.14-1,2.94a.72.72,0,1,1-1.37-.46l1-2.94a.72.72,0,1,1,1.37.46Zm4.91,2.93a.73.73,0,0,1-.55,0,.71.71,0,0,1-.42-.36l-1.38-2.78a.72.72,0,0,1,1.29-.64l1.39,2.78A.72.72,0,0,1,120.19,27.81Zm4.47-5.15a.72.72,0,0,1-.91.46l-2.94-1a.72.72,0,1,1,.46-1.37l2.94,1A.72.72,0,0,1,124.66,22.66Zm-4.22-5.74,2.78-1.39a.72.72,0,1,1,.65,1.29l-2.78,1.38a.72.72,0,1,1-.64-1.29Zm-3.3-2.14,1-2.95a.72.72,0,1,1,1.37.46l-1,2.95a.72.72,0,0,1-1.37-.46Zm.33,1.3a4,4,0,1,1-5,2.49A4,4,0,0,1,117.46,16.08Zm-5.24-4.22a.73.73,0,0,1,1,.33L114.58,15a.72.72,0,0,1-.32,1,.72.72,0,0,1-1-.33l-1.39-2.78A.72.72,0,0,1,112.23,11.85ZM107.75,17a.72.72,0,0,1,.91-.45l2.94,1a.72.72,0,1,1-.46,1.37l-2.94-1A.72.72,0,0,1,107.75,17Zm-37,5,0,.33a.29.29,0,0,1-.25.32L68.39,23a.29.29,0,0,1-.32-.25l0-.33a.29.29,0,0,1,.25-.32l2.13-.27A.29.29,0,0,1,70.72,22Zm-6.17-7.72.33,0a.29.29,0,0,1,.32.25l.27,2.13a.29.29,0,0,1-.25.32l-.33,0a.29.29,0,0,1-.32-.25l-.27-2.13A.29.29,0,0,1,64.56,14.31Zm-1.8.23.33,0a.29.29,0,0,1,.32.25l.27,2.13a.29.29,0,0,1-.25.32l-.33,0a.29.29,0,0,1-.32-.25l-.27-2.13A.29.29,0,0,1,62.76,14.54Zm-1.8.23.33,0a.29.29,0,0,1,.32.25l.27,2.13a.29.29,0,0,1-.25.32l-.33,0a.29.29,0,0,1-.32-.25l-.27-2.13A.29.29,0,0,1,61,14.77Zm-4.13,5.71,0-.33a.29.29,0,0,1,.25-.32l2.13-.27a.29.29,0,0,1,.32.25l0,.33a.29.29,0,0,1-.25.32l-2.13.27A.29.29,0,0,1,56.83,20.48Zm.23,1.8,0-.33a.29.29,0,0,1,.25-.32l2.13-.27a.29.29,0,0,1,.32.25l0,.33a.29.29,0,0,1-.25.32l-2.13.27A.29.29,0,0,1,57.06,22.28Zm2.68,1.77-2.13.27a.29.29,0,0,1-.32-.25l0-.33a.29.29,0,0,1,.25-.32l2.13-.27a.29.29,0,0,1,.32.25l0,.33A.29.29,0,0,1,59.74,24.05ZM63,28.21l-.33,0a.29.29,0,0,1-.32-.25l-.27-2.13a.29.29,0,0,1,.25-.32l.33,0a.29.29,0,0,1,.32.25l.27,2.13A.29.29,0,0,1,63,28.21ZM64.8,28l-.33,0a.29.29,0,0,1-.32-.25l-.27-2.13a.29.29,0,0,1,.25-.32l.33,0a.29.29,0,0,1,.32.25L65,27.66A.29.29,0,0,1,64.8,28Zm1.8-.23-.33,0a.29.29,0,0,1-.32-.25l-.27-2.13a.29.29,0,0,1,.25-.32l.33,0a.29.29,0,0,1,.32.25l.27,2.13A.29.29,0,0,1,66.6,27.75ZM67.08,24l-5.79.73a.25.25,0,0,1-.28-.22l-.73-5.79a.25.25,0,0,1,.22-.28l5.79-.73a.25.25,0,0,1,.28.22l.73,5.79A.25.25,0,0,1,67.08,24Zm.54-4.92,0-.33a.29.29,0,0,1,.25-.32L70,18.19a.29.29,0,0,1,.32.25l0,.33a.29.29,0,0,1-.25.32l-2.13.27A.29.29,0,0,1,67.62,19.12Zm.19,1.46a.29.29,0,0,1,.25-.32L70.18,20a.29.29,0,0,1,.32.25l0,.33a.29.29,0,0,1-.25.32l-2.13.27a.29.29,0,0,1-.32-.25ZM32.63,22.26l-5,6.51a.6.6,0,0,1-1-.07l-2-3.55-4.41,5.79a.59.59,0,0,1-.52.24.6.6,0,0,1-.48-.3l-2-3.43-2,3.43a.6.6,0,0,1-1-.6l2.48-4.34a.6.6,0,0,1,1,0l2,3.55,4.41-5.79a.6.6,0,0,1,1,.07l2,3.55,4.41-5.79a.6.6,0,1,1,1,.73ZM16.15,66.76a4.26,4.26,0,0,1-4.77-3.66c-.22-1.66.7-3.21,1.66-4.85a21.88,21.88,0,0,0,1.34-2.52.37.37,0,0,1,.6-.08,21.79,21.79,0,0,0,2,2.09c1.36,1.33,2.65,2.59,2.87,4.25A4.26,4.26,0,0,1,16.15,66.76Zm110.76-4a2.78,2.78,0,1,1-4.21-2.6l.94-9.8a1.66,1.66,0,0,1,1.82-1.48,1.63,1.63,0,0,1,1.5,1.79L126,60.45A2.76,2.76,0,0,1,126.9,62.73Z" transform="translate(-4.53 -5.67)"/></g><path id="Wolke" class="cls-3" d="M101.23,99.21c8.37,0,15.12-7.47,15.13-16a16.07,16.07,0,0,0-14.21-16c0-.5.05-1,.05-1.52,0-12.79-10.77-23.16-24.08-23.17a24.16,24.16,0,0,0-22.07,13.8h0a11.81,11.81,0,0,0-19,9A17.49,17.49,0,0,0,25.65,81.71c0,8.85,6.52,17.54,15.1,17.51" transform="translate(-4.53 -5.67)"/></svg>