<?xml version="1.0" encoding="UTF-8" standalone="no"?>
<!DOCTYPE svg PUBLIC "-//W3C//DTD SVG 1.1//EN" "http://www.w3.org/Graphics/SVG/1.1/DTD/svg11.dtd">
<svg width="100%" height="100%" viewBox="0 0 445 506" version="1.1" xmlns="http://www.w3.org/2000/svg" xmlns:xlink="http://www.w3.org/1999/xlink" xml:space="preserve" xmlns:serif="http://www.serif.com/" style="fill-rule:evenodd;clip-rule:evenodd;stroke-linejoin:round;stroke-miterlimit:1.41421;">
    <rect id="Artboard2" x="0" y="0" width="444.54" height="505.298" style="fill:none;"/>
    <g>
        <path d="M248.901,250.421L231.061,222.251L203.219,58.503L228.635,42.046L259.483,213.506L255.666,250.622L267.321,250.967L288.949,251.534C288.909,247.061 289.152,243.307 289.348,241.65C291.617,222.474 292.792,211.362 301.16,193.75C305.879,183.816 316.372,172.674 323.769,171.509C328.262,170.802 341.389,169.579 346.724,170.92C349.55,171.63 353.327,173.446 356.751,175.987C360.631,178.866 364.153,182.695 367.032,187.243C377.705,204.1 383.01,229.061 384.229,249.395C384.918,260.899 384.435,276.027 382.75,285.032C379.265,303.654 376.75,315.216 365.573,330.464C361.049,336.636 356.545,338.482 349.561,341.01C347.206,341.862 330.766,341.753 327.731,341.579C318.904,341.073 307.574,331.1 300.383,315.654C295.276,304.687 291.947,290.106 290.042,275.16C289.826,273.463 289.522,268.844 289.289,263.522C279.283,263.85 268.9,264.185 258.941,264.503L277.666,291.954L308.442,450.28L281.03,465.302L249.193,302.518L251.971,264.725C224.805,265.587 202.444,266.272 202.444,266.272L201.877,249.029L248.901,250.421ZM120.377,136.014C124.809,135.232 145.282,135.695 148.565,136.232C157.95,137.767 167.725,140.664 183.013,169.45C192.881,188.03 198.325,212.255 200.464,233.703C201.511,244.2 202.546,264.957 201.892,275.953C201.19,287.736 196.467,322.077 185.09,347.593C179.118,360.988 168.609,379.099 151.432,381.404C147.122,381.983 128.534,382.116 121.747,381.592C108.357,380.558 95.86,368.555 84.238,344.801C73.557,322.97 67.983,297.481 67.679,259.262C67.328,214.945 74.368,184.646 90.083,159.828C102.151,140.771 115.003,136.962 120.377,136.014ZM131.626,155.495C129.155,155.511 115.535,169.02 110.347,185C102.047,210.562 99.069,223.302 98.745,257.145C98.36,297.385 104.191,312.925 110.453,330.811C118.624,354.149 131.742,362.503 133.602,362.322C136.014,362.087 148.846,352.077 156.263,329.566C164.477,304.638 166.64,280.305 166.626,254.708C166.612,228.335 159.837,198.137 151.573,179.439C144.443,163.306 133.51,155.482 131.626,155.495ZM311.862,262.767C311.968,265.286 312.13,267.839 312.356,270.405C313.467,283.01 315.657,294.854 321.506,309.126C323.087,312.984 324.956,316.765 327.291,319.868C330.29,323.856 333.765,326.725 335.279,327.198C336.956,327.722 345.025,318.77 348.684,309.201C357.214,286.891 357.068,271.346 357.348,255.605C357.703,235.61 354.315,221.11 348.47,205.568C343.294,191.806 335.462,185.228 333.899,185.423C332.224,185.631 323.941,192.737 319.148,206.84C315.878,216.463 314.402,222.194 312.961,233.772C312.318,238.93 311.838,245.241 311.728,252.132L329.353,252.594L331.426,252.652C331.426,252.652 332.045,251.547 332.863,250.21C333.82,248.645 336.455,249.088 337.911,250.767C339.489,252.588 340.304,254.833 340.441,256.808C340.636,259.622 339.603,262.359 338.347,264.055C336.673,266.316 334.681,266.237 333.282,264.541C332.394,263.465 331.552,262.04 331.552,262.04C331.552,262.04 330.674,262.104 329.388,262.151C324.286,262.337 318.342,262.546 311.862,262.767ZM160.455,268.17C149.886,268.556 137.818,268.762 137.818,268.762C137.818,268.762 136.975,270.106 135.69,272.242C133.915,275.192 129.879,276.762 127.42,276.483C121.796,275.845 117.59,271.313 118.141,257.56C118.556,247.205 122.142,236.624 129.662,236.802C132.303,236.864 134.752,238.292 135.634,240.445C137.377,244.701 137.738,247.218 137.738,247.218L160.442,248.699C161.049,256.317 160.592,262.555 160.455,268.17Z" style="fill-rule:nonzero;"/>
    </g>
</svg>
