<?xml version="1.0" encoding="UTF-8" standalone="no"?>
<!DOCTYPE svg PUBLIC "-//W3C//DTD SVG 1.1//EN" "http://www.w3.org/Graphics/SVG/1.1/DTD/svg11.dtd">
<svg width="100%" height="100%" viewBox="0 0 1772 1772" version="1.1" xmlns="http://www.w3.org/2000/svg" xmlns:xlink="http://www.w3.org/1999/xlink" xml:space="preserve" xmlns:serif="http://www.serif.com/" style="fill-rule:evenodd;clip-rule:evenodd;stroke-linejoin:round;stroke-miterlimit:1.41421;">
    <g transform="matrix(1,0,0,1,-176.754,-115.989)">
        <g>
            <g transform="matrix(0.999076,-0.042982,0.042982,0.999076,-75.1929,47.2503)">
                <text x="1061.2px" y="1772.22px" style="font-family:'AvenirNext-Medium', 'Avenir Next', sans-serif;font-weight:500;font-size:96px;">O</text>
            </g>
            <g transform="matrix(0.990759,-0.135633,0.135633,0.990759,-229.285,171.305)">
                <text x="1142.53px" y="1768.32px" style="font-family:'AvenirNext-Medium', 'Avenir Next', sans-serif;font-weight:500;font-size:96px;">p</text>
            </g>
            <g transform="matrix(0.978217,-0.207586,0.207586,0.978217,-339.152,288.031)">
                <text x="1202.84px" y="1760.01px" style="font-family:'AvenirNext-Medium', 'Avenir Next', sans-serif;font-weight:500;font-size:96px;">e</text>
            </g>
            <g transform="matrix(0.960711,-0.277551,0.277551,0.960711,-435.936,417.534)">
                <text x="1256.83px" y="1748.57px" style="font-family:'AvenirNext-Medium', 'Avenir Next', sans-serif;font-weight:500;font-size:96px;">n</text>
            </g>
            <g transform="matrix(0.93395,-0.357405,0.357405,0.93395,-528.435,590.332)">
                <text x="1332.95px" y="1724.87px" style="font-family:'AvenirNext-Medium', 'Avenir Next', sans-serif;font-weight:500;font-size:96px;">I</text>
            </g>
            <g transform="matrix(0.913672,-0.406453,0.406453,0.913672,-580.253,699.87)">
                <text x="1357.45px" y="1715.92px" style="font-family:'AvenirNext-Medium', 'Avenir Next', sans-serif;font-weight:500;font-size:96px;">n</text>
            </g>
            <g transform="matrix(0.888807,-0.458282,0.458282,0.888807,-619.215,833.68)">
                <text x="1408.4px" y="1692.89px" style="font-family:'AvenirNext-Medium', 'Avenir Next', sans-serif;font-weight:500;font-size:96px;">f</text>
            </g>
            <g transform="matrix(0.86783,-0.496862,0.496862,0.86783,-644.787,934.907)">
                <text x="1434.88px" y="1679.41px" style="font-family:'AvenirNext-Medium', 'Avenir Next', sans-serif;font-weight:500;font-size:96px;">r</text>
            </g>
            <g transform="matrix(0.842661,-0.538445,0.538445,0.842661,-665.049,1050.03)">
                <text x="1464.18px" y="1662.98px" style="font-family:'AvenirNext-Medium', 'Avenir Next', sans-serif;font-weight:500;font-size:96px;">a</text>
            </g>
            <g transform="matrix(0.80808,-0.589072,0.589072,0.80808,-673.668,1201.98)">
                <text x="1507.83px" y="1634.86px" style="font-family:'AvenirNext-Medium', 'Avenir Next', sans-serif;font-weight:500;font-size:96px;">s</text>
            </g>
            <g transform="matrix(0.77911,-0.626887,0.626887,0.77911,-668.336,1322.36)">
                <text x="1542.27px" y="1609.55px" style="font-family:'AvenirNext-Medium', 'Avenir Next', sans-serif;font-weight:500;font-size:96px;">t</text>
            </g>
            <g transform="matrix(0.748443,-0.663199,0.663199,0.748443,-660.209,1439.12)">
                <text x="1566.93px" y="1589.84px" style="font-family:'AvenirNext-Medium', 'Avenir Next', sans-serif;font-weight:500;font-size:96px;">r</text>
            </g>
            <g transform="matrix(0.711828,-0.702354,0.702354,0.711828,-641.507,1570.57)">
                <text x="1593.2px" y="1567.05px" style="font-family:'AvenirNext-Medium', 'Avenir Next', sans-serif;font-weight:500;font-size:96px;">u</text>
            </g>
            <g transform="matrix(0.662083,-0.74943,0.74943,0.662083,-593.112,1740.02)">
                <text x="1632.95px" y="1527.71px" style="font-family:'AvenirNext-Medium', 'Avenir Next', sans-serif;font-weight:500;font-size:96px;">c</text>
            </g>
            <g transform="matrix(0.625869,-0.779928,0.779928,0.625869,-541.12,1856.19)">
                <text x="1664.19px" y="1492.12px" style="font-family:'AvenirNext-Medium', 'Avenir Next', sans-serif;font-weight:500;font-size:96px;">t</text>
            </g>
            <g transform="matrix(0.580571,-0.81421,0.81421,0.580571,-488.572,1986.9)">
                <text x="1684.23px" y="1467.66px" style="font-family:'AvenirNext-Medium', 'Avenir Next', sans-serif;font-weight:500;font-size:96px;">u</text>
            </g>
            <g transform="matrix(0.528422,-0.848982,0.848982,0.528422,-397.766,2127.87)">
                <text x="1716.52px" y="1421.98px" style="font-family:'AvenirNext-Medium', 'Avenir Next', sans-serif;font-weight:500;font-size:96px;">r</text>
            </g>
            <g transform="matrix(0.48418,-0.874969,0.874969,0.48418,-325.202,2236.59)">
                <text x="1734.33px" y="1394.11px" style="font-family:'AvenirNext-Medium', 'Avenir Next', sans-serif;font-weight:500;font-size:96px;">e</text>
            </g>
            <g transform="matrix(0.376515,-0.92641,0.92641,0.376515,-122.305,2467.53)">
                <text x="1772.05px" y="1324.63px" style="font-family:'AvenirNext-Medium', 'Avenir Next', sans-serif;font-weight:500;font-size:96px;">O</text>
            </g>
            <g transform="matrix(0.301492,-0.953469,0.953469,0.301492,67.9996,2590.46)">
                <text x="1802px" y="1248.82px" style="font-family:'AvenirNext-Medium', 'Avenir Next', sans-serif;font-weight:500;font-size:96px;">r</text>
            </g>
            <g transform="matrix(0.243929,-0.969793,0.969793,0.243929,191.586,2677.51)">
                <text x="1812.98px" y="1215.88px" style="font-family:'AvenirNext-Medium', 'Avenir Next', sans-serif;font-weight:500;font-size:96px;">b</text>
            </g>
            <g transform="matrix(0.191463,-0.9815,0.9815,0.191463,342.448,2728.73)">
                <text x="1827.46px" y="1156.51px" style="font-family:'AvenirNext-Medium', 'Avenir Next', sans-serif;font-weight:500;font-size:96px;">i</text>
            </g>
            <g transform="matrix(0.156273,-0.987714,0.987714,0.156273,427.728,2764.95)">
                <text x="1832.27px" y="1132.11px" style="font-family:'AvenirNext-Medium', 'Avenir Next', sans-serif;font-weight:500;font-size:96px;">t</text>
            </g>
        </g>
    </g>
    <g transform="matrix(1.3785,0,0,1.3785,-349.459,-371.597)">
        <g id="Layer2">
            <g>
                <path d="M1074.98,785.663L1051.57,749.141L1014.2,536.306L1047.15,514.718L1088.49,737.564L1083.78,785.876L1098.95,786.243L1127.09,786.829C1127.01,781.01 1127.3,776.125 1127.54,773.968C1130.36,749.004 1131.81,734.539 1142.57,711.569C1148.64,698.611 1162.21,684.042 1171.83,682.475C1177.66,681.524 1194.74,679.84 1201.68,681.547C1205.37,682.451 1210.29,684.787 1214.77,688.068C1219.83,691.787 1224.44,696.744 1228.22,702.64C1242.22,724.496 1249.3,756.932 1251.03,783.377C1252.01,798.338 1251.49,818.022 1249.36,829.749C1244.95,854.001 1241.76,869.06 1227.33,888.976C1221.49,897.036 1215.64,899.47 1206.57,902.807C1203.51,903.933 1182.12,903.906 1178.17,903.701C1166.69,903.105 1151.88,890.211 1142.41,870.166C1135.69,855.935 1131.26,836.989 1128.68,817.559C1128.38,815.352 1127.96,809.345 1127.62,802.422C1114.6,802.92 1101.09,803.429 1088.14,803.912L1112.69,839.494L1153.85,1045.25L1118.29,1064.99L1075.73,853.437L1079.07,804.25C1043.74,805.562 1014.65,806.612 1014.65,806.612L1013.79,784.183L1074.98,785.663ZM906.971,637.728C912.731,636.679 939.369,637.137 943.644,637.813C955.864,639.744 968.601,643.445 988.693,680.786C1001.66,704.889 1008.91,736.367 1011.85,764.254C1013.28,777.903 1014.78,804.899 1014,819.21C1013.17,834.544 1007.27,879.253 992.647,912.529C984.972,929.996 971.428,953.633 949.097,956.752C943.495,957.535 919.313,957.84 910.48,957.206C893.053,955.955 876.71,940.427 861.423,909.605C847.374,881.279 839.943,848.159 839.28,798.439C838.511,740.787 847.456,701.319 867.727,668.922C883.293,644.044 899.986,638.999 906.971,637.728ZM921.742,662.992C918.528,663.03 900.904,680.701 894.266,701.527C883.648,734.84 879.864,751.436 879.681,795.467C879.462,847.82 887.158,867.996 895.43,891.221C906.224,921.525 923.349,932.301 925.767,932.052C928.904,931.73 945.528,918.617 955.018,889.279C965.529,856.791 968.172,825.119 967.974,791.818C967.77,757.509 958.743,718.27 947.861,694.002C938.472,673.064 924.193,662.963 921.742,662.992ZM1156.98,801.282C1157.13,804.558 1157.36,807.879 1157.67,811.214C1159.21,827.606 1162.14,843 1169.85,861.525C1171.93,866.533 1174.39,871.439 1177.45,875.46C1181.38,880.627 1185.92,884.334 1187.89,884.939C1190.08,885.609 1200.52,873.906 1205.21,861.432C1216.15,832.348 1215.85,812.125 1216.1,791.644C1216.42,765.629 1211.91,746.789 1204.2,726.611C1197.37,708.743 1187.13,700.24 1185.1,700.505C1182.92,700.788 1172.2,710.09 1166.06,728.472C1161.88,741.013 1160,748.48 1158.2,763.552C1157.4,770.267 1156.82,778.481 1156.73,787.447L1179.66,787.924L1182.36,787.985C1182.36,787.985 1183.15,786.543 1184.21,784.798C1185.44,782.755 1188.88,783.313 1190.78,785.487C1192.85,787.844 1193.92,790.76 1194.11,793.328C1194.39,796.988 1193.06,800.555 1191.44,802.771C1189.28,805.724 1186.69,805.635 1184.86,803.439C1183.69,802.045 1182.59,800.197 1182.59,800.197C1182.59,800.197 1181.44,800.287 1179.77,800.357C1173.14,800.635 1165.4,800.948 1156.98,801.282ZM960.04,809.375C946.293,809.952 930.594,810.305 930.594,810.305C930.594,810.305 929.507,812.059 927.85,814.847C925.562,818.697 920.322,820.769 917.121,820.423C909.8,819.632 904.296,813.766 904.916,795.87C905.383,782.395 909.975,768.605 919.759,768.783C923.196,768.846 926.391,770.686 927.554,773.481C929.852,779.005 930.338,782.278 930.338,782.278L959.886,784.044C960.729,793.951 960.178,802.07 960.04,809.375Z"/>
                <g>
                    <path d="M1210.37,582.413C1208.51,585.024 1205.53,589.288 1198.8,599.59C1193.58,607.565 1178.28,630.804 1178.28,630.804C1178.28,630.804 1195.18,596.106 1199.99,587.297C1201.89,583.816 1203.72,580.459 1205.48,577.215C1124.75,492.7 1010.97,440.022 884.977,440.022C640.337,440.022 441.721,638.638 441.721,883.278C441.721,1068.66 555.775,1227.62 717.482,1293.75C773.098,1225.19 802.641,1186.91 871.393,1096.18L941.616,1002.84C941.616,1002.84 889.355,1083.05 870.841,1110.07C810.039,1198.82 737.865,1301.5 737.865,1301.5L719.107,1325.73C719.107,1325.73 697.926,1352.42 685.403,1367.78C657.679,1401.78 629.412,1435.57 598.273,1466.32C584.888,1479.53 571.543,1493.37 554.361,1501.17C546.592,1504.7 536.581,1505.88 529.476,1499.88C522.285,1493.8 521.176,1482.92 522.588,1472.72C525.596,1451.01 534.734,1430.41 543.52,1410.22C564.377,1362.29 589.169,1316.3 614.706,1270.72C492.516,1185.29 412.536,1043.55 412.536,883.278C412.536,622.531 624.23,410.837 884.977,410.837C978.96,410.837 1066.57,438.339 1140.19,485.728C1175.85,440.644 1211.8,396.109 1252.76,356.144C1263.94,345.24 1275.48,334.347 1288.65,326.514C1290.29,325.543 1291.97,324.626 1293.7,323.806C1301.44,320.134 1311.29,318.549 1318.63,324.152C1327.35,330.806 1327.52,344.319 1325.37,355.536C1321.51,375.693 1313.23,394.887 1304.89,413.942C1283.57,462.679 1255.79,505.659 1229.01,551.635L1226.12,556.58M635.614,1284.53C609.534,1331.04 584.264,1377.89 563.681,1426.64C556.831,1442.86 549.582,1459.34 547.301,1476.53L547.281,1476.69C560.639,1468.8 571.77,1457.47 582.912,1446.34C604.909,1424.35 670.568,1351.28 682.457,1336.73C687.977,1329.98 693.242,1323.53 698.287,1317.34C676.502,1307.95 655.562,1296.96 635.614,1284.53ZM1219.99,550.287C1246.38,500.75 1254.68,481.641 1278.71,432.359C1291.95,405.193 1298.43,383.418 1305.45,360.375C1308.33,350.928 1305.15,347.084 1301.23,348.417L1301.28,348.088C1291.74,353.766 1283.37,361.536 1275.12,369.335C1248.51,394.465 1224.57,422.432 1200.92,450.697C1191.44,462.031 1174.38,483.669 1161.43,500.229C1182.29,515.318 1201.88,532.069 1219.99,550.287Z"/>
                    <path d="M1230.59,561.304C1230.59,561.304 1232.29,563.14 1233.14,564.063C1310.3,648.164 1357.42,760.262 1357.42,883.278C1357.42,1144.03 1145.73,1355.72 884.977,1355.72C831.237,1355.72 779.58,1346.73 731.431,1330.16C729.754,1329.59 726.412,1328.41 726.412,1328.41L744.77,1303.87C744.77,1303.87 746.74,1304.52 747.727,1304.84C790.949,1318.92 837.081,1326.54 884.977,1326.54C1129.62,1326.54 1328.23,1127.92 1328.23,883.278C1328.23,770.853 1286.29,668.147 1217.2,589.97C1216.4,589.06 1214.78,587.25 1214.78,587.25"/>
                </g>
            </g>
        </g>
    </g>
</svg>
