<?xml version="1.0" encoding="UTF-8" standalone="no"?><!DOCTYPE svg PUBLIC "-//W3C//DTD SVG 1.1//EN" "http://www.w3.org/Graphics/SVG/1.1/DTD/svg11.dtd"><svg width="100%" height="100%" viewBox="0 0 1458 690" version="1.1" xmlns="http://www.w3.org/2000/svg" xmlns:xlink="http://www.w3.org/1999/xlink" xml:space="preserve" xmlns:serif="http://www.serif.com/" style="fill-rule:evenodd;clip-rule:evenodd;stroke-linejoin:round;stroke-miterlimit:1.41421;"><rect id="oioss-text" x="0.643" y="0.401" width="1456.76" height="689.085" style="fill:none;"/><path id="Artboard2" d="M1298.86,91.107l-444.53,2.975l3.382,505.287l444.53,-2.976l-3.382,-505.286Z" style="fill:none;"/><path d="M1104.9,342.832l-18.029,-28.05l-28.937,-163.558l25.305,-16.627l31.995,171.25l-3.568,37.14l11.657,0.267l21.631,0.423c-0.07,-4.473 0.148,-8.229 0.333,-9.887c2.141,-19.191 3.241,-30.31 11.491,-47.978c4.652,-9.965 15.071,-21.177 22.46,-22.392c4.488,-0.737 17.606,-2.048 22.95,-0.742c2.831,0.691 6.62,2.481 10.061,4.999c3.899,2.853 7.447,6.659 10.356,11.187c10.786,16.785 16.258,41.71 17.613,62.036c0.766,11.499 0.384,26.63 -1.241,35.646c-3.36,18.645 -5.798,30.223 -16.872,45.546c-4.483,6.202 -8.974,8.078 -15.941,10.653c-2.35,0.868 -18.79,0.869 -21.826,0.715c-8.83,-0.447 -20.227,-10.344 -27.521,-25.741c-5.18,-10.933 -8.607,-25.491 -10.612,-40.424c-0.227,-1.696 -0.562,-6.313 -0.831,-11.633c-10.003,0.395 -20.384,0.799 -30.34,1.184l18.908,27.325l31.835,158.117l-27.311,15.205l-32.926,-162.567l2.525,-37.811c-27.159,1.044 -49.515,1.878 -49.515,1.878l-0.683,-17.239l47.033,1.078Zm-129.287,-113.544c4.426,-0.812 24.902,-0.486 28.188,0.029c9.395,1.472 19.19,4.304 34.67,32.987c9.992,18.513 15.598,42.701 17.881,64.134c1.117,10.49 2.291,31.24 1.711,42.24c-0.624,11.787 -5.117,46.159 -16.323,71.751c-5.882,13.434 -16.269,31.615 -33.43,34.035c-4.306,0.608 -22.893,0.865 -29.683,0.387c-13.397,-0.944 -25.974,-12.864 -37.755,-36.539c-10.827,-21.759 -16.571,-47.21 -17.131,-85.426c-0.648,-44.314 6.189,-74.66 21.738,-99.582c11.94,-19.138 24.766,-23.032 30.134,-24.016Zm11.379,19.405c-2.471,0.032 -16,13.632 -21.081,29.647c-8.129,25.617 -11.022,38.376 -11.119,72.221c-0.116,40.241 5.819,55.742 12.201,73.586c8.327,23.282 21.5,31.548 23.359,31.355c2.411,-0.251 15.175,-10.347 22.441,-32.907c8.047,-24.982 10.047,-49.329 9.862,-74.926c-0.19,-26.372 -7.167,-56.524 -15.556,-75.166c-7.238,-16.085 -18.223,-23.836 -20.107,-23.81Zm180.95,106.063c0.123,2.518 0.302,5.07 0.545,7.634c1.195,12.598 3.465,24.427 9.409,38.659c1.607,3.848 3.501,7.616 5.857,10.703c3.025,3.968 6.519,6.814 8.037,7.277c1.68,0.512 9.689,-8.493 13.284,-18.087c8.38,-22.366 8.13,-37.91 8.305,-53.652c0.221,-19.997 -3.264,-34.474 -9.213,-49.977c-5.268,-13.727 -13.144,-20.252 -14.705,-20.047c-1.674,0.219 -9.909,7.381 -14.608,21.515c-3.205,9.645 -4.643,15.386 -6.006,26.973c-0.609,5.162 -1.047,11.476 -1.11,18.368l17.627,0.344l2.074,0.044c0,0 0.611,-1.109 1.42,-2.451c0.947,-1.572 3.585,-1.146 5.052,0.523c1.59,1.81 2.42,4.05 2.57,6.024c0.214,2.812 -0.801,5.556 -2.045,7.261c-1.659,2.272 -3.651,2.206 -5.062,0.519c-0.895,-1.07 -1.747,-2.489 -1.747,-2.489c0,0 -0.877,0.07 -2.163,0.126c-5.1,0.22 -11.043,0.469 -17.521,0.733Zm-151.368,6.416c-10.566,0.457 -22.632,0.744 -22.632,0.744c0,0 -0.834,1.349 -2.105,3.494c-1.755,2.962 -5.78,4.559 -8.241,4.296c-5.628,-0.6 -9.865,-5.104 -9.406,-18.86c0.346,-10.358 3.861,-20.962 11.382,-20.835c2.641,0.044 5.1,1.456 5.996,3.603c1.772,4.244 2.15,6.759 2.15,6.759l22.713,1.329c0.658,7.614 0.243,13.855 0.143,19.47Z" style="fill-rule:nonzero;"/><g transform="matrix(1.10502,0,0,1.10502,-960.803,-22.507)"><text x="1064.35px" y="230.215px" style="font-family:'AvenirNext-Italic', 'Avenir Next', sans-serif;font-style:italic;font-size:96px;">O<tspan x="1143.94px 1199.14px 1254.34px " y="230.215px 230.215px 230.215px ">PEN</tspan></text><text x="1044.44px" y="326.215px" style="font-family:'AvenirNext-Italic', 'Avenir Next', sans-serif;font-style:italic;font-size:96px;">I<tspan x="1071.8px 1146.2px 1201.4px 1261.31px " y="326.215px 326.215px 326.215px 326.215px ">NFRA</tspan></text><text x="1024.53px" y="422.215px" style="font-family:'AvenirNext-Italic', 'Avenir Next', sans-serif;font-style:italic;font-size:96px;">S<tspan x="1079.64px " y="422.215px ">T</tspan></text><text x="1133.11px" y="422.215px" style="font-family:'AvenirNext-Italic', 'Avenir Next', sans-serif;font-style:italic;font-size:96px;">R</text><text x="1190.61px" y="422.215px" style="font-family:'AvenirNext-Italic', 'Avenir Next', sans-serif;font-style:italic;font-size:96px;">U</text><text x="1255.89px" y="422.215px" style="font-family:'AvenirNext-Italic', 'Avenir Next', sans-serif;font-style:italic;font-size:96px;">C</text><text x="1326.93px" y="422.215px" style="font-family:'AvenirNext-Italic', 'Avenir Next', sans-serif;font-style:italic;font-size:96px;">T<tspan x="1380.41px 1449.53px 1507.99px " y="422.215px 422.215px 422.215px ">URE</tspan></text><text x="1268.72px" y="518.215px" style="font-family:'AvenirNext-Italic', 'Avenir Next', sans-serif;font-style:italic;font-size:96px;">O</text><text x="1345.9px" y="518.215px" style="font-family:'AvenirNext-Italic', 'Avenir Next', sans-serif;font-style:italic;font-size:96px;">R<tspan x="1404.85px 1465.81px 1492.21px " y="518.215px 518.215px 518.215px ">BIT</tspan></text></g></svg>