<svg version="1.1" xmlns="http://www.w3.org/2000/svg" xmlns:xlink="http://www.w3.org/1999/xlink" width="653.5" height="653.5" viewBox="607,77.97919,653.5,653.5"><g fill="none" fill-rule="nonzero" stroke="none" stroke-width="none" stroke-linecap="none" stroke-linejoin="miter" stroke-miterlimit="10" stroke-dasharray="none" stroke-dashoffset="0" font-family="none" font-weight="none" font-size="none" text-anchor="none" style="mix-blend-mode: normal"><g stroke="none" stroke-width="3" stroke-linecap="round" stroke-dasharray="4,10"><path transform="translate(457.5,-71.52081) scale(1.01,1.01)" d="M200,300v-100h100v100z" fill="#240038"/><path transform="translate(456.5,-71.52081) scale(1.01,1.01)" d="M300,300v-100h100v100z" fill="none"/><path transform="translate(455.5,-71.52081) scale(1.01,1.01)" d="M400,300v-100h100v100z" fill="none"/><path transform="translate(454.5,-71.52081) scale(1.01,1.01)" d="M500,300v-100h100v100z" fill="none"/><path transform="translate(452.5,-71.52081) scale(1.01,1.01)" d="M700,300v-100h100v100z" fill="none"/><path transform="translate(457.5,-72.52081) scale(1.01,1.01)" d="M200,400v-100h100v100z" fill="#240038"/><path transform="translate(456.5,-72.52081) scale(1.01,1.01)" d="M300,400v-100h100v100z" fill="none"/><path transform="translate(455.5,-72.52081) scale(1.01,1.01)" d="M400,400v-100h100v100z" fill="none"/><path transform="translate(454.5,-72.52081) scale(1.01,1.01)" d="M500,400v-100h100v100z" fill="none"/><path transform="translate(452.5,-72.52081) scale(1.01,1.01)" d="M700,400v-100h100v100z" fill="none"/><path transform="translate(457.5,-73.52081) scale(1.01,1.01)" d="M200,500v-100h100v100z" fill="#240038"/><path transform="translate(456.5,-73.52081) scale(1.01,1.01)" d="M300,500v-100h100v100z" fill="none"/><path transform="translate(455.5,-73.52081) scale(1.01,1.01)" d="M400,500v-100h100v100z" fill="none"/><path transform="translate(454.5,-73.52081) scale(1.01,1.01)" d="M500,500v-100h100v100z" fill="none"/><path transform="translate(452.5,-73.52081) scale(1.01,1.01)" d="M700,500v-100h100v100z" fill="#670295"/><path transform="translate(457.5,-74.52081) scale(1.01,1.01)" d="M200,600v-100h100v100z" fill="#240038"/><path transform="translate(456.5,-74.52081) scale(1.01,1.01)" d="M300,600v-100h100v100z" fill="none"/><path transform="translate(455.5,-74.52081) scale(1.01,1.01)" d="M400,600v-100h100v100z" fill="none"/><path transform="translate(454.5,-74.52081) scale(1.01,1.01)" d="M500,600v-100h100v100z" fill="#240038"/><path transform="translate(453.5,-74.52081) scale(1.01,1.01)" d="M600,600v-100h100v100z" fill="#670295"/><path transform="translate(452.5,-74.52081) scale(1.01,1.01)" d="M700,600v-100h100v100z" fill="#b239ff"/><path transform="translate(457.5,-75.52081) scale(1.01,1.01)" d="M200,700v-100h100v100z" fill="none"/><path transform="translate(456.5,-75.52081) scale(1.01,1.01)" d="M300,700v-100h100v100z" fill="none"/><path transform="translate(455.5,-75.52081) scale(1.01,1.01)" d="M400,700v-100h100v100z" fill="#240038"/><path transform="translate(454.5,-75.52081) scale(1.01,1.01)" d="M500,700v-100h100v100z" fill="#440069"/><path transform="translate(457.5,-76.52081) scale(1.01,1.01)" d="M200,800v-100h100v100z" fill="none"/><path transform="translate(456.5,-76.52081) scale(1.01,1.01)" d="M300,800v-100h100v100z" fill="none"/><path transform="translate(455.5,-76.52081) scale(1.01,1.01)" d="M400,800v-100h100v100z" fill="none"/><path transform="translate(454.5,-76.52081) scale(1.01,1.01)" d="M500,800v-100h100v100z" fill="#440069"/><path transform="translate(453.5,-76.52081) scale(1.01,1.01)" d="M600,800v-100h100v100z" fill="#440069"/><path transform="translate(453.5,-75.52081) scale(1.01,1.01)" d="M600,700v-100h100v100z" fill="#b239ff"/><path transform="translate(452.5,-76.52081) scale(1.01,1.01)" d="M700,800v-100h100v100z" fill="#670295"/><path transform="translate(452.5,-75.52081) scale(1.01,1.01)" d="M700,700v-100h100v100z" fill="#b239ff"/><path transform="translate(453.5,-73.52081) scale(1.01,1.01)" d="M600,500v-100h100v100z" fill="#240038"/><path transform="translate(453.5,-72.52081) scale(1.01,1.01)" d="M600,400v-100h100v100z" fill="none"/><path transform="translate(453.5,-71.52081) scale(1.01,1.01)" d="M600,300v-100h100v100z" fill="none"/></g><g fill="none" stroke="none" stroke-width="1" stroke-linecap="butt" stroke-dasharray="" font-family="sans-serif" font-weight="normal" font-size="12" text-anchor="start"/><g fill="none" stroke="none" stroke-width="1" stroke-linecap="butt" stroke-dasharray="" font-family="sans-serif" font-weight="normal" font-size="12" text-anchor="start"/><g fill="none" stroke="none" stroke-width="1" stroke-linecap="butt" stroke-dasharray="" font-family="sans-serif" font-weight="normal" font-size="12" text-anchor="start"/><g fill="none" stroke="none" stroke-width="1" stroke-linecap="butt" stroke-dasharray="" font-family="sans-serif" font-weight="normal" font-size="12" text-anchor="start"/><g fill="none" stroke="none" stroke-width="1" stroke-linecap="butt" stroke-dasharray="" font-family="sans-serif" font-weight="normal" font-size="12" text-anchor="start"/><g fill="none" stroke="none" stroke-width="1" stroke-linecap="butt" stroke-dasharray="" font-family="sans-serif" font-weight="normal" font-size="12" text-anchor="start"/><g fill="none" stroke="none" stroke-width="1" stroke-linecap="butt" stroke-dasharray="" font-family="sans-serif" font-weight="normal" font-size="12" text-anchor="start"/><g fill="none" stroke="none" stroke-width="1" stroke-linecap="butt" stroke-dasharray="" font-family="sans-serif" font-weight="normal" font-size="12" text-anchor="start"/><g fill="none" stroke="none" stroke-width="1" stroke-linecap="butt" stroke-dasharray="" font-family="sans-serif" font-weight="normal" font-size="12" text-anchor="start"/><g stroke-linecap="butt" stroke-dasharray=""><path d="M610,680.97919v-600h600v600z" fill="none" stroke="#ffffff" stroke-width="6"/><g fill="#ffffff" stroke="none" stroke-width="1"><path d="M1101.225,655.97919h-19.95v-108h99.45v19.95h-79.5v24h63.9v20.1h-63.9z"/><path d="M1020.825,588.32919h-19.65v-19.65h19.65zM1020.825,655.97919h-19.65v-19.65h19.65z"/><path d="M856.8,655.97919h-19.8v-87.15c0,-5.7 2.05,-10.6 6.15,-14.7c4.1,-4.1 9,-6.15 14.7,-6.15v0h66.15c5.8,0 10.75,2.05 14.85,6.15c4.1,4.1 6.15,9 6.15,14.7v0v87.15h-19.95v-36.3h-68.25zM856.8,573.17919v26.7h68.25v-26.7c0,-2.8 -0.2,-4.37333 -0.6,-4.72c-0.4,-0.35333 -1.95,-0.53 -4.65,-0.53v0h-57.75c-2.8,0 -4.37667,0.17667 -4.73,0.53c-0.34667,0.34667 -0.52,1.92 -0.52,4.72z"/><path d=""/><path d="M1164.15,535.97919h-66.3c-5.7,0 -10.6,-2.05 -14.7,-6.15c-4.1,-4.1 -6.15,-9 -6.15,-14.7v0v-66.3c0,-5.7 2.05,-10.6 6.15,-14.7c4.1,-4.1 9,-6.15 14.7,-6.15v0h66.3c5.7,0 10.6,2.05 14.7,6.15c4.1,4.1 6.15,9 6.15,14.7v0v66.3c0,5.7 -2.05,10.6 -6.15,14.7c-4.1,4.1 -9,6.15 -14.7,6.15zM1102.05,516.02919v0h57.75c2.7,0 4.25,-0.17333 4.65,-0.52c0.4,-0.35333 0.6,-1.93 0.6,-4.73v0v-57.6c0,-2.8 -0.2,-4.37333 -0.6,-4.72c-0.4,-0.35333 -1.95,-0.53 -4.65,-0.53v0h-57.75c-2.8,0 -4.37333,0.17667 -4.72,0.53c-0.35333,0.34667 -0.53,1.92 -0.53,4.72v0v57.6c0,2.8 0.17667,4.37667 0.53,4.73c0.34667,0.34667 1.92,0.52 4.72,0.52z"/><path d="M1020.825,535.97919h-19.65v-108h19.65z"/><path d="M924.15,535.97919h-66.3c-5.7,0 -10.6,-2.05 -14.7,-6.15c-4.1,-4.1 -6.15,-9 -6.15,-14.7v0v-66.3c0,-5.7 2.05,-10.6 6.15,-14.7c4.1,-4.1 9,-6.15 14.7,-6.15v0h66.3c5.7,0 10.6,2.05 14.7,6.15c4.1,4.1 6.15,9 6.15,14.7v0v66.3c0,5.7 -2.05,10.6 -6.15,14.7c-4.1,4.1 -9,6.15 -14.7,6.15zM862.05,516.02919v0h57.75c2.7,0 4.25,-0.17333 4.65,-0.52c0.4,-0.35333 0.6,-1.93 0.6,-4.73v0v-57.6c0,-2.8 -0.2,-4.37333 -0.6,-4.72c-0.4,-0.35333 -1.95,-0.53 -4.65,-0.53v0h-57.75c-2.8,0 -4.37333,0.17667 -4.72,0.53c-0.35333,0.34667 -0.53,1.92 -0.53,4.72v0v57.6c0,2.8 0.17667,4.37667 0.53,4.73c0.34667,0.34667 1.92,0.52 4.72,0.52z"/></g></g></g></svg>